<?xml version="1.0" encoding="utf-8"?>
<!-- Generator: Adobe Illustrator 22.0.1, SVG Export Plug-In . SVG Version: 6.00 Build 0)  -->
<svg version="1.1" id="Layer_1" xmlns="http://www.w3.org/2000/svg" xmlns:xlink="http://www.w3.org/1999/xlink" x="0px" y="0px"
	 viewBox="0 0 595.3 841.9" style="enable-background:new 0 0 595.3 841.9;" xml:space="preserve">
<style type="text/css">
	.st0{fill:none;stroke:#010101;stroke-width:0.4374;stroke-linecap:round;stroke-linejoin:round;stroke-miterlimit:10;}
	.st1{fill:#010101;}
	.st2{font-family:'MyriadPro-Regular';}
	.st3{font-size:12px;}
</style>
<path class="st0" d="M335.6,448.8l0.8,0.1 M335.7,447.5l0.7,0.1 M335.6,420.7l0.8,0.1 M335.7,419.4l0.7,0.1 M335.6,392.7l0.8,0.1
	 M335.7,391.4l0.7,0.1 M335.6,364.7l0.8,0.1 M335.7,363.4l0.7,0.1 M165.8,439.7l0.3-0.2 M166.8,440.8l1.3-1.1 M213.6,445.7l0.4-0.3
	 M165.8,377.9l0.3-0.3 M166.8,379l1.3-1.2 M213.6,383.9l0.4-0.3 M286.9,520.7l0.3-0.3 M93,491.9l-0.5,0.4 M92.6,496.2l194.3,24.5
	 M286.9,516.8v3.9 M92.6,492.3l194.3,24.5 M92.6,492.3v3.9 M336.4,345.2v0.3 M142,320.7l-49.5,43.6 M286.9,388.8l49.5-43.6
	 M336.4,345.2L142,320.7 M92.6,368.3l194.3,24.5 M286.9,388.8v3.9 M92.6,364.3l194.3,24.5 M92.6,364.3v3.9 M140.8,320.9L140.8,320.9
	l-0.1,0.1 M91.6,495.1v0.2l0.1,0.2v0.1l0.1,0.1l0.1,0.1h0.1 M140.7,320.9l-48.7,43 M140.7,320.9l1,0.1 M91.6,365.2v129.9
	 M91.6,495.1l1,0.1 M91.9,363.9l1,0.1 M91.9,363.9L91.9,363.9l-0.1,0.2l-0.1,0.1l-0.1,0.2l-0.1,0.2v0.2l-0.1,0.2v0.2 M91.6,365.2
	l1,0.1 M92.6,365.3v129.9 M141.7,321l-48.7,43 M336.1,452L336.1,452H336 M336,452l-0.4,0.4 M336,452l1,0.1 M336.1,423.9L336.1,423.9
	L336,424 M336,424l-0.4,0.4 M336,424l1,0.1 M336.1,395.9L336.1,395.9L336,396 M336,396l-0.4,0.4 M336,396l1,0.1 M336.1,367.9
	L336.1,367.9H336 M336,367.9l-0.4,0.4 M336,367.9l1,0.1 M336.1,345.5L336.1,345.5l-0.1,0.1 M286.9,519.7v0.2l0.1,0.2v0.1l0.1,0.1
	l0.1,0.1h0.1 M336,345.5l-48.7,43 M336,345.5l1,0.1 M286.9,389.8v129.9 M286.9,519.7l1,0.1 M287.2,388.5l1,0.1 M287.2,388.5
	L287.2,388.5l-0.1,0.2l-0.1,0.1L287,389l-0.1,0.2v0.2l-0.1,0.2v0.2 M286.9,389.8l1,0.1 M291.8,492.7v-0.2l-0.1-0.1l-0.1-0.1h-0.1
	l-0.1,0.1l-0.1,0.2l-0.1,0.2v0.2v0.2l0.1,0.1l0.1,0.1l0.1-0.1l0.1-0.1l0.1-0.2l0.1-0.2V492.7 M291.8,451.4v-0.2l-0.1-0.1l-0.1-0.1
	h-0.1l-0.1,0.1l-0.1,0.2l-0.1,0.2v0.2v0.2l0.1,0.1l0.1,0.1l0.1-0.1l0.1-0.1l0.1-0.2l0.1-0.2V451.4 M291.8,410.2v-0.2l-0.1-0.1
	l-0.1-0.1h-0.1l-0.1,0.1l-0.1,0.2l-0.1,0.2v0.2v0.2l0.1,0.1l0.1,0.1l0.1-0.1l0.1-0.1l0.1-0.1l0.1-0.2V410.2 M291.8,514.4v-0.2
	l-0.1-0.1l-0.1-0.1h-0.1l-0.1,0.1l-0.1,0.2l-0.1,0.2v0.2v0.2l0.1,0.1l0.1,0.1l0.1-0.1l0.1-0.1l0.1-0.2l0.1-0.2V514.4 M291.8,388.5
	v-0.2l-0.1-0.1l-0.1-0.1h-0.1l-0.1,0.1l-0.1,0.2l-0.1,0.2v0.2v0.2l0.1,0.1l0.1,0.1l0.1-0.1l0.1-0.1l0.1-0.2l0.1-0.2V388.5
	 M334.3,476.9v-0.2l-0.1-0.1l-0.1-0.1h-0.1l-0.1,0.1l-0.1,0.2v0.2l-0.1,0.2l0.1,0.2v0.2l0.1,0.1l0.1-0.1l0.1-0.1l0.1-0.1l0.1-0.2
	V476.9 M334.3,372.7v-0.2l-0.1-0.1l-0.1-0.1h-0.1l-0.1,0.1l-0.1,0.2v0.2l-0.1,0.2l0.1,0.2v0.2l0.1,0.1l0.1-0.1l0.1-0.1l0.1-0.1
	l0.1-0.2V372.7 M334.3,413.9v-0.2l-0.1-0.1l-0.1-0.1h-0.1l-0.1,0.1l-0.1,0.2v0.2l-0.1,0.2l0.1,0.2v0.1l0.1,0.1l0.1-0.1l0.1-0.1
	l0.1-0.2l0.1-0.2V413.9 M334.3,455.2V455l-0.1-0.1l-0.1-0.1h-0.1l-0.1,0.1l-0.1,0.2v0.2l-0.1,0.2l0.1,0.2v0.1l0.1,0.1l0.1-0.1
	l0.1-0.1l0.1-0.2l0.1-0.2V455.2 M334.3,351v-0.2l-0.1-0.1l-0.1-0.1h-0.1l-0.1,0.1l-0.1,0.2v0.2l-0.1,0.2l0.1,0.2v0.1l0.1,0.1
	l0.1-0.1l0.1-0.1l0.1-0.2l0.1-0.2V351 M319.6,489.8v-0.2l-0.1-0.1l-0.1-0.1l-0.1,0.1l-0.1,0.1l-0.1,0.2l-0.1,0.2v0.2v0.2l0.1,0.1
	l0.1,0.1h0.1l0.1-0.1l0.1-0.2l0.1-0.2V489.8 M306.4,501.5v-0.2l-0.1-0.1l-0.1-0.1l-0.1,0.1l-0.1,0.1l-0.1,0.2v0.2l-0.1,0.2l0.1,0.2
	v0.1l0.1,0.1h0.1l0.1-0.1l0.1-0.2l0.1-0.2V501.5 M306.4,375.6v-0.2l-0.1-0.2l-0.1-0.1l-0.1,0.1l-0.1,0.1l-0.1,0.1v0.2l-0.1,0.2
	l0.1,0.2v0.1l0.1,0.1h0.1l0.1-0.1l0.1-0.2l0.1-0.2V375.6 M319.6,363.8v-0.2l-0.1-0.1l-0.1-0.1l-0.1,0.1l-0.1,0.1l-0.1,0.2l-0.1,0.2
	v0.2v0.2l0.1,0.1l0.1,0.1h0.1l0.1-0.1l0.1-0.2l0.1-0.2V363.8 M288.2,388.6L288.2,388.6l-0.1,0.2l-0.1,0.1l-0.1,0.2l-0.1,0.2
	l-0.1,0.2v0.2v0.2 M287.9,389.9v129.9 M287.9,519.9v0.2v0.2l0.1,0.1l0.1,0.1l0.1,0.1h0.1h0.1h0.1 M288.2,520.5l48.7-43 M337,477.5
	L337,477.5l0.1-0.2l0.1-0.2l0.1-0.1l0.1-0.2v-0.2l0.1-0.2v-0.2 M337.3,476.2v-23.4 M337.3,452.8v-0.2l-0.1-0.2v-0.1l-0.1-0.1
	l-0.1-0.1h-0.1H337H337 M337,452.1l-1.4,1.2 M335.6,453.4v-5.1 M335.6,448.3l0.1-0.4l0.1-0.4l0.1-0.3l0.2-0.2l0.1-0.1h0.1l0.1,0.1
	l0.1,0.2v0.4 M336.4,447.6v1.3 M336.4,448.9v0.1v0.1l0.1,0.1v0.1l0.1,0.1h0.1 M336.5,449.2l0.4-0.4 M337,448.9L337,448.9l0.1-0.2
	l0.1-0.2l0.1-0.1l0.1-0.2v-0.2l0.1-0.2v-0.2 M337.3,447.6v-22.8 M337.3,424.8v-0.2l-0.1-0.2v-0.1l-0.1-0.1l-0.1-0.1l-0.1-0.1H337
	l-0.1,0.1 M337,424.1l-1.4,1.2 M335.6,425.4v-5.1 M335.6,420.2l0.1-0.4l0.1-0.4l0.1-0.4l0.2-0.2l0.1-0.1l0.1,0.1l0.1,0.1l0.1,0.2
	v0.4 M336.4,419.6v1.3 M336.4,420.9v0.1v0.1l0.1,0.1v0.1l0.1,0.1h0.1v-0.1 M336.5,421.2l0.4-0.3 M337,420.9l0.1-0.1l0.1-0.1l0.1-0.1
	l0.1-0.2l0.1-0.2v-0.2l0.1-0.2v-0.2 M337.3,419.5v-22.7 M337.3,396.8v-0.2l-0.1-0.2v-0.1l-0.1-0.1l-0.1-0.1l-0.1-0.1H337l-0.1,0.1
	 M337,396.1l-1.4,1.2 M335.6,397.3v-5.1 M335.6,392.2l0.1-0.4l0.1-0.4l0.1-0.3l0.2-0.2l0.1-0.1h0.1l0.1,0.2l0.1,0.2v0.3
	 M336.4,391.5v1.4 M336.4,392.8L336.4,392.8v0.2l0.1,0.1v0.1h0.1v0.1l0.1-0.1 M336.5,393.2l0.4-0.4 M337,392.8L337,392.8l0.1-0.2
	l0.1-0.1l0.1-0.2l0.1-0.2v-0.2l0.1-0.2v-0.2 M337.3,391.5v-22.8 M337.3,368.7v-0.2l-0.1-0.2v-0.1l-0.1-0.1l-0.1-0.1h-0.1H337H337
	 M337,368l-1.4,1.2 M335.6,369.3v-5.1 M335.6,364.2l0.1-0.4l0.1-0.4l0.1-0.3l0.2-0.2l0.1-0.1h0.1l0.1,0.1l0.1,0.2v0.4 M336.4,363.5
	v1.3 M336.4,364.8v0.1v0.1l0.1,0.1v0.1l0.1,0.1h0.1 M336.5,365.1l0.4-0.4 M337,364.8L337,364.8l0.1-0.2l0.1-0.2l0.1-0.1l0.1-0.2
	v-0.2l0.1-0.2v-0.2 M337.3,363.5v-17.1 M337.3,346.3v-0.2l-0.1-0.2v-0.1l-0.1-0.1l-0.1-0.1l-0.1-0.1H337l-0.1,0.1 M337,345.7
	l-48.7,43 M172.3,446.5l-0.6-0.2l-0.6-0.2l-0.6-0.4l-0.6-0.5l-0.4-0.6l-0.3-0.6l-0.2-0.7l-0.1-0.6 M93,430.5l0.3-0.3 M169,442.8
	v-3.1 M166.8,444.7l2.2-1.9 M211.6,451.4l-39.2-4.9 M170.1,448.5l2.2-2 M212.5,451.4h-0.2h-0.7 M209.3,453.4l2.2-2 M213.6,445.7
	h-0.2h-0.2l-0.2,0.1l-0.1,0.1l-0.1,0.1l-0.1,0.2l-0.1,0.2l-0.1,0.2 M212.6,446.6v3.9 M212.6,450.5l-0.1,0.6l-0.2,0.6l-0.3,0.6
	l-0.4,0.4l-0.5,0.3l-0.6,0.2l-0.6,0.1h-0.7 M209.3,453.4l-39.2-4.9 M170.1,448.5l-0.6-0.2l-0.6-0.2l-0.6-0.4l-0.5-0.5l-0.4-0.6
	l-0.3-0.6l-0.2-0.6l-0.1-0.7 M166.8,444.7v-3.9 M166.8,440.8v-0.2l-0.1-0.2l-0.1-0.2l-0.1-0.2l-0.1-0.1l-0.2-0.1l-0.2-0.1l-0.2-0.1
	 M165.8,439.7L93,430.5 M93,430.5V492 M93,492l193.3,24.4 M286.4,454.8l-72.8-9.1 M286.4,454.8l0.5-0.4 M286.4,516.3v-61.5
	 M286.4,516.3l0.5-0.4 M172.3,384.7l-0.6-0.2l-0.6-0.2l-0.6-0.4l-0.6-0.5l-0.4-0.6l-0.3-0.6l-0.2-0.6l-0.1-0.7 M93,368.7l0.3-0.2
	 M169,380.9v-3 M166.8,382.9l2.2-2 M211.6,389.6l-39.2-4.9 M170.1,386.6l2.2-1.9 M212.5,389.6l-0.2,0.1h-0.7 M209.3,391.6l2.2-2
	 M286.4,393l-72.8-9.1 M213.6,383.9h-0.2h-0.2L213,384l-0.1,0.1l-0.1,0.1l-0.1,0.2l-0.1,0.2l-0.1,0.2 M212.6,384.8v3.9 M212.6,388.7
	l-0.1,0.6l-0.2,0.6l-0.3,0.5l-0.4,0.5l-0.5,0.3l-0.6,0.2l-0.6,0.1h-0.7 M209.3,391.6l-39.2-5 M170.1,386.6l-0.6-0.1l-0.6-0.2
	l-0.6-0.4l-0.5-0.5l-0.4-0.6l-0.3-0.6l-0.2-0.6l-0.1-0.7 M166.8,382.9V379 M166.8,379v-0.2l-0.1-0.2l-0.1-0.2l-0.1-0.2l-0.1-0.1
	l-0.2-0.1l-0.2-0.1l-0.2-0.1 M165.8,377.9L93,368.7 M93,368.7v61.5 M93,430.2l193.3,24.4 M286.4,393l0.3-0.2 M286.4,454.5V393
	 M286.4,454.5l0.5-0.4 M141.7,321l-0.9-0.1 M91.8,495.8l0.7,0.1 M337.1,452.1l-1-0.1 M335.6,449.1l0.9,0.1 M337.1,424.1l-1-0.1
	 M335.6,421.1l0.9,0.1 M337.1,396.1l-1-0.1 M335.6,393.1l0.9,0.1 M337.1,368l-1-0.1 M335.6,365l0.9,0.1 M337.1,345.6l-1-0.1
	 M287.1,520.4l1,0.1 M213.5,445.3l-0.6,0.6 M213.5,383.5l-0.6,0.6"/>
<text transform="matrix(1 0 0 1 414.5132 393.2141)" class="st1 st2 st3">ALPHA_600_2DR</text>
</svg>
