<?xml version="1.0" encoding="utf-8"?>
<!-- Generator: Adobe Illustrator 22.1.0, SVG Export Plug-In . SVG Version: 6.00 Build 0)  -->
<svg version="1.1" id="Layer_1" xmlns="http://www.w3.org/2000/svg" xmlns:xlink="http://www.w3.org/1999/xlink" x="0px" y="0px"
	 viewBox="0 0 595.3 841.9" style="enable-background:new 0 0 595.3 841.9;" xml:space="preserve">
<style type="text/css">
	.st0{fill:none;stroke:#010101;stroke-width:0.5;stroke-linecap:round;stroke-linejoin:round;stroke-miterlimit:10;}
</style>
<g>
	<path class="st0" d="M418.5,446.1l0.6,0.1 M418.5,445.2l0.5,0.1 M418.5,426.3l0.6,0.1 M418.5,425.4h0.5 M418.5,406.5h0.6
		 M418.5,405.6h0.5 M418.5,386.7l0.6,0.1 M418.5,385.8l0.5,0.1 M263.9,421.3l0.4-0.4 M264.6,422.1l1.1-1 M297.7,425.6l0.5-0.4
		 M263.9,449.5l0.4-0.4 M264.6,450.3l1.1-1 M297.7,453.8l0.5-0.4 M263.9,393.1l0.3-0.3 M264.6,393.9l1-0.9 M297.7,397.4l0.3-0.3
		 M211.5,347L211.5,347L211.5,347 M176.8,470.1v0.1v0.1v0.1v0.1l0,0l0,0 M211.5,347L177,377.4 M211.5,347l0.7,0.1 M176.8,378.3v91.8
		 M176.8,470.1l0.7,0.1 M177.5,378.4v91.8 M212.2,347.1l-34.4,30.4 M177,377.4l0.7,0.1 M177,377.4L177,377.4l-0.1,0.1v0.1v0.1v0.1
		v0.2v0.1v0.1 M176.8,378.3l0.7,0.1 M418.8,448.3L418.8,448.3L418.8,448.3 M418.8,448.4l-0.3,0.3 M418.8,448.4l0.7,0.1 M418.8,428.6
		L418.8,428.6L418.8,428.6 M418.8,428.6l-0.3,0.3 M418.8,428.6l0.7,0.1 M418.8,408.8L418.8,408.8L418.8,408.8 M418.8,408.8l-0.3,0.3
		 M418.8,408.8l0.7,0.1 M418.8,388.9L418.8,388.9L418.8,388.9 M418.8,389l-0.3,0.3 M418.8,389l0.7,0.1 M418.8,373.1L418.8,373.1
		L418.8,373.1 M384.1,496.2v0.1v0.1v0.1v0.1l0,0l0,0 M418.8,373.2l-34.4,30.3 M418.8,373.2l0.7,0.1 M384.1,404.4v91.8 M384.1,496.2
		l0.7,0.1 M384.3,403.5l0.7,0.1 M384.3,403.5L384.3,403.5l-0.1,0.1v0.1v0.1v0.1v0.1v0.1v0.1 M384.1,404.4l0.7,0.1 M387.6,477.1V477
		v-0.1l0,0h-0.1v0.1v0.1v0.1v0.1v0.1v0.1l0,0l0,0l0.1-0.1v-0.1V477.1L387.6,477.1 M387.6,448v-0.1v-0.1l0,0h-0.1v0.1v0.1v0.2v0.1
		v0.1v0.1l0,0l0,0l0.1-0.1v-0.1v-0.1V448 M387.6,418.8v-0.1v-0.1l0,0h-0.1l0,0v0.1v0.2v0.1v0.1v0.1l0,0l0,0l0.1-0.1V419l0,0V418.8
		 M387.6,492.5v-0.2v-0.1l0,0h-0.1v0.1v0.1v0.2v0.1v0.1v0.1l0,0l0,0l0.1-0.1v-0.1v-0.1V492.5 M387.6,403.5v-0.1v-0.1l0,0h-0.1v0.1
		v0.1v0.2v0.1v0.1v0.1l0,0l0,0l0.1-0.1v-0.1v-0.2V403.5 M417.6,466v-0.1v-0.1l0,0l0,0l0,0v0.1v0.2v0.1v0.1v0.1l0,0l0,0v-0.1v-0.1
		v-0.1V466 M417.6,392.3v-0.1v-0.1l0,0l0,0l0,0v0.1v0.2v0.1v0.1v0.1l0,0l0,0v-0.1v-0.1v-0.1V392.3 M417.6,421.5v-0.2v-0.1l0,0l0,0
		v0.1v0.1v0.2v0.1v0.1v0.1l0,0l0,0v-0.1v-0.1v-0.1V421.5 M417.6,450.6v-0.1v-0.1l0,0l0,0v0.1V450.6v0.2v0.1v0.1v0.1l0,0l0,0V451
		v-0.1v-0.2V450.6 M417.6,377v-0.1v-0.1l0,0l0,0v0.1V377v0.2v0.1v0.1v0.1l0,0l0,0v-0.1v-0.1v-0.1V377 M407.3,475.1V475v-0.1l0,0
		h-0.1v0.1v0.1v0.1v0.2v0.1v0.1l0,0l0,0h0.1v-0.1v-0.2V475.1 M397.9,483.3v-0.1v-0.1l0,0l0,0v0.1V483.3v0.1v0.2v0.1v0.1l0,0l0,0l0,0
		v-0.1v-0.1V483.3 M397.9,394.4v-0.1v-0.1l0,0l0,0l0,0v0.1V394.4v0.2v0.1v0.1l0,0l0,0v-0.1v-0.1v-0.1V394.4 M407.3,386.1V386v-0.1
		l0,0h-0.1v0.1v0.1v0.1v0.2v0.1v0.1l0,0l0,0h0.1v-0.1v-0.1V386.1 M385,403.6L385,403.6l-0.1,0.1v0.1v0.1v0.1v0.1v0.1v0.2
		 M384.8,404.6v91.7 M384.8,496.3v0.1v0.1v0.1v0.1l0,0l0,0l0,0l0,0 M385,496.8l34.4-30.3 M419.5,466.4L419.5,466.4l0.1-0.2v-0.1V466
		v-0.1v-0.1v-0.1v-0.2 M419.7,465.5V449 M419.7,449v-0.1v-0.1v-0.1v-0.1l0,0l0,0l0,0l0,0 M419.5,448.5l-1,0.9 M418.5,449.3v-3.6
		 M418.5,445.7v-0.3v-0.3l0.1-0.3l0.1-0.2l0.1-0.1h0.1l0.1,0.1v0.2v0.3 M419,445.3v0.9 M419,446.2L419,446.2v0.1l0,0l0,0l0,0l0,0
		l0,0 M419.2,446.4l0.3-0.2 M419.5,446.2L419.5,446.2l0.1-0.2v-0.1v-0.1v-0.1v-0.1v-0.1v-0.2 M419.7,445.2v-16 M419.7,429.2V429
		v-0.1v-0.1v-0.1l0,0l0,0l0,0l0,0 M419.5,428.7l-1,0.9 M418.5,429.6V426 M418.5,425.9v-0.3v-0.3l0.1-0.2l0.1-0.2l0.1-0.1h0.1
		l0.1,0.1v0.2v0.2 M419,425.4v1 M419,426.4L419,426.4v0.1l0,0l0,0l0,0l0,0l0,0 M419.2,426.6l0.3-0.3 M419.5,426.3L419.5,426.3
		l0.1-0.1v-0.1V426v-0.1v-0.1v-0.2v-0.1 M419.7,425.4v-16.1 M419.7,409.3v-0.1v-0.1V409v-0.1l0,0l0,0l0,0l0,0 M419.5,408.9l-1,0.9
		 M418.5,409.7v-3.6 M418.5,406.2v-0.3v-0.3l0.1-0.2l0.1-0.2l0.1-0.1h0.1l0.1,0.1v0.2v0.3 M419,405.6v0.9 M419,406.6L419,406.6v0.1
		l0,0l0,0l0,0l0,0 M419.2,406.8l0.3-0.3 M419.5,406.6L419.5,406.6l0.1-0.1v-0.1v-0.1v-0.2V406v-0.1v-0.1 M419.7,405.6v-16.1
		 M419.7,389.6v-0.1v-0.1v-0.1v-0.1l0,0l0,0l0,0l0,0 M419.5,389.1l-1,0.9 M418.5,390v-3.6 M418.5,386.3V386v-0.3l0.1-0.3l0.1-0.2
		l0.1-0.1h0.1l0.1,0.1v0.2v0.3 M419,385.9v0.9 M419,386.8L419,386.8v0.1l0,0l0,0l0,0l0,0l0,0 M419.2,387l0.3-0.2 M419.5,386.8
		L419.5,386.8l0.1-0.2v-0.1v-0.1v-0.1v-0.1V386v-0.2 M419.7,385.8v-12.1 M419.7,373.7v-0.1v-0.1v-0.1l0,0v-0.1l0,0l0,0l0,0
		 M419.5,373.3L385,403.6 M177.5,466.7v4.2 M177.5,470.9l206.6,26 M384.1,492.7l-206.6-26 M177.8,466.4l-0.3,0.3 M384.1,496.9v-4.2
		 M384.3,496.7l-0.2,0.2 M419,373.1v-0.2 M177.5,381.9v-4.2 M177.5,381.9L384.1,408 M384.1,407.9v-4.2 M212.4,346.9l-35,30.8
		 M177.5,377.7l206.6,26 M384.1,403.7l35-30.8 M419,372.9l-206.6-26 M268.5,426.2L268,426l-0.4-0.2l-0.4-0.3l-0.3-0.3l-0.3-0.4
		l-0.2-0.4l-0.1-0.4v-0.5 M177.8,410.5l0.5-0.4 M266.2,423.5v-2.4 M264.6,424.9l1.6-1.4 M296.2,429.7l-27.7-3.5 M266.9,427.5
		l1.6-1.4 M296.9,429.6h-0.2h-0.4 M294.6,431l1.6-1.4 M297.7,425.6h-0.1h-0.1h-0.1l-0.1,0.1l-0.1,0.1l-0.1,0.1v0.1v0.1 M297,426.2
		v2.8 M297,429v0.4l-0.1,0.4l-0.2,0.3l-0.3,0.3l-0.4,0.2l-0.4,0.2l-0.4,0.1h-0.4 M294.6,431l-27.7-3.5 M266.9,427.5l-0.5-0.1
		l-0.4-0.2l-0.4-0.3l-0.3-0.3l-0.3-0.4l-0.2-0.4l-0.1-0.4v-0.5 M264.6,424.9v-2.8 M264.6,422.1V422v-0.1v-0.1l-0.1-0.1l-0.1-0.1
		l-0.1-0.1h-0.1h-0.1 M263.9,421.3l-86.1-10.9 M177.8,410.5v27.7 M177.8,438.2l205.9,26 M383.7,464.2v-27.8 M383.7,464.2l0.3-0.3
		 M383.7,436.4l-86.1-10.8 M383.7,436.4l0.3-0.3 M268.5,454.3l-0.5-0.1l-0.4-0.2l-0.4-0.3l-0.3-0.3l-0.3-0.4l-0.2-0.4l-0.1-0.4v-0.5
		 M177.8,438.7l0.5-0.4 M266.2,451.7v-2.4 M264.6,453.1l1.6-1.4 M296.2,457.8l-27.7-3.5 M266.9,455.7l1.6-1.4 M296.9,457.8h-0.2
		h-0.4 M294.6,459.2l1.6-1.4 M383.7,464.6l0.3-0.3 M383.7,492.3l0.3-0.3 M383.7,492.3v-27.7 M383.7,464.6l-86.1-10.9 M297.7,453.8
		h-0.1h-0.1h-0.1l-0.1,0.1l-0.1,0.1l-0.1,0.1v0.1v0.1 M297,454.4v2.8 M297,457.2v0.5l-0.1,0.4l-0.2,0.4l-0.3,0.3l-0.4,0.3l-0.4,0.2
		l-0.4,0.1h-0.4 M294.6,459.2l-27.7-3.5 M266.9,455.7l-0.5-0.1l-0.4-0.2l-0.4-0.3l-0.3-0.3l-0.3-0.4l-0.2-0.4l-0.1-0.4v-0.5
		 M264.6,453.1v-2.8 M264.6,450.3v-0.1v-0.1V450l-0.1-0.1l-0.1-0.1l-0.1-0.1l-0.1-0.1h-0.1 M263.9,449.5l-86.1-10.9 M177.8,438.7
		v27.7 M177.8,466.4l205.9,25.9 M268.5,398l-0.5-0.1l-0.4-0.2l-0.4-0.3l-0.3-0.3l-0.3-0.4l-0.2-0.4l-0.1-0.5v-0.4 M177.8,382.3
		l0.3-0.3 M266.2,395.4v-2.3 M264.6,396.7l1.6-1.4 M296.2,401.5l-27.7-3.5 M266.9,399.4l1.6-1.4 M296.9,401.5h-0.2h-0.4
		 M294.6,402.9l1.6-1.4 M383.7,436l0.3-0.3 M383.7,408.3l0.3-0.3 M383.7,436v-27.7 M383.7,408.3l-86.1-10.9 M297.7,397.4h-0.1h-0.1
		h-0.1l-0.1,0.1l-0.1,0.1l-0.1,0.1v0.1v0.1 M297,398v2.8 M297,400.8v0.4l-0.1,0.4l-0.2,0.4l-0.3,0.3l-0.4,0.2l-0.4,0.2l-0.4,0.1
		h-0.4 M294.6,402.9l-27.7-3.5 M266.9,399.4l-0.5-0.1l-0.4-0.2l-0.4-0.3l-0.3-0.3l-0.3-0.4l-0.2-0.4l-0.1-0.4v-0.5 M264.6,396.7
		v-2.8 M264.6,393.9v-0.1v-0.1v-0.1l-0.1-0.1l-0.1-0.1l-0.1-0.1h-0.1h-0.1 M263.9,393.1l-86.1-10.9 M177.8,382.3V410 M177.8,410
		l205.9,26 M212.2,347.1h-0.7 M176.9,470.6h0.5 M419.5,448.4l-0.7-0.1 M418.5,446.3l0.7,0.1 M419.5,428.6l-0.7-0.1 M418.5,426.6
		l0.7,0.1 M419.5,408.9l-0.7-0.1 M418.5,406.7l0.7,0.1 M419.5,389l-0.7-0.1 M418.5,386.9l0.7,0.1 M419.5,373.2l-0.7-0.1
		 M384.2,496.7l0.7,0.1 M297.8,425.1l-0.7,0.6 M297.8,453.3l-0.7,0.6 M297.7,397.1l-0.5,0.5"/>
</g>
</svg>
