<?xml version="1.0" encoding="utf-8"?>
<!-- Generator: Adobe Illustrator 22.0.1, SVG Export Plug-In . SVG Version: 6.00 Build 0)  -->
<svg version="1.1" id="Layer_1" xmlns="http://www.w3.org/2000/svg" xmlns:xlink="http://www.w3.org/1999/xlink" x="0px" y="0px"
	 viewBox="0 0 595.3 841.9" style="enable-background:new 0 0 595.3 841.9;" xml:space="preserve">
<style type="text/css">
	
		.st0{fill:none;stroke:#010101;stroke-width:0.7463;stroke-linecap:round;stroke-linejoin:round;stroke-miterlimit:10;stroke-dasharray:12.9324,1.0777,1.0777,1.0777;}
	.st1{fill:none;stroke:#010101;stroke-width:0.7463;stroke-linecap:round;stroke-linejoin:round;stroke-miterlimit:10;}
	.st2{font-family:'MyriadPro-Regular';}
	.st3{font-size:12px;}
</style>
<g>
	<line class="st0" x1="298.4" y1="439.3" x2="298" y2="439.3"/>
	<line class="st0" x1="298.9" y1="439.7" x2="298.9" y2="439.9"/>
	<line class="st0" x1="299.4" y1="439.3" x2="299.7" y2="439.3"/>
	<line class="st0" x1="298.9" y1="439" x2="298.9" y2="438.8"/>
	<line class="st0" x1="298.4" y1="427.4" x2="298" y2="427.4"/>
	<line class="st0" x1="298.9" y1="427.8" x2="298.9" y2="428"/>
	<line class="st0" x1="299.4" y1="427.4" x2="299.7" y2="427.4"/>
	<line class="st0" x1="298.9" y1="427.1" x2="298.9" y2="426.9"/>
	<line class="st0" x1="298.4" y1="415.5" x2="298" y2="415.5"/>
	<line class="st0" x1="298.9" y1="415.9" x2="298.9" y2="416.1"/>
	<line class="st0" x1="299.4" y1="415.5" x2="299.7" y2="415.5"/>
	<line class="st0" x1="298.9" y1="415.2" x2="298.9" y2="415"/>
	<line class="st0" x1="298.4" y1="403.6" x2="298" y2="403.6"/>
	<line class="st0" x1="298.9" y1="404" x2="298.9" y2="404.2"/>
	<line class="st0" x1="299.4" y1="403.6" x2="299.7" y2="403.6"/>
	<line class="st0" x1="298.9" y1="403.3" x2="298.9" y2="403.1"/>
	<line class="st0" x1="298.4" y1="391.8" x2="298" y2="391.8"/>
	<line class="st0" x1="298.9" y1="392.1" x2="298.9" y2="392.3"/>
	<line class="st0" x1="299.4" y1="391.8" x2="299.7" y2="391.8"/>
	<line class="st0" x1="298.9" y1="391.4" x2="298.9" y2="391.2"/>
	<line class="st0" x1="298.4" y1="379.9" x2="298" y2="379.9"/>
	<line class="st0" x1="298.9" y1="380.2" x2="298.9" y2="380.4"/>
	<line class="st0" x1="299.4" y1="379.9" x2="299.7" y2="379.9"/>
	<line class="st0" x1="298.9" y1="379.5" x2="298.9" y2="379.3"/>
	<line class="st0" x1="298.4" y1="368" x2="298" y2="368"/>
	<line class="st0" x1="298.9" y1="368.3" x2="298.9" y2="368.5"/>
	<line class="st0" x1="299.4" y1="368" x2="299.7" y2="368"/>
	<line class="st0" x1="298.9" y1="367.6" x2="298.9" y2="367.4"/>
	<line class="st0" x1="298.4" y1="356.1" x2="298" y2="356.1"/>
	<line class="st0" x1="298.9" y1="356.4" x2="298.9" y2="356.6"/>
	<line class="st0" x1="299.4" y1="356.1" x2="299.7" y2="356.1"/>
	<line class="st0" x1="298.9" y1="355.7" x2="298.9" y2="355.5"/>
	<line class="st0" x1="298.4" y1="296.6" x2="298" y2="296.6"/>
	<line class="st0" x1="298.9" y1="296.9" x2="298.9" y2="297.1"/>
	<line class="st0" x1="299.4" y1="296.6" x2="299.7" y2="296.6"/>
	<line class="st0" x1="298.9" y1="296.2" x2="298.9" y2="296"/>
	<line class="st0" x1="298.4" y1="284.7" x2="298" y2="284.7"/>
	<line class="st0" x1="298.9" y1="285" x2="298.9" y2="285.3"/>
	<line class="st0" x1="299.4" y1="284.7" x2="299.7" y2="284.7"/>
	<line class="st0" x1="298.9" y1="284.3" x2="298.9" y2="284.1"/>
	<line class="st0" x1="298.4" y1="272.8" x2="298" y2="272.8"/>
	<line class="st0" x1="298.9" y1="273.1" x2="298.9" y2="273.4"/>
	<line class="st0" x1="299.4" y1="272.8" x2="299.7" y2="272.8"/>
	<line class="st0" x1="298.9" y1="272.4" x2="298.9" y2="272.2"/>
	<line class="st0" x1="298.4" y1="570.2" x2="298" y2="570.2"/>
	<line class="st0" x1="298.9" y1="570.5" x2="298.9" y2="570.7"/>
	<line class="st0" x1="299.4" y1="570.2" x2="299.7" y2="570.2"/>
	<line class="st0" x1="298.9" y1="569.8" x2="298.9" y2="569.6"/>
	<line class="st0" x1="298.4" y1="308.5" x2="298" y2="308.5"/>
	<line class="st0" x1="298.9" y1="308.8" x2="298.9" y2="309"/>
	<line class="st0" x1="299.4" y1="308.5" x2="299.7" y2="308.5"/>
	<line class="st0" x1="298.9" y1="308.1" x2="298.9" y2="307.9"/>
	<line class="st0" x1="298.4" y1="320.4" x2="298" y2="320.4"/>
	<line class="st0" x1="298.9" y1="320.7" x2="298.9" y2="320.9"/>
	<line class="st0" x1="299.4" y1="320.4" x2="299.7" y2="320.4"/>
	<line class="st0" x1="298.9" y1="320" x2="298.9" y2="319.8"/>
	<line class="st0" x1="298.4" y1="332.3" x2="298" y2="332.3"/>
	<line class="st0" x1="298.9" y1="332.6" x2="298.9" y2="332.8"/>
	<line class="st0" x1="299.4" y1="332.3" x2="299.7" y2="332.3"/>
	<line class="st0" x1="298.9" y1="331.9" x2="298.9" y2="331.7"/>
	<line class="st0" x1="298.4" y1="344.2" x2="298" y2="344.2"/>
	<line class="st0" x1="298.9" y1="344.5" x2="298.9" y2="344.7"/>
	<line class="st0" x1="299.4" y1="344.2" x2="299.7" y2="344.2"/>
	<line class="st0" x1="298.9" y1="343.8" x2="298.9" y2="343.6"/>
	<line class="st0" x1="298.4" y1="451.2" x2="298" y2="451.2"/>
	<line class="st0" x1="298.9" y1="451.6" x2="298.9" y2="451.8"/>
	<line class="st0" x1="299.4" y1="451.2" x2="299.7" y2="451.2"/>
	<line class="st0" x1="298.9" y1="450.9" x2="298.9" y2="450.7"/>
	<line class="st0" x1="298.4" y1="463.1" x2="298" y2="463.1"/>
	<line class="st0" x1="298.9" y1="463.5" x2="298.9" y2="463.7"/>
	<line class="st0" x1="299.4" y1="463.1" x2="299.7" y2="463.1"/>
	<line class="st0" x1="298.9" y1="462.8" x2="298.9" y2="462.6"/>
	<line class="st0" x1="298.4" y1="475" x2="298" y2="475"/>
	<line class="st0" x1="298.9" y1="475.4" x2="298.9" y2="475.6"/>
	<line class="st0" x1="299.4" y1="475" x2="299.7" y2="475"/>
	<line class="st0" x1="298.9" y1="474.7" x2="298.9" y2="474.5"/>
	<line class="st0" x1="298.4" y1="486.9" x2="298" y2="486.9"/>
	<line class="st0" x1="298.9" y1="487.3" x2="298.9" y2="487.5"/>
	<line class="st0" x1="299.4" y1="486.9" x2="299.7" y2="486.9"/>
	<line class="st0" x1="298.9" y1="486.6" x2="298.9" y2="486.4"/>
	<line class="st0" x1="298.4" y1="498.8" x2="298" y2="498.8"/>
	<line class="st0" x1="298.9" y1="499.2" x2="298.9" y2="499.4"/>
	<line class="st0" x1="299.4" y1="498.8" x2="299.7" y2="498.8"/>
	<line class="st0" x1="298.9" y1="498.5" x2="298.9" y2="498.3"/>
	<line class="st0" x1="298.4" y1="510.7" x2="298" y2="510.7"/>
	<line class="st0" x1="298.9" y1="511.1" x2="298.9" y2="511.3"/>
	<line class="st0" x1="299.4" y1="510.7" x2="299.7" y2="510.7"/>
	<line class="st0" x1="298.9" y1="510.4" x2="298.9" y2="510.1"/>
	<line class="st0" x1="298.4" y1="522.6" x2="298" y2="522.6"/>
	<line class="st0" x1="298.9" y1="523" x2="298.9" y2="523.2"/>
	<line class="st0" x1="299.4" y1="522.6" x2="299.7" y2="522.6"/>
	<line class="st0" x1="298.9" y1="522.3" x2="298.9" y2="522"/>
	<line class="st0" x1="298.4" y1="534.5" x2="298" y2="534.5"/>
	<line class="st0" x1="298.9" y1="534.8" x2="298.9" y2="535.1"/>
	<line class="st0" x1="299.4" y1="534.5" x2="299.7" y2="534.5"/>
	<line class="st0" x1="298.9" y1="534.1" x2="298.9" y2="533.9"/>
	<line class="st0" x1="298.4" y1="546.4" x2="298" y2="546.4"/>
	<line class="st0" x1="298.9" y1="546.7" x2="298.9" y2="547"/>
	<line class="st0" x1="299.4" y1="546.4" x2="299.7" y2="546.4"/>
	<line class="st0" x1="298.9" y1="546" x2="298.9" y2="545.8"/>
	<line class="st0" x1="298.4" y1="558.3" x2="298" y2="558.3"/>
	<line class="st0" x1="298.9" y1="558.6" x2="298.9" y2="558.9"/>
	<line class="st0" x1="299.4" y1="558.3" x2="299.7" y2="558.3"/>
	<line class="st0" x1="298.9" y1="557.9" x2="298.9" y2="557.7"/>
	<line class="st0" x1="298.4" y1="582.1" x2="298" y2="582.1"/>
	<line class="st0" x1="298.9" y1="582.4" x2="298.9" y2="582.6"/>
	<line class="st0" x1="299.4" y1="582.1" x2="299.7" y2="582.1"/>
	<line class="st0" x1="298.9" y1="581.7" x2="298.9" y2="581.5"/>
	<line class="st0" x1="298.4" y1="260.9" x2="298" y2="260.9"/>
	<line class="st0" x1="298.9" y1="261.3" x2="298.9" y2="261.5"/>
	<line class="st0" x1="299.4" y1="260.9" x2="299.7" y2="260.9"/>
	<line class="st0" x1="298.9" y1="260.6" x2="298.9" y2="260.3"/>
	<path class="st1" d="M298.9,260.9v-0.3 M298.9,260.9h0.5 M298.9,260.9v0.4 M298.9,260.9h-0.5 M298.9,582.1v-0.3 M298.9,582.1h0.5
		 M298.9,582.1v0.4 M298.9,582.1h-0.5 M298.9,558.3v-0.4 M298.9,558.3h0.5 M298.9,558.3v0.3 M298.9,558.3h-0.5 M298.9,546.4v-0.3
		 M298.9,546.4h0.5 M298.9,546.4v0.3 M298.9,546.4h-0.5 M298.9,534.5v-0.3 M298.9,534.5h0.5 M298.9,534.5v0.3 M298.9,534.5h-0.5
		 M298.9,522.6v-0.3 M298.9,522.6h0.5 M298.9,522.6v0.3 M298.9,522.6h-0.5 M298.9,510.7v-0.3 M298.9,510.7h0.5 M298.9,510.7v0.3
		 M298.9,510.7h-0.5 M298.9,498.8v-0.3 M298.9,498.8h0.5 M298.9,498.8v0.3 M298.9,498.8h-0.5 M298.9,486.9v-0.3 M298.9,486.9h0.5
		 M298.9,486.9v0.4 M298.9,486.9h-0.5 M298.9,475v-0.3 M298.9,475h0.5 M298.9,475v0.4 M298.9,475h-0.5 M298.9,463.1v-0.4
		 M298.9,463.1h0.5 M298.9,463.1v0.3 M298.9,463.1h-0.5 M298.9,451.3v-0.4 M298.9,451.3h0.5 M298.9,451.3v0.3 M298.9,451.3h-0.5
		 M298.9,344.2v-0.4 M298.9,344.2h0.5 M298.9,344.2v0.3 M298.9,344.2h-0.5 M298.9,332.3v-0.3 M298.9,332.3h0.5 M298.9,332.3v0.3
		 M298.9,332.3h-0.5 M298.9,320.4V320 M298.9,320.4h0.5 M298.9,320.4v0.3 M298.9,320.4h-0.5 M298.9,308.5v-0.3 M298.9,308.5h0.5
		 M298.9,308.5v0.3 M298.9,308.5h-0.5 M298.9,570.2v-0.4 M298.9,570.2h0.5 M298.9,570.2v0.3 M298.9,570.2h-0.5 M298.9,272.8v-0.3
		 M298.9,272.8h0.5 M298.9,272.8v0.3 M298.9,272.8h-0.5 M298.9,284.7v-0.3 M298.9,284.7h0.5 M298.9,284.7v0.3 M298.9,284.7h-0.5
		 M298.9,296.6v-0.3 M298.9,296.6h0.5 M298.9,296.6v0.3 M298.9,296.6h-0.5 M298.9,356.1v-0.4 M298.9,356.1h0.5 M298.9,356.1v0.3
		 M298.9,356.1h-0.5 M298.9,368v-0.3 M298.9,368h0.5 M298.9,368v0.4 M298.9,368h-0.5 M298.9,379.9v-0.3 M298.9,379.9h0.5
		 M298.9,379.9v0.3 M298.9,379.9h-0.5 M298.9,391.8v-0.3 M298.9,391.8h0.5 M298.9,391.8v0.3 M298.9,391.8h-0.5 M298.9,403.7v-0.3
		 M298.9,403.7h0.5 M298.9,403.7v0.3 M298.9,403.7h-0.5 M298.9,415.6v-0.3 M298.9,415.6h0.5 M298.9,415.6v0.3 M298.9,415.6h-0.5
		 M298.9,427.5v-0.3 M298.9,427.5h0.5 M298.9,427.5v0.3 M298.9,427.5h-0.5 M298.9,439.4V439 M298.9,439.4h0.5 M298.9,439.4v0.3
		 M298.9,439.4h-0.5"/>
	<path class="st1" d="M298.6,260.9L298.6,260.9l0.1,0.1l0.1,0l0.1,0l0.1,0l0.1,0l0,0l0-0.1l0-0.1l0-0.1l-0.1,0l-0.1,0l-0.1,0l-0.1,0
		L298.6,260.9L298.6,260.9 M298.6,582.1L298.6,582.1l0.1,0.1l0.1,0l0.1,0l0.1,0l0.1,0l0,0l0-0.1l0-0.1l0-0.1l-0.1,0l-0.1,0l-0.1,0
		l-0.1,0L298.6,582.1L298.6,582.1 M298.6,558.3L298.6,558.3l0.1,0.1l0.1,0h0.1h0.1l0.1,0l0-0.1l0-0.1l0-0.1l0,0l-0.1,0l-0.1,0
		l-0.1,0l-0.1,0L298.6,558.3L298.6,558.3 M298.6,546.4L298.6,546.4l0.1,0.1l0.1,0h0.1h0.1l0.1,0l0-0.1l0-0.1l0-0.1l0-0.1l-0.1,0
		l-0.1,0l-0.1,0l-0.1,0L298.6,546.4L298.6,546.4 M298.6,534.5L298.6,534.5l0.1,0.1l0.1,0h0.1h0.1l0.1,0l0-0.1l0-0.1l0-0.1l0-0.1
		l-0.1,0l-0.1,0l-0.1,0l-0.1,0L298.6,534.5L298.6,534.5 M298.6,522.6L298.6,522.6l0.1,0.1l0.1,0l0.1,0l0.1,0l0.1,0l0-0.1l0-0.1
		l0-0.1l0-0.1l-0.1,0l-0.1,0l-0.1,0l-0.1,0L298.6,522.6L298.6,522.6 M298.6,510.7L298.6,510.7l0.1,0.1l0.1,0l0.1,0l0.1,0l0.1,0
		l0-0.1l0-0.1l0-0.1l0-0.1l-0.1,0h-0.1h-0.1l-0.1,0L298.6,510.7L298.6,510.7 M298.6,498.8L298.6,498.8l0.1,0.1l0.1,0l0.1,0l0.1,0
		l0.1,0l0-0.1l0-0.1l0-0.1l0-0.1l-0.1,0h-0.1h-0.1l-0.1,0L298.6,498.8L298.6,498.8 M298.6,486.9L298.6,486.9l0.1,0.1l0.1,0l0.1,0
		l0.1,0l0.1,0l0,0l0-0.1l0-0.1l0-0.1l-0.1,0h-0.1h-0.1l-0.1,0L298.6,486.9L298.6,486.9 M298.6,475L298.6,475l0.1,0.1l0.1,0l0.1,0
		l0.1,0l0.1,0l0,0l0-0.1l0-0.1l0-0.1l-0.1,0l-0.1,0l-0.1,0l-0.1,0L298.6,475L298.6,475 M298.6,463.1L298.6,463.1l0.1,0.1l0.1,0
		l0.1,0l0.1,0l0.1,0l0-0.1l0-0.1l0-0.1l0,0l-0.1,0l-0.1,0l-0.1,0l-0.1,0L298.6,463.1L298.6,463.1 M298.6,451.3L298.6,451.3l0.1,0.1
		l0.1,0h0.1h0.1l0.1,0l0-0.1l0-0.1l0-0.1l0,0l-0.1,0l-0.1,0l-0.1,0l-0.1,0L298.6,451.3L298.6,451.3 M298.6,344.2L298.6,344.2
		l0.1,0.1l0.1,0h0.1h0.1l0.1,0l0-0.1l0-0.1l0-0.1l0,0l-0.1,0l-0.1,0l-0.1,0l-0.1,0L298.6,344.2L298.6,344.2 M298.6,332.3
		L298.6,332.3l0.1,0.1l0.1,0h0.1h0.1l0.1,0l0-0.1l0-0.1l0-0.1l0-0.1l-0.1,0l-0.1,0l-0.1,0l-0.1,0L298.6,332.3L298.6,332.3
		 M298.6,320.4L298.6,320.4l0.1,0.1l0.1,0h0.1h0.1l0.1,0l0-0.1l0-0.1l0-0.1l0-0.1l-0.1,0l-0.1,0l-0.1,0l-0.1,0L298.6,320.4
		L298.6,320.4 M298.6,308.5L298.6,308.5l0.1,0.1l0.1,0h0.1h0.1l0.1,0l0-0.1l0-0.1l0-0.1l0-0.1l-0.1,0l-0.1,0l-0.1,0l-0.1,0
		L298.6,308.5L298.6,308.5 M298.6,570.2L298.6,570.2l0.1,0.1l0.1,0l0.1,0l0.1,0l0.1,0l0-0.1l0-0.1l0-0.1l0,0l-0.1,0l-0.1,0l-0.1,0
		l-0.1,0L298.6,570.2L298.6,570.2 M298.6,272.8L298.6,272.8l0.1,0.1l0.1,0l0.1,0l0.1,0l0.1,0l0,0l0-0.1l0-0.1l0-0.1l-0.1,0h-0.1
		h-0.1l-0.1,0L298.6,272.8L298.6,272.8 M298.6,284.7L298.6,284.7l0.1,0.1l0.1,0l0.1,0l0.1,0l0.1,0l0-0.1l0-0.1l0-0.1l0-0.1l-0.1,0
		h-0.1h-0.1l-0.1,0L298.6,284.7L298.6,284.7 M298.6,296.6L298.6,296.6l0.1,0.1l0.1,0l0.1,0l0.1,0l0.1,0l0-0.1l0-0.1l0-0.1l0-0.1
		l-0.1,0h-0.1h-0.1l-0.1,0L298.6,296.6L298.6,296.6 M298.6,356.1L298.6,356.1l0.1,0.1l0.1,0l0.1,0l0.1,0l0.1,0l0-0.1l0-0.1l0-0.1
		l0,0l-0.1,0l-0.1,0l-0.1,0l-0.1,0L298.6,356.1L298.6,356.1 M298.6,368L298.6,368l0.1,0.1l0.1,0l0.1,0l0.1,0l0.1,0l0,0l0-0.1l0-0.1
		l0-0.1l-0.1,0l-0.1,0l-0.1,0l-0.1,0L298.6,368L298.6,368 M298.6,379.9L298.6,379.9l0.1,0.1l0.1,0l0.1,0l0.1,0l0.1,0l0,0l0-0.1
		l0-0.1l0-0.1l-0.1,0h-0.1h-0.1l-0.1,0L298.6,379.9L298.6,379.9 M298.6,391.8L298.6,391.8l0.1,0.1l0.1,0l0.1,0l0.1,0l0.1,0l0-0.1
		l0-0.1l0-0.1l0-0.1l-0.1,0h-0.1h-0.1l-0.1,0L298.6,391.8L298.6,391.8 M298.6,403.7L298.6,403.7l0.1,0.1l0.1,0l0.1,0l0.1,0l0.1,0
		l0-0.1l0-0.1l0-0.1l0-0.1l-0.1,0h-0.1h-0.1l-0.1,0L298.6,403.7L298.6,403.7 M298.6,415.6L298.6,415.6l0.1,0.1l0.1,0l0.1,0l0.1,0
		l0.1,0l0-0.1l0-0.1l0-0.1l0-0.1l-0.1,0l-0.1,0l-0.1,0l-0.1,0L298.6,415.6L298.6,415.6 M298.6,427.5L298.6,427.5l0.1,0.1l0.1,0h0.1
		h0.1l0.1,0l0-0.1l0-0.1l0-0.1l0-0.1l-0.1,0l-0.1,0l-0.1,0l-0.1,0L298.6,427.5L298.6,427.5 M298.6,439.4L298.6,439.4l0.1,0.1l0.1,0
		h0.1h0.1l0.1,0l0-0.1l0-0.1l0-0.1l0-0.1l-0.1,0l-0.1,0l-0.1,0l-0.1,0L298.6,439.4L298.6,439.4 M300.3,253.6h-4.1 M296.2,589.4
		V253.6 M300.3,589.4h-4.1 M300.3,589.4V253.6"/>
</g>
<text transform="matrix(1 0 0 1 329.667 417.3335)"><tspan x="0" y="0" class="st2 st3">ALPHA_10x20_6&apos;_A</tspan><tspan x="98.5" y="0" class="st2 st3">L</tspan><tspan x="103.7" y="0" class="st2 st3">U_PIPE</tspan></text>
</svg>
