<?xml version="1.0" encoding="utf-8"?>
<!-- Generator: Adobe Illustrator 22.0.1, SVG Export Plug-In . SVG Version: 6.00 Build 0)  -->
<svg version="1.1" id="Layer_1" xmlns="http://www.w3.org/2000/svg" xmlns:xlink="http://www.w3.org/1999/xlink" x="0px" y="0px"
	 viewBox="0 0 595.3 841.9" style="enable-background:new 0 0 595.3 841.9;" xml:space="preserve">
<style type="text/css">
	.st0{fill:none;stroke:#010101;stroke-width:0.5;stroke-linecap:round;stroke-linejoin:round;stroke-miterlimit:10;}
	.st1{fill:#010101;}
	.st2{font-family:'MyriadPro-Regular';}
	.st3{font-size:9.9362px;}
</style>
<g>
	<path class="st0" d="M355.4,424.6l0.9,0.1 M355.5,423.2l0.8,0.1 M355.4,393.3l0.9,0.1 M355.5,391.8l0.8,0.1 M299.3,440l-11.9-1.5
		 M124.7,432.2l-34,30 M86.3,461.6v-34.2 M90.6,462.2l-4.3-0.6 M90.6,462.2v-34.2 M299.3,427.9v60.5 M299.3,488.5l1.7,0.2
		 M83.5,468.5L301,495.9 M83.5,464.1v4.4 M86.3,461.6l-2.8,2.5 M83.5,464.1L301,491.4 M301,495.9l0.3-0.3 M301,491.4v4.5
		 M273.3,450.9l27.7-24.4 M356.3,373.3v0.3 M273.3,450.9L55.8,423.5 M273.3,450.9v-4.4 M55.8,423.5v-4.4 M138.8,345.9l-83,73.2
		 M55.8,419.1l217.4,27.4 M273.3,446.5l83-73.2 M356.3,373.3l-217.4-27.3 M137.5,346.1L137.5,346.1l-0.2,0.1 M82.4,467.3v0.2v0.1
		l0.1,0.2v0.1l0.1,0.1h0.1h0.1 M137.3,346.1l-54.5,48 M137.3,346.1l1.1,0.1 M82.4,426.9v40.4 M82.4,467.3l1.1,0.1 M82.8,394.2
		l1.1,0.1 M82.8,394.2l-0.1,0.1l-0.1,0.1l-0.1,0.1l-0.1,0.2v0.2l-0.1,0.2v0.2v0.3 M83.5,427v40.4 M138.4,346.3l-54.5,48 M356,428.2
		L356,428.2l-0.1,0.1 M355.8,428.3l-0.4,0.4 M355.8,428.3l1.1,0.1 M356,396.9L356,396.9h-0.1 M355.8,396.9l-0.4,0.4 M355.8,396.9
		l1.1,0.2 M356,373.6L356,373.6l-0.1,0.1 M301,494.8v0.2v0.1l0.1,0.2v0.1l0.1,0.1l0.1,0.1h0.1 M355.8,373.7l-54.5,48 M355.8,373.7
		l1.1,0.1 M301,423.2v71.6 M301,494.8l1.1,0.1 M301.4,421.7l1.1,0.1 M301.4,421.7l-0.1,0.1l-0.1,0.1l-0.1,0.2l-0.1,0.2v0.2l-0.1,0.2
		v0.2v0.3 M301,423.2l1.1,0.1 M306.4,488.9v-0.2l-0.1-0.2l-0.1-0.1l-0.1,0.1l-0.1,0.1l-0.1,0.1v0.3l-0.1,0.2l0.1,0.2v0.1l0.1,0.1
		h0.1l0.1-0.1l0.1-0.2l0.1-0.2V488.9 M306.4,421.7v-0.2l-0.1-0.1l-0.1-0.1h-0.1l-0.1,0.1l-0.1,0.2v0.2l-0.1,0.2l0.1,0.3v0.1l0.1,0.1
		l0.1-0.1l0.1-0.1l0.1-0.1l0.1-0.3V421.7 M354,446.9v-0.3l-0.1-0.1l-0.1-0.1l-0.1,0.1l-0.1,0.1l-0.1,0.1l-0.1,0.3v0.2v0.2l0.1,0.1
		l0.1,0.1h0.1l0.1-0.1l0.1-0.2l0.1-0.2V446.9 M354,379.8v-0.2l-0.1-0.2h-0.1h-0.1l-0.1,0.1l-0.1,0.1l-0.1,0.3v0.2v0.2l0.1,0.2
		l0.1,0.1l0.1-0.1l0.1-0.1l0.1-0.1l0.1-0.3V379.8 M337.6,461.4v-0.2l-0.1-0.1l-0.1-0.1h-0.1l-0.1,0.1l-0.1,0.2v0.2l-0.1,0.3l0.1,0.2
		v0.1l0.1,0.1l0.1-0.1l0.1-0.1l0.1-0.2l0.1-0.3V461.4 M322.8,474.4v-0.2l-0.1-0.1l-0.1-0.1h-0.1l-0.1,0.1l-0.1,0.2l-0.1,0.2v0.3v0.2
		l0.1,0.1l0.1,0.1l0.1-0.1l0.1-0.1l0.1-0.2l0.1-0.2V474.4 M322.8,407.2V407l-0.1-0.1l-0.1-0.1l-0.1,0.1l-0.1,0.1l-0.1,0.2l-0.1,0.2
		v0.3v0.2l0.1,0.1l0.1,0.1h0.1l0.1-0.1l0.1-0.2l0.1-0.2V407.2 M337.6,394.2V394l-0.1-0.1l-0.1-0.1h-0.1l-0.1,0.1l-0.1,0.2v0.2
		l-0.1,0.3l0.1,0.2v0.1l0.1,0.1h0.1l0.1-0.1l0.1-0.2l0.1-0.2V394.2 M302.5,421.9l-0.1,0.1l-0.1,0.1l-0.1,0.2l-0.1,0.2v0.2l-0.1,0.2
		v0.2v0.3 M302.1,423.4V495 M302.1,495v0.2v0.1l0.1,0.2v0.1l0.1,0.1l0.1,0.1h0.1l0.1-0.1 M302.5,495.7l54.5-48 M356.9,447.6l0.1-0.1
		l0.1-0.1l0.1-0.2l0.1-0.2v-0.2l0.1-0.2v-0.2v-0.3 M357.4,446.1v-16.9 M357.4,429.2V429v-0.2l-0.1-0.1v-0.1l-0.1-0.1l-0.1-0.1H357
		l-0.1,0.1 M356.9,428.4l-1.5,1.4 M355.4,429.8v-5.7 M355.4,424.1v-0.4l0.1-0.5l0.1-0.3l0.1-0.3l0.1-0.1h0.1l0.1,0.2l0.1,0.3
		l0.1,0.3 M356.3,423.2v1.5 M356.3,424.8L356.3,424.8v0.2v0.1l0.1,0.1l0.1,0.1v-0.1h0.1 M356.5,425.1l0.4-0.4 M356.9,424.7
		L356.9,424.7l0.2-0.2l0.1-0.1l0.1-0.2v-0.2l0.1-0.2v-0.3v-0.2 M357.4,423.2v-25.5 M357.4,397.8v-0.2v-0.1l-0.1-0.2v-0.1l-0.1-0.1
		h-0.1H357l-0.1,0.1 M356.9,397.1l-1.5,1.3 M355.4,398.4v-5.7 M355.4,392.7v-0.5l0.1-0.4l0.1-0.3l0.1-0.3l0.1-0.1h0.1l0.1,0.1
		l0.1,0.3l0.1,0.4 M356.3,391.9v1.4 M356.3,393.4v0.1v0.1v0.1l0.1,0.1v0.1h0.1h0.1 M356.5,393.8l0.4-0.4 M356.9,393.4L356.9,393.4
		l0.2-0.2l0.1-0.2l0.1-0.1v-0.2l0.1-0.3v-0.2v-0.2 M357.4,391.9v-17.4 M357.4,374.5v-0.2v-0.1l-0.1-0.2v-0.1l-0.1-0.1l-0.1-0.1H357
		l-0.1,0.1 M356.9,373.8l-54.5,48 M138.5,346.2l-1-0.1 M82.7,468l0.8,0.1 M357.1,428.4l-1.1-0.1 M355.4,425l1,0.1 M357.1,397
		l-1.1-0.1 M355.4,393.6l1,0.1 M357.1,373.8l-1.1-0.1 M301.2,495.6l1,0.1"/>
</g>
<text transform="matrix(1.2077 0 0 1 436.5132 465.3409)"><tspan x="0" y="0" class="st1 st2 st3">ALPHA_600_STU</tspan><tspan x="70.1" y="0" class="st1 st2 st3">D</tspan><tspan x="76.4" y="0" class="st1 st2 st3">Y</tspan></text>
</svg>
