<?xml version="1.0" encoding="utf-8"?>
<!-- Generator: Adobe Illustrator 22.0.1, SVG Export Plug-In . SVG Version: 6.00 Build 0)  -->
<svg version="1.1" id="Layer_1" xmlns="http://www.w3.org/2000/svg" xmlns:xlink="http://www.w3.org/1999/xlink" x="0px" y="0px"
	 viewBox="0 0 595.3 841.9" style="enable-background:new 0 0 595.3 841.9;" xml:space="preserve">
<style type="text/css">
	
		.st0{fill:none;stroke:#010101;stroke-width:0.905;stroke-linecap:round;stroke-linejoin:round;stroke-miterlimit:10;stroke-dasharray:15.6832,1.3069,1.3069,1.3069;}
	.st1{fill:none;stroke:#010101;stroke-width:0.905;stroke-linecap:round;stroke-linejoin:round;stroke-miterlimit:10;}
	.st2{font-family:'MyriadPro-Regular';}
	.st3{font-size:12px;}
</style>
<g>
	<line class="st0" x1="298.3" y1="447.7" x2="298" y2="447.7"/>
	<line class="st0" x1="298.8" y1="448.2" x2="298.8" y2="448.5"/>
	<line class="st0" x1="299.4" y1="447.7" x2="299.7" y2="447.7"/>
	<line class="st0" x1="298.8" y1="447.2" x2="298.8" y2="446.9"/>
	<line class="st0" x1="298.3" y1="430.2" x2="298" y2="430.2"/>
	<line class="st0" x1="298.8" y1="430.7" x2="298.8" y2="431"/>
	<line class="st0" x1="299.4" y1="430.2" x2="299.7" y2="430.2"/>
	<line class="st0" x1="298.8" y1="429.7" x2="298.8" y2="429.4"/>
	<line class="st0" x1="298.3" y1="412.7" x2="298" y2="412.7"/>
	<line class="st0" x1="298.8" y1="413.2" x2="298.8" y2="413.5"/>
	<line class="st0" x1="299.4" y1="412.7" x2="299.7" y2="412.7"/>
	<line class="st0" x1="298.8" y1="412.2" x2="298.8" y2="411.9"/>
	<line class="st0" x1="298.3" y1="395.2" x2="298" y2="395.2"/>
	<line class="st0" x1="298.8" y1="395.7" x2="298.8" y2="396"/>
	<line class="st0" x1="299.4" y1="395.2" x2="299.7" y2="395.2"/>
	<line class="st0" x1="298.8" y1="394.7" x2="298.8" y2="394.4"/>
	<line class="st0" x1="298.3" y1="377.7" x2="298" y2="377.7"/>
	<line class="st0" x1="298.8" y1="378.2" x2="298.8" y2="378.5"/>
	<line class="st0" x1="299.4" y1="377.7" x2="299.7" y2="377.7"/>
	<line class="st0" x1="298.8" y1="377.2" x2="298.8" y2="376.9"/>
	<line class="st0" x1="298.3" y1="360.2" x2="298" y2="360.2"/>
	<line class="st0" x1="298.8" y1="360.7" x2="298.8" y2="361"/>
	<line class="st0" x1="299.4" y1="360.2" x2="299.7" y2="360.2"/>
	<line class="st0" x1="298.8" y1="359.7" x2="298.8" y2="359.4"/>
	<line class="st0" x1="298.3" y1="342.7" x2="298" y2="342.7"/>
	<line class="st0" x1="298.8" y1="343.2" x2="298.8" y2="343.5"/>
	<line class="st0" x1="299.4" y1="342.7" x2="299.7" y2="342.7"/>
	<line class="st0" x1="298.8" y1="342.2" x2="298.8" y2="341.9"/>
	<line class="st0" x1="298.3" y1="325.2" x2="298" y2="325.2"/>
	<line class="st0" x1="298.8" y1="325.7" x2="298.8" y2="326"/>
	<line class="st0" x1="299.4" y1="325.2" x2="299.7" y2="325.2"/>
	<line class="st0" x1="298.8" y1="324.7" x2="298.8" y2="324.4"/>
	<line class="st0" x1="298.3" y1="237.8" x2="298" y2="237.8"/>
	<line class="st0" x1="298.8" y1="238.3" x2="298.8" y2="238.6"/>
	<line class="st0" x1="299.4" y1="237.8" x2="299.7" y2="237.8"/>
	<line class="st0" x1="298.8" y1="237.2" x2="298.8" y2="236.9"/>
	<line class="st0" x1="298.3" y1="220.3" x2="298" y2="220.3"/>
	<line class="st0" x1="298.8" y1="220.8" x2="298.8" y2="221.1"/>
	<line class="st0" x1="299.4" y1="220.3" x2="299.7" y2="220.3"/>
	<line class="st0" x1="298.8" y1="219.7" x2="298.8" y2="219.4"/>
	<line class="st0" x1="298.3" y1="202.8" x2="298" y2="202.8"/>
	<line class="st0" x1="298.8" y1="203.3" x2="298.8" y2="203.6"/>
	<line class="st0" x1="299.4" y1="202.8" x2="299.7" y2="202.8"/>
	<line class="st0" x1="298.8" y1="202.3" x2="298.8" y2="201.9"/>
	<line class="st0" x1="298.3" y1="640.1" x2="298" y2="640.1"/>
	<line class="st0" x1="298.8" y1="640.6" x2="298.8" y2="640.9"/>
	<line class="st0" x1="299.4" y1="640.1" x2="299.7" y2="640.1"/>
	<line class="st0" x1="298.8" y1="639.6" x2="298.8" y2="639.3"/>
	<line class="st0" x1="298.3" y1="255.2" x2="298" y2="255.2"/>
	<line class="st0" x1="298.8" y1="255.8" x2="298.8" y2="256.1"/>
	<line class="st0" x1="299.4" y1="255.2" x2="299.7" y2="255.2"/>
	<line class="st0" x1="298.8" y1="254.7" x2="298.8" y2="254.4"/>
	<line class="st0" x1="298.3" y1="272.7" x2="298" y2="272.7"/>
	<line class="st0" x1="298.8" y1="273.3" x2="298.8" y2="273.6"/>
	<line class="st0" x1="299.4" y1="272.7" x2="299.7" y2="272.7"/>
	<line class="st0" x1="298.8" y1="272.2" x2="298.8" y2="271.9"/>
	<line class="st0" x1="298.3" y1="290.2" x2="298" y2="290.2"/>
	<line class="st0" x1="298.8" y1="290.8" x2="298.8" y2="291.1"/>
	<line class="st0" x1="299.4" y1="290.2" x2="299.7" y2="290.2"/>
	<line class="st0" x1="298.8" y1="289.7" x2="298.8" y2="289.4"/>
	<line class="st0" x1="298.3" y1="307.7" x2="298" y2="307.7"/>
	<line class="st0" x1="298.8" y1="308.2" x2="298.8" y2="308.6"/>
	<line class="st0" x1="299.4" y1="307.7" x2="299.7" y2="307.7"/>
	<line class="st0" x1="298.8" y1="307.2" x2="298.8" y2="306.9"/>
	<line class="st0" x1="298.3" y1="465.2" x2="298" y2="465.2"/>
	<line class="st0" x1="298.8" y1="465.7" x2="298.8" y2="466"/>
	<line class="st0" x1="299.4" y1="465.2" x2="299.7" y2="465.2"/>
	<line class="st0" x1="298.8" y1="464.7" x2="298.8" y2="464.4"/>
	<line class="st0" x1="298.3" y1="482.7" x2="298" y2="482.7"/>
	<line class="st0" x1="298.8" y1="483.2" x2="298.8" y2="483.5"/>
	<line class="st0" x1="299.4" y1="482.7" x2="299.7" y2="482.7"/>
	<line class="st0" x1="298.8" y1="482.2" x2="298.8" y2="481.9"/>
	<line class="st0" x1="298.3" y1="500.2" x2="298" y2="500.2"/>
	<line class="st0" x1="298.8" y1="500.7" x2="298.8" y2="501"/>
	<line class="st0" x1="299.4" y1="500.2" x2="299.7" y2="500.2"/>
	<line class="st0" x1="298.8" y1="499.7" x2="298.8" y2="499.3"/>
	<line class="st0" x1="298.3" y1="517.7" x2="298" y2="517.7"/>
	<line class="st0" x1="298.8" y1="518.2" x2="298.8" y2="518.5"/>
	<line class="st0" x1="299.4" y1="517.7" x2="299.7" y2="517.7"/>
	<line class="st0" x1="298.8" y1="517.1" x2="298.8" y2="516.8"/>
	<line class="st0" x1="298.3" y1="535.2" x2="298" y2="535.2"/>
	<line class="st0" x1="298.8" y1="535.7" x2="298.8" y2="536"/>
	<line class="st0" x1="299.4" y1="535.2" x2="299.7" y2="535.2"/>
	<line class="st0" x1="298.8" y1="534.6" x2="298.8" y2="534.3"/>
	<line class="st0" x1="298.3" y1="552.7" x2="298" y2="552.7"/>
	<line class="st0" x1="298.8" y1="553.2" x2="298.8" y2="553.5"/>
	<line class="st0" x1="299.4" y1="552.7" x2="299.7" y2="552.7"/>
	<line class="st0" x1="298.8" y1="552.1" x2="298.8" y2="551.8"/>
	<line class="st0" x1="298.3" y1="570.1" x2="298" y2="570.1"/>
	<line class="st0" x1="298.8" y1="570.7" x2="298.8" y2="571"/>
	<line class="st0" x1="299.4" y1="570.1" x2="299.7" y2="570.1"/>
	<line class="st0" x1="298.8" y1="569.6" x2="298.8" y2="569.3"/>
	<line class="st0" x1="298.3" y1="587.6" x2="298" y2="587.6"/>
	<line class="st0" x1="298.8" y1="588.2" x2="298.8" y2="588.5"/>
	<line class="st0" x1="299.4" y1="587.6" x2="299.7" y2="587.6"/>
	<line class="st0" x1="298.8" y1="587.1" x2="298.8" y2="586.8"/>
	<line class="st0" x1="298.3" y1="605.1" x2="298" y2="605.1"/>
	<line class="st0" x1="298.8" y1="605.7" x2="298.8" y2="606"/>
	<line class="st0" x1="299.4" y1="605.1" x2="299.7" y2="605.1"/>
	<line class="st0" x1="298.8" y1="604.6" x2="298.8" y2="604.3"/>
	<line class="st0" x1="298.3" y1="622.6" x2="298" y2="622.6"/>
	<line class="st0" x1="298.8" y1="623.1" x2="298.8" y2="623.5"/>
	<line class="st0" x1="299.4" y1="622.6" x2="299.7" y2="622.6"/>
	<line class="st0" x1="298.8" y1="622.1" x2="298.8" y2="621.8"/>
	<line class="st0" x1="298.3" y1="657.6" x2="298" y2="657.6"/>
	<line class="st0" x1="298.8" y1="658.1" x2="298.8" y2="658.4"/>
	<line class="st0" x1="299.4" y1="657.6" x2="299.7" y2="657.6"/>
	<line class="st0" x1="298.8" y1="657.1" x2="298.8" y2="656.8"/>
	<line class="st0" x1="298.3" y1="185.3" x2="298" y2="185.3"/>
	<line class="st0" x1="298.8" y1="185.8" x2="298.8" y2="186.1"/>
	<line class="st0" x1="299.4" y1="185.3" x2="299.7" y2="185.3"/>
	<line class="st0" x1="298.8" y1="184.8" x2="298.8" y2="184.4"/>
	<path class="st1" d="M298.9,185.3v-0.5 M298.9,185.3h0.5 M298.9,185.3v0.5 M298.9,185.3h-0.5 M298.9,657.6v-0.5 M298.9,657.6h0.5
		 M298.9,657.6v0.5 M298.9,657.6h-0.5 M298.9,622.7v-0.5 M298.9,622.7h0.5 M298.9,622.7v0.5 M298.9,622.7h-0.5 M298.9,605.2v-0.5
		 M298.9,605.2h0.5 M298.9,605.2v0.5 M298.9,605.2h-0.5 M298.9,587.7v-0.5 M298.9,587.7h0.5 M298.9,587.7v0.5 M298.9,587.7h-0.5
		 M298.9,570.2v-0.5 M298.9,570.2h0.5 M298.9,570.2v0.5 M298.9,570.2h-0.5 M298.9,552.7v-0.5 M298.9,552.7h0.5 M298.9,552.7v0.5
		 M298.9,552.7h-0.5 M298.9,535.2v-0.5 M298.9,535.2h0.5 M298.9,535.2v0.5 M298.9,535.2h-0.5 M298.9,517.7v-0.5 M298.9,517.7h0.5
		 M298.9,517.7v0.5 M298.9,517.7h-0.5 M298.9,500.2v-0.5 M298.9,500.2h0.5 M298.9,500.2v0.5 M298.9,500.2h-0.5 M298.9,482.7v-0.5
		 M298.9,482.7h0.5 M298.9,482.7v0.5 M298.9,482.7h-0.5 M298.9,465.2v-0.5 M298.9,465.2h0.5 M298.9,465.2v0.5 M298.9,465.2h-0.5
		 M298.9,307.8v-0.5 M298.9,307.8h0.5 M298.9,307.8v0.5 M298.9,307.8h-0.5 M298.9,290.3v-0.5 M298.9,290.3h0.5 M298.9,290.3v0.5
		 M298.9,290.3h-0.5 M298.9,272.8v-0.5 M298.9,272.8h0.5 M298.9,272.8v0.5 M298.9,272.8h-0.5 M298.9,255.3v-0.5 M298.9,255.3h0.5
		 M298.9,255.3v0.5 M298.9,255.3h-0.5 M298.9,640.2v-0.5 M298.9,640.2h0.5 M298.9,640.2v0.5 M298.9,640.2h-0.5 M298.9,202.8v-0.5
		 M298.9,202.8h0.5 M298.9,202.8v0.5 M298.9,202.8h-0.5 M298.9,220.3v-0.5 M298.9,220.3h0.5 M298.9,220.3v0.5 M298.9,220.3h-0.5
		 M298.9,237.8v-0.5 M298.9,237.8h0.5 M298.9,237.8v0.5 M298.9,237.8h-0.5 M298.9,325.3v-0.5 M298.9,325.3h0.5 M298.9,325.3v0.5
		 M298.9,325.3h-0.5 M298.9,342.7v-0.5 M298.9,342.7h0.5 M298.9,342.7v0.5 M298.9,342.7h-0.5 M298.9,360.2v-0.5 M298.9,360.2h0.5
		 M298.9,360.2v0.5 M298.9,360.2h-0.5 M298.9,377.7v-0.5 M298.9,377.7h0.5 M298.9,377.7v0.5 M298.9,377.7h-0.5 M298.9,395.2v-0.5
		 M298.9,395.2h0.5 M298.9,395.2v0.5 M298.9,395.2h-0.5 M298.9,412.7v-0.5 M298.9,412.7h0.5 M298.9,412.7v0.5 M298.9,412.7h-0.5
		 M298.9,430.2v-0.5 M298.9,430.2h0.5 M298.9,430.2v0.5 M298.9,430.2h-0.5 M298.9,447.7v-0.5 M298.9,447.7h0.5 M298.9,447.7v0.5
		 M298.9,447.7h-0.5"/>
	<path class="st1" d="M298.6,185.3l0,0.1l0.1,0.1l0.1,0.1l0.1,0l0.1,0l0.1-0.1l0-0.1l0-0.1l0-0.1l0-0.1l-0.1,0l-0.1,0l-0.1,0l-0.1,0
		l-0.1,0.1L298.6,185.3 M298.6,657.6l0,0.1l0.1,0.1l0.1,0.1l0.1,0l0.1,0l0.1-0.1l0-0.1l0-0.1l0-0.1l0-0.1l-0.1,0l-0.1,0l-0.1,0
		l-0.1,0l-0.1,0.1L298.6,657.6 M298.6,622.7l0,0.1l0.1,0.1l0.1,0.1h0.1h0.1l0.1-0.1l0-0.1l0-0.1l0-0.1l0-0.1l-0.1-0.1l-0.1,0l-0.1,0
		l-0.1,0.1l-0.1,0.1L298.6,622.7 M298.6,605.2l0,0.1l0.1,0.1l0.1,0.1h0.1h0.1l0.1-0.1l0-0.1l0-0.1l0-0.1l0-0.1l-0.1-0.1l-0.1,0
		l-0.1,0l-0.1,0.1l-0.1,0.1L298.6,605.2 M298.6,587.7l0,0.1l0.1,0.1l0.1,0.1h0.1h0.1l0.1-0.1l0-0.1l0-0.1l0-0.1l0-0.1l-0.1-0.1
		l-0.1,0l-0.1,0l-0.1,0.1l-0.1,0.1L298.6,587.7 M298.6,570.2l0,0.1l0.1,0.1l0.1,0.1l0.1,0l0.1,0l0.1-0.1l0-0.1l0-0.1l0-0.1l0-0.1
		l-0.1-0.1l-0.1,0l-0.1,0l-0.1,0.1l-0.1,0.1L298.6,570.2 M298.6,552.7l0,0.1l0.1,0.1l0.1,0.1l0.1,0l0.1,0l0.1-0.1l0-0.1l0-0.1l0-0.1
		l0-0.1l-0.1-0.1h-0.1h-0.1l-0.1,0.1l-0.1,0.1L298.6,552.7 M298.6,535.2l0,0.1l0.1,0.1l0.1,0.1l0.1,0l0.1,0l0.1-0.1l0-0.1l0-0.1
		l0-0.1l0-0.1l-0.1-0.1h-0.1h-0.1l-0.1,0.1l-0.1,0.1L298.6,535.2 M298.6,517.7l0,0.1l0.1,0.1l0.1,0.1l0.1,0l0.1,0l0.1-0.1l0-0.1
		l0-0.1l0-0.1l0-0.1l-0.1-0.1h-0.1h-0.1l-0.1,0.1l-0.1,0.1L298.6,517.7 M298.6,500.2l0,0.1l0.1,0.1l0.1,0.1l0.1,0l0.1,0l0.1-0.1
		l0-0.1l0-0.1l0-0.1l0-0.1l-0.1,0l-0.1,0l-0.1,0l-0.1,0l-0.1,0.1L298.6,500.2 M298.6,482.7l0,0.1l0.1,0.1l0.1,0l0.1,0l0.1,0l0.1,0
		l0-0.1l0-0.1l0-0.1l0-0.1l-0.1-0.1l-0.1,0l-0.1,0l-0.1,0.1l-0.1,0.1L298.6,482.7 M298.6,465.2l0,0.1l0.1,0.1l0.1,0.1h0.1h0.1
		l0.1-0.1l0-0.1l0-0.1l0-0.1l0-0.1l-0.1-0.1l-0.1,0l-0.1,0l-0.1,0.1l-0.1,0.1L298.6,465.2 M298.6,307.8l0,0.1l0.1,0.1l0.1,0.1h0.1
		h0.1l0.1-0.1l0-0.1l0-0.1l0-0.1l0-0.1l-0.1-0.1l-0.1,0l-0.1,0l-0.1,0.1l-0.1,0.1L298.6,307.8 M298.6,290.3l0,0.1l0.1,0.1l0.1,0.1
		h0.1h0.1l0.1-0.1l0-0.1l0-0.1l0-0.1l0-0.1L299,290l-0.1,0l-0.1,0l-0.1,0.1l-0.1,0.1L298.6,290.3 M298.6,272.8l0,0.1l0.1,0.1
		l0.1,0.1h0.1h0.1l0.1-0.1l0-0.1l0-0.1l0-0.1l0-0.1l-0.1-0.1l-0.1,0l-0.1,0l-0.1,0.1l-0.1,0.1L298.6,272.8 M298.6,255.3l0,0.1
		l0.1,0.1l0.1,0.1h0.1h0.1l0.1-0.1l0-0.1l0-0.1l0-0.1l0-0.1L299,255l-0.1,0l-0.1,0l-0.1,0.1l-0.1,0.1L298.6,255.3 M298.6,640.2
		l0,0.1l0.1,0.1l0.1,0l0.1,0l0.1,0l0.1,0l0-0.1l0-0.1l0-0.1l0-0.1l-0.1-0.1l-0.1,0l-0.1,0l-0.1,0.1l-0.1,0.1L298.6,640.2
		 M298.6,202.8l0,0.1l0.1,0.1l0.1,0.1l0.1,0l0.1,0l0.1-0.1l0-0.1l0-0.1l0-0.1l0-0.1l-0.1-0.1h-0.1h-0.1l-0.1,0.1l-0.1,0.1
		L298.6,202.8 M298.6,220.3l0,0.1l0.1,0.1l0.1,0.1l0.1,0l0.1,0l0.1-0.1l0-0.1l0-0.1l0-0.1l0-0.1L299,220h-0.1h-0.1l-0.1,0.1
		l-0.1,0.1L298.6,220.3 M298.6,237.8l0,0.1l0.1,0.1l0.1,0.1l0.1,0l0.1,0l0.1-0.1l0-0.1l0-0.1l0-0.1l0-0.1l-0.1-0.1h-0.1h-0.1
		l-0.1,0.1l-0.1,0.1L298.6,237.8 M298.6,325.3l0,0.1l0.1,0.1l0.1,0l0.1,0l0.1,0l0.1,0l0-0.1l0-0.1l0-0.1l0-0.1L299,325l-0.1,0
		l-0.1,0l-0.1,0.1l-0.1,0.1L298.6,325.3 M298.6,342.7l0,0.1l0.1,0.1l0.1,0.1l0.1,0l0.1,0l0.1-0.1l0-0.1l0-0.1l0-0.1l0-0.1l-0.1,0
		l-0.1,0l-0.1,0l-0.1,0l-0.1,0.1L298.6,342.7 M298.6,360.2l0,0.1l0.1,0.1l0.1,0.1l0.1,0l0.1,0l0.1-0.1l0-0.1l0-0.1l0-0.1l0-0.1
		l-0.1-0.1h-0.1h-0.1l-0.1,0.1l-0.1,0.1L298.6,360.2 M298.6,377.7l0,0.1l0.1,0.1l0.1,0.1l0.1,0l0.1,0l0.1-0.1l0-0.1l0-0.1l0-0.1
		l0-0.1l-0.1-0.1h-0.1h-0.1l-0.1,0.1l-0.1,0.1L298.6,377.7 M298.6,395.2l0,0.1l0.1,0.1l0.1,0.1l0.1,0l0.1,0l0.1-0.1l0-0.1l0-0.1
		l0-0.1l0-0.1l-0.1-0.1h-0.1h-0.1l-0.1,0.1l-0.1,0.1L298.6,395.2 M298.6,412.7l0,0.1l0.1,0.1l0.1,0.1l0.1,0l0.1,0l0.1-0.1l0-0.1
		l0-0.1l0-0.1l0-0.1l-0.1-0.1l-0.1,0l-0.1,0l-0.1,0.1l-0.1,0.1L298.6,412.7 M298.6,430.2l0,0.1l0.1,0.1l0.1,0.1h0.1h0.1l0.1-0.1
		l0-0.1l0-0.1l0-0.1l0-0.1l-0.1-0.1l-0.1,0l-0.1,0l-0.1,0.1l-0.1,0.1L298.6,430.2 M298.6,447.7l0,0.1l0.1,0.1l0.1,0.1h0.1h0.1
		l0.1-0.1l0-0.1l0-0.1l0-0.1l0-0.1l-0.1-0.1l-0.1,0l-0.1,0l-0.1,0.1l-0.1,0.1L298.6,447.7 M300.3,174.5h-4.1 M296.2,668.4V174.5
		 M300.3,668.4h-4.1 M300.3,668.4V174.5"/>
</g>
<text transform="matrix(1 0 0 1 339.3044 446.8633)"><tspan x="0" y="0" class="st2 st3">ALPHA_10x20_8&apos;_A</tspan><tspan x="98.5" y="0" class="st2 st3">L</tspan><tspan x="103.7" y="0" class="st2 st3">U_PIPE</tspan></text>
</svg>
