<?xml version="1.0" encoding="utf-8"?>
<!-- Generator: Adobe Illustrator 22.1.0, SVG Export Plug-In . SVG Version: 6.00 Build 0)  -->
<svg version="1.1" id="Layer_1" xmlns="http://www.w3.org/2000/svg" xmlns:xlink="http://www.w3.org/1999/xlink" x="0px" y="0px"
	 viewBox="0 0 595.3 841.9" style="enable-background:new 0 0 595.3 841.9;" xml:space="preserve">
<style type="text/css">
	.st0{fill:none;stroke:#010101;stroke-width:0.5;stroke-linecap:round;stroke-linejoin:round;stroke-miterlimit:10;}
</style>
<g>
	<path class="st0" d="M330.8,448.8l0.8,0.1 M330.9,447.5l0.7,0.1 M330.8,420.8l0.8,0.1 M330.9,419.5l0.7,0.1 M330.8,392.8l0.8,0.1
		 M330.9,391.4l0.7,0.1 M330.8,364.7l0.8,0.1 M330.9,363.4l0.7,0.1 M161.1,377.7l0.1-0.1 M162.1,378.8l1.1-1 M208.9,383.7l0.2-0.1
		 M87.8,496.2l194.3,24.5 M87.8,492.3v3.9 M282.1,520.7l0.3-0.2 M282.1,516.8v3.9 M88.3,491.9l-0.5,0.4 M87.8,492.3l194.3,24.5
		 M331.6,345.2v0.3 M87.8,368.4l194.3,24.4 M282.1,388.8v3.9 M87.8,364.3v4 M137.3,320.7l-49.5,43.6 M87.8,364.3l194.3,24.5
		 M282.1,388.8l49.5-43.6 M331.6,345.2l-194.3-24.5 M136.1,320.9L136.1,320.9L136,321 M86.8,495.1v0.2v0.2l0.1,0.1l0.1,0.1l0.1,0.1
		l0.1,0.1 M135.9,321l-48.7,42.9 M135.9,321l1,0.1 M86.8,365.2v129.9 M86.8,495.1l1,0.1 M87.2,363.9l1,0.1 M87.2,363.9L87.2,363.9
		l-0.1,0.2l-0.1,0.2l-0.1,0.2l-0.1,0.2l-0.1,0.2v0.2v0.2 M86.8,365.2l1,0.1 M87.8,365.3v129.9 M136.9,321.1L88.2,364 M331.4,452
		L331.4,452l-0.1,0.1 M331.2,452.1l-0.4,0.4 M331.2,452.1l0.9,0.1 M331.4,424L331.4,424l-0.1,0.1 M331.2,424.1l-0.4,0.4
		 M331.2,424.1l0.9,0.1 M331.4,395.9L331.4,395.9l-0.1,0.1 M331.2,396l-0.4,0.4 M331.2,396l0.9,0.1 M331.4,367.9L331.4,367.9
		l-0.1,0.1 M331.2,368l-0.4,0.4 M331.2,368l0.9,0.1 M331.4,345.5L331.4,345.5l-0.1,0.1 M282.1,519.7v0.2v0.2l0.1,0.1l0.1,0.1
		l0.1,0.1l0.1,0.1 M331.2,345.6l-48.7,42.9 M331.2,345.6l0.9,0.1 M282.1,389.8v129.9 M282.1,519.7l1,0.1 M282.5,388.5l1,0.1
		 M282.5,388.5L282.5,388.5l-0.1,0.2l-0.1,0.2l-0.1,0.1l-0.1,0.2l-0.1,0.2v0.2v0.2 M282.1,389.8l1,0.1 M287,492.7v-0.2l-0.1-0.2
		l-0.1-0.1l-0.1,0.1l-0.1,0.1l-0.1,0.1l-0.1,0.2v0.2v0.2l0.1,0.1l0.1,0.1h0.1l0.1-0.1l0.1-0.2l0.1-0.2V492.7 M287,451.4v-0.2
		l-0.1-0.1l-0.1-0.1l-0.1,0.1l-0.1,0.1l-0.1,0.2l-0.1,0.2v0.2v0.2l0.1,0.1l0.1,0.1h0.1l0.1-0.1l0.1-0.2l0.1-0.2V451.4 M287,410.2
		V410l-0.1-0.1l-0.1-0.1l-0.1,0.1l-0.1,0.1l-0.1,0.2l-0.1,0.2v0.2v0.2l0.1,0.1l0.1,0.1h0.1l0.1-0.1l0.1-0.2l0.1-0.2V410.2
		 M287,514.4v-0.2l-0.1-0.1l-0.1-0.1l-0.1,0.1l-0.1,0.1l-0.1,0.2l-0.1,0.2v0.2v0.2l0.1,0.1l0.1,0.1h0.1l0.1-0.1l0.1-0.2l0.1-0.2
		V514.4 M287,388.5v-0.2l-0.1-0.2l-0.1-0.1l-0.1,0.1l-0.1,0.1l-0.1,0.1l-0.1,0.2v0.2v0.2l0.1,0.1l0.1,0.1h0.1l0.1-0.1l0.1-0.2
		l0.1-0.2V388.5 M329.6,476.9l-0.1-0.2v-0.1l-0.1-0.1l-0.1,0.1l-0.1,0.1l-0.1,0.2l-0.1,0.2v0.2v0.2l0.1,0.1l0.1,0.1h0.1l0.1-0.1
		l0.1-0.2v-0.2L329.6,476.9 M329.6,372.7l-0.1-0.2v-0.1l-0.1-0.1l-0.1,0.1l-0.1,0.1l-0.1,0.2l-0.1,0.2v0.2v0.2l0.1,0.1l0.1,0.1h0.1
		l0.1-0.1l0.1-0.2V373L329.6,372.7 M329.6,413.9l-0.1-0.2v-0.1l-0.1-0.1l-0.1,0.1l-0.1,0.1l-0.1,0.2l-0.1,0.2v0.2v0.2l0.1,0.1
		l0.1,0.1h0.1l0.1-0.1l0.1-0.2v-0.2L329.6,413.9 M329.6,455.2l-0.1-0.2v-0.1l-0.1-0.1l-0.1,0.1l-0.1,0.1l-0.1,0.1l-0.1,0.2v0.2v0.2
		l0.1,0.1l0.1,0.1h0.1l0.1-0.1l0.1-0.2v-0.2L329.6,455.2 M329.6,351l-0.1-0.2v-0.1l-0.1-0.1l-0.1,0.1l-0.1,0.1l-0.1,0.2l-0.1,0.2
		v0.2v0.2l0.1,0.1l0.1,0.1h0.1l0.1-0.1l0.1-0.2v-0.2L329.6,351 M314.9,489.9v-0.2l-0.1-0.1l-0.1-0.1h-0.1l-0.1,0.1l-0.1,0.2
		l-0.1,0.2v0.2v0.2l0.1,0.2l0.1,0.1l0.1-0.1l0.1-0.1l0.1-0.1l0.1-0.2V489.9 M301.7,501.5l-0.1-0.2v-0.1l-0.1-0.1h-0.1l-0.1,0.1
		l-0.1,0.2l-0.1,0.2v0.2v0.2l0.1,0.1l0.1,0.1l0.1-0.1l0.1-0.1l0.1-0.2v-0.2L301.7,501.5 M301.7,375.6l-0.1-0.2v-0.1l-0.1-0.1h-0.1
		l-0.1,0.1l-0.1,0.2l-0.1,0.2v0.2v0.2l0.1,0.1l0.1,0.1l0.1-0.1l0.1-0.1l0.1-0.2v-0.2L301.7,375.6 M314.9,363.9v-0.2l-0.1-0.1
		l-0.1-0.1h-0.1l-0.1,0.1l-0.1,0.2l-0.1,0.2v0.2v0.2l0.1,0.1l0.1,0.1l0.1-0.1l0.1-0.1l0.1-0.2l0.1-0.2V363.9 M283.5,388.6
		L283.5,388.6l-0.2,0.2l-0.1,0.2v0.1l-0.1,0.2l-0.1,0.2v0.2v0.2 M283.1,389.9v129.9 M283.1,519.9v0.2v0.2l0.1,0.1l0.1,0.1v0.1
		l0.1,0.1h0.1l0.1-0.1 M283.5,520.5l48.7-42.9 M332.2,477.6l0.1-0.1l0.1-0.1l0.1-0.1l0.1-0.2v-0.2l0.1-0.2v-0.2l0.1-0.2
		 M332.6,476.2v-23.4 M332.6,452.9l-0.1-0.2v-0.2l-0.1-0.1v-0.1l-0.1-0.1l-0.1-0.1h-0.1l-0.1,0.1 M332.2,452.2l-1.4,1.2
		 M330.8,453.4v-5.1 M330.8,448.3v-0.4l0.1-0.4l0.1-0.4l0.1-0.2l0.2-0.1h0.1l0.1,0.2l0.1,0.2v0.4 M331.6,447.6v1.3 M331.6,448.9
		L331.6,448.9v0.2v0.1l0.1,0.1l0.1,0.1l0.1-0.1 M331.8,449.2l0.4-0.3 M332.2,448.9l0.1-0.1l0.1-0.1l0.1-0.1l0.1-0.2v-0.2l0.1-0.2
		v-0.2l0.1-0.2 M332.6,447.6v-22.8 M332.6,424.8l-0.1-0.2v-0.1l-0.1-0.2v-0.1l-0.1-0.1h-0.1h-0.1l-0.1,0.1 M332.2,424.2l-1.4,1.2
		 M330.8,425.4v-5.1 M330.8,420.3v-0.4l0.1-0.4l0.1-0.3l0.1-0.2l0.2-0.1h0.1l0.1,0.1l0.1,0.3v0.3 M331.6,419.6v1.4 M331.6,420.9
		L331.6,420.9v0.1v0.1h0.1v0.1h0.1h0.1 M331.8,421.2l0.4-0.4 M332.2,420.8l0.1-0.1l0.1-0.1l0.1-0.1l0.1-0.2v-0.2l0.1-0.2v-0.2
		l0.1-0.2 M332.6,419.6v-22.8 M332.6,396.8l-0.1-0.2v-0.2l-0.1-0.1v-0.1l-0.1-0.1h-0.1h-0.1H332 M332.2,396.1l-1.4,1.2 M330.8,397.3
		v-5.1 M330.8,392.2v-0.4l0.1-0.4l0.1-0.4l0.1-0.2l0.2-0.1h0.1l0.1,0.1l0.1,0.2v0.4 M331.6,391.5v1.3 M331.6,392.8v0.1v0.1v0.1
		l0.1,0.1v0.1h0.1h0.1 M331.8,393.2l0.4-0.4 M332.2,392.8l0.1-0.1l0.1-0.1l0.1-0.2l0.1-0.2V392l0.1-0.2v-0.2l0.1-0.2 M332.6,391.5
		v-22.8 M332.6,368.8l-0.1-0.2v-0.2l-0.1-0.1v-0.1l-0.1-0.1l-0.1-0.1h-0.1l-0.1,0.1 M332.2,368.1l-1.4,1.2 M330.8,369.3v-5.1
		 M330.8,364.2v-0.4l0.1-0.4l0.1-0.4l0.1-0.2l0.2-0.1h0.1l0.1,0.2l0.1,0.2v0.4 M331.6,363.5v1.3 M331.6,364.8L331.6,364.8v0.2v0.1
		l0.1,0.1l0.1,0.1l0.1-0.1 M331.8,365.1l0.4-0.3 M332.2,364.8l0.1-0.1l0.1-0.1l0.1-0.1l0.1-0.2v-0.2l0.1-0.2v-0.2l0.1-0.2
		 M332.6,363.5v-17.1 M332.6,346.3l-0.1-0.2V346l-0.1-0.2v-0.1l-0.1-0.1h-0.1h-0.1l-0.1,0.1 M332.2,345.7l-48.7,42.9 M167.6,384.5
		l-0.7-0.1l-0.6-0.2l-0.6-0.4l-0.5-0.5l-0.4-0.6l-0.3-0.6l-0.2-0.6l-0.1-0.7 M88.3,368.5l0.1-0.1 M164.3,380.8V378 M162.1,382.8
		l2.2-2 M206.8,389.5l-39.2-5 M165.4,386.5l2.2-2 M207.7,389.4l-0.3,0.1h-0.6 M204.6,391.4l2.2-1.9 M208.9,383.7h-0.2l-0.2,0.1
		l-0.2,0.1l-0.1,0.1l-0.1,0.1l-0.1,0.2l-0.1,0.1v0.2 M207.9,384.6v3.9 M207.9,388.6l-0.1,0.6l-0.2,0.6l-0.3,0.5l-0.4,0.4l-0.5,0.4
		l-0.6,0.2l-0.6,0.1l-0.6-0.1 M204.6,391.4l-39.2-4.9 M165.4,386.5l-0.7-0.1l-0.6-0.2l-0.6-0.4l-0.5-0.5l-0.4-0.6l-0.3-0.6l-0.2-0.6
		l-0.1-0.7 M162.1,382.8v-3.9 M162.1,378.8l-0.1-0.2l-0.1-0.2l-0.1-0.2l-0.1-0.2l-0.1-0.1l-0.2-0.1l-0.2-0.1l-0.2-0.1 M161.1,377.7
		l-72.8-9.2 M88.3,368.5v123.7 M88.3,492.2l193.3,24.4 M281.6,392.9l-72.8-9.2 M281.6,392.9l0.2-0.1 M281.6,516.6V392.9
		 M281.6,516.6l0.5-0.4 M137,321l-0.9-0.1 M87.1,495.9l0.7,0.1 M332.4,452.1l-1-0.1 M330.8,449.2l0.9,0.1 M332.4,424.1l-1-0.1
		 M330.8,421.1l0.9,0.1 M332.4,396.1l-1-0.2 M330.8,393.1l0.9,0.1 M332.4,368l-1-0.1 M330.8,365.1l0.9,0.1 M332.4,345.6l-1-0.1
		 M282.4,520.5l1,0.1 M208.6,383.5l-0.4,0.4"/>
</g>
</svg>
