<?xml version="1.0" encoding="utf-8"?>
<!-- Generator: Adobe Illustrator 22.1.0, SVG Export Plug-In . SVG Version: 6.00 Build 0)  -->
<svg version="1.1" id="Layer_1" xmlns="http://www.w3.org/2000/svg" xmlns:xlink="http://www.w3.org/1999/xlink" x="0px" y="0px"
	 viewBox="0 0 595.3 841.9" style="enable-background:new 0 0 595.3 841.9;" xml:space="preserve">
<style type="text/css">
	
		.st0{fill:none;stroke:#010101;stroke-width:0.8218;stroke-linecap:round;stroke-linejoin:round;stroke-miterlimit:10;stroke-dasharray:14.2415,1.1868,1.1868,1.1868;}
	.st1{fill:none;stroke:#010101;stroke-width:0.8218;stroke-linecap:round;stroke-linejoin:round;stroke-miterlimit:10;}
</style>
<g>
	<line class="st0" x1="298.4" y1="443.4" x2="298.1" y2="443.4"/>
	<line class="st0" x1="298.9" y1="443.8" x2="298.9" y2="444.1"/>
	<line class="st0" x1="299.4" y1="443.4" x2="299.7" y2="443.4"/>
	<line class="st0" x1="298.9" y1="443" x2="298.9" y2="442.7"/>
	<line class="st0" x1="298.4" y1="429" x2="298.1" y2="429"/>
	<line class="st0" x1="298.9" y1="429.4" x2="298.9" y2="429.7"/>
	<line class="st0" x1="299.4" y1="429" x2="299.7" y2="429"/>
	<line class="st0" x1="298.9" y1="428.6" x2="298.9" y2="428.3"/>
	<line class="st0" x1="298.4" y1="414.6" x2="298.1" y2="414.6"/>
	<line class="st0" x1="298.9" y1="415" x2="298.9" y2="415.2"/>
	<line class="st0" x1="299.4" y1="414.6" x2="299.7" y2="414.6"/>
	<line class="st0" x1="298.9" y1="414.1" x2="298.9" y2="413.9"/>
	<line class="st0" x1="298.4" y1="400.1" x2="298.1" y2="400.1"/>
	<line class="st0" x1="298.9" y1="400.6" x2="298.9" y2="400.8"/>
	<line class="st0" x1="299.4" y1="400.1" x2="299.7" y2="400.1"/>
	<line class="st0" x1="298.9" y1="399.7" x2="298.9" y2="399.5"/>
	<line class="st0" x1="298.4" y1="385.7" x2="298.1" y2="385.7"/>
	<line class="st0" x1="298.9" y1="386.1" x2="298.9" y2="386.4"/>
	<line class="st0" x1="299.4" y1="385.7" x2="299.7" y2="385.7"/>
	<line class="st0" x1="298.9" y1="385.3" x2="298.9" y2="385"/>
	<line class="st0" x1="298.4" y1="371.3" x2="298.1" y2="371.3"/>
	<line class="st0" x1="298.9" y1="371.7" x2="298.9" y2="372"/>
	<line class="st0" x1="299.4" y1="371.3" x2="299.7" y2="371.3"/>
	<line class="st0" x1="298.9" y1="370.9" x2="298.9" y2="370.6"/>
	<line class="st0" x1="298.4" y1="356.9" x2="298.1" y2="356.9"/>
	<line class="st0" x1="298.9" y1="357.3" x2="298.9" y2="357.5"/>
	<line class="st0" x1="299.4" y1="356.9" x2="299.7" y2="356.9"/>
	<line class="st0" x1="298.9" y1="356.4" x2="298.9" y2="356.2"/>
	<line class="st0" x1="298.4" y1="342.4" x2="298.1" y2="342.4"/>
	<line class="st0" x1="298.9" y1="342.8" x2="298.9" y2="343.1"/>
	<line class="st0" x1="299.4" y1="342.4" x2="299.7" y2="342.4"/>
	<line class="st0" x1="298.9" y1="342" x2="298.9" y2="341.7"/>
	<line class="st0" x1="298.4" y1="270.3" x2="298.1" y2="270.3"/>
	<line class="st0" x1="298.9" y1="270.7" x2="298.9" y2="271"/>
	<line class="st0" x1="299.4" y1="270.3" x2="299.7" y2="270.3"/>
	<line class="st0" x1="298.9" y1="269.9" x2="298.9" y2="269.6"/>
	<line class="st0" x1="298.4" y1="255.9" x2="298.1" y2="255.9"/>
	<line class="st0" x1="298.9" y1="256.3" x2="298.9" y2="256.5"/>
	<line class="st0" x1="299.4" y1="255.9" x2="299.7" y2="255.9"/>
	<line class="st0" x1="298.9" y1="255.4" x2="298.9" y2="255.2"/>
	<line class="st0" x1="298.4" y1="241.4" x2="298.1" y2="241.4"/>
	<line class="st0" x1="298.9" y1="241.9" x2="298.9" y2="242.1"/>
	<line class="st0" x1="299.4" y1="241.4" x2="299.7" y2="241.4"/>
	<line class="st0" x1="298.9" y1="241" x2="298.9" y2="240.8"/>
	<line class="st0" x1="298.4" y1="602.1" x2="298.1" y2="602.1"/>
	<line class="st0" x1="298.9" y1="602.5" x2="298.9" y2="602.8"/>
	<line class="st0" x1="299.4" y1="602.1" x2="299.7" y2="602.1"/>
	<line class="st0" x1="298.9" y1="601.7" x2="298.9" y2="601.4"/>
	<line class="st0" x1="298.4" y1="284.7" x2="298.1" y2="284.7"/>
	<line class="st0" x1="298.9" y1="285.1" x2="298.9" y2="285.4"/>
	<line class="st0" x1="299.4" y1="284.7" x2="299.7" y2="284.7"/>
	<line class="st0" x1="298.9" y1="284.3" x2="298.9" y2="284"/>
	<line class="st0" x1="298.4" y1="299.1" x2="298.1" y2="299.1"/>
	<line class="st0" x1="298.9" y1="299.6" x2="298.9" y2="299.8"/>
	<line class="st0" x1="299.4" y1="299.1" x2="299.7" y2="299.1"/>
	<line class="st0" x1="298.9" y1="298.7" x2="298.9" y2="298.5"/>
	<line class="st0" x1="298.4" y1="313.6" x2="298.1" y2="313.6"/>
	<line class="st0" x1="298.9" y1="314" x2="298.9" y2="314.3"/>
	<line class="st0" x1="299.4" y1="313.6" x2="299.7" y2="313.6"/>
	<line class="st0" x1="298.9" y1="313.1" x2="298.9" y2="312.9"/>
	<line class="st0" x1="298.4" y1="328" x2="298.1" y2="328"/>
	<line class="st0" x1="298.9" y1="328.4" x2="298.9" y2="328.7"/>
	<line class="st0" x1="299.4" y1="328" x2="299.7" y2="328"/>
	<line class="st0" x1="298.9" y1="327.6" x2="298.9" y2="327.3"/>
	<line class="st0" x1="298.4" y1="457.8" x2="298.1" y2="457.8"/>
	<line class="st0" x1="298.9" y1="458.3" x2="298.9" y2="458.5"/>
	<line class="st0" x1="299.4" y1="457.8" x2="299.7" y2="457.8"/>
	<line class="st0" x1="298.9" y1="457.4" x2="298.9" y2="457.2"/>
	<line class="st0" x1="298.4" y1="472.3" x2="298.1" y2="472.3"/>
	<line class="st0" x1="298.9" y1="472.7" x2="298.9" y2="472.9"/>
	<line class="st0" x1="299.4" y1="472.3" x2="299.7" y2="472.3"/>
	<line class="st0" x1="298.9" y1="471.8" x2="298.9" y2="471.6"/>
	<line class="st0" x1="298.4" y1="486.7" x2="298.1" y2="486.7"/>
	<line class="st0" x1="298.9" y1="487.1" x2="298.9" y2="487.4"/>
	<line class="st0" x1="299.4" y1="486.7" x2="299.7" y2="486.7"/>
	<line class="st0" x1="298.9" y1="486.3" x2="298.9" y2="486"/>
	<line class="st0" x1="298.4" y1="501.1" x2="298.1" y2="501.1"/>
	<line class="st0" x1="298.9" y1="501.5" x2="298.9" y2="501.8"/>
	<line class="st0" x1="299.4" y1="501.1" x2="299.7" y2="501.1"/>
	<line class="st0" x1="298.9" y1="500.7" x2="298.9" y2="500.4"/>
	<line class="st0" x1="298.4" y1="515.5" x2="298.1" y2="515.5"/>
	<line class="st0" x1="298.9" y1="516" x2="298.9" y2="516.2"/>
	<line class="st0" x1="299.4" y1="515.5" x2="299.7" y2="515.5"/>
	<line class="st0" x1="298.9" y1="515.1" x2="298.9" y2="514.9"/>
	<line class="st0" x1="298.4" y1="530" x2="298.1" y2="530"/>
	<line class="st0" x1="298.9" y1="530.4" x2="298.9" y2="530.6"/>
	<line class="st0" x1="299.4" y1="530" x2="299.7" y2="530"/>
	<line class="st0" x1="298.9" y1="529.5" x2="298.9" y2="529.3"/>
	<line class="st0" x1="298.4" y1="544.4" x2="298.1" y2="544.4"/>
	<line class="st0" x1="298.9" y1="544.8" x2="298.9" y2="545.1"/>
	<line class="st0" x1="299.4" y1="544.4" x2="299.7" y2="544.4"/>
	<line class="st0" x1="298.9" y1="544" x2="298.9" y2="543.7"/>
	<line class="st0" x1="298.4" y1="558.8" x2="298.1" y2="558.8"/>
	<line class="st0" x1="298.9" y1="559.2" x2="298.9" y2="559.5"/>
	<line class="st0" x1="299.4" y1="558.8" x2="299.7" y2="558.8"/>
	<line class="st0" x1="298.9" y1="558.4" x2="298.9" y2="558.1"/>
	<line class="st0" x1="298.4" y1="573.2" x2="298.1" y2="573.2"/>
	<line class="st0" x1="298.9" y1="573.7" x2="298.9" y2="573.9"/>
	<line class="st0" x1="299.4" y1="573.2" x2="299.7" y2="573.2"/>
	<line class="st0" x1="298.9" y1="572.8" x2="298.9" y2="572.6"/>
	<line class="st0" x1="298.4" y1="587.7" x2="298.1" y2="587.7"/>
	<line class="st0" x1="298.9" y1="588.1" x2="298.9" y2="588.3"/>
	<line class="st0" x1="299.4" y1="587.7" x2="299.7" y2="587.7"/>
	<line class="st0" x1="298.9" y1="587.2" x2="298.9" y2="587"/>
	<line class="st0" x1="298.4" y1="616.5" x2="298.1" y2="616.5"/>
	<line class="st0" x1="298.9" y1="616.9" x2="298.9" y2="617.2"/>
	<line class="st0" x1="299.4" y1="616.5" x2="299.7" y2="616.5"/>
	<line class="st0" x1="298.9" y1="616.1" x2="298.9" y2="615.8"/>
	<line class="st0" x1="298.4" y1="227" x2="298.1" y2="227"/>
	<line class="st0" x1="298.9" y1="227.4" x2="298.9" y2="227.7"/>
	<line class="st0" x1="299.4" y1="227" x2="299.7" y2="227"/>
	<line class="st0" x1="298.9" y1="226.6" x2="298.9" y2="226.3"/>
	<path class="st1" d="M298.9,227v-0.4 M298.9,227h0.5 M298.9,227v0.4 M298.9,227h-0.5 M298.9,616.5v-0.4 M298.9,616.5h0.5
		 M298.9,616.5v0.4 M298.9,616.5h-0.5 M298.9,587.7v-0.4 M298.9,587.7h0.5 M298.9,587.7v0.4 M298.9,587.7h-0.5 M298.9,573.3v-0.4
		 M298.9,573.3h0.5 M298.9,573.3v0.4 M298.9,573.3h-0.5 M298.9,558.8v-0.4 M298.9,558.8h0.5 M298.9,558.8v0.4 M298.9,558.8h-0.5
		 M298.9,544.4V544 M298.9,544.4h0.5 M298.9,544.4v0.4 M298.9,544.4h-0.5 M298.9,530v-0.4 M298.9,530h0.5 M298.9,530v0.4 M298.9,530
		h-0.5 M298.9,515.5v-0.4 M298.9,515.5h0.5 M298.9,515.5v0.4 M298.9,515.5h-0.5 M298.9,501.1v-0.4 M298.9,501.1h0.5 M298.9,501.1
		v0.4 M298.9,501.1h-0.5 M298.9,486.7v-0.4 M298.9,486.7h0.5 M298.9,486.7v0.4 M298.9,486.7h-0.5 M298.9,472.3v-0.4 M298.9,472.3
		h0.5 M298.9,472.3v0.4 M298.9,472.3h-0.5 M298.9,457.9v-0.4 M298.9,457.9h0.5 M298.9,457.9v0.4 M298.9,457.9h-0.5 M298.9,328v-0.4
		 M298.9,328h0.5 M298.9,328v0.4 M298.9,328h-0.5 M298.9,313.6v-0.4 M298.9,313.6h0.5 M298.9,313.6v0.4 M298.9,313.6h-0.5
		 M298.9,299.2v-0.4 M298.9,299.2h0.5 M298.9,299.2v0.4 M298.9,299.2h-0.5 M298.9,284.7v-0.4 M298.9,284.7h0.5 M298.9,284.7v0.4
		 M298.9,284.7h-0.5 M298.9,602.1v-0.4 M298.9,602.1h0.5 M298.9,602.1v0.4 M298.9,602.1h-0.5 M298.9,241.4V241 M298.9,241.4h0.5
		 M298.9,241.4v0.4 M298.9,241.4h-0.5 M298.9,255.9v-0.4 M298.9,255.9h0.5 M298.9,255.9v0.4 M298.9,255.9h-0.5 M298.9,270.3v-0.4
		 M298.9,270.3h0.5 M298.9,270.3v0.4 M298.9,270.3h-0.5 M298.9,342.5V342 M298.9,342.5h0.5 M298.9,342.5v0.4 M298.9,342.5h-0.5
		 M298.9,356.9v-0.4 M298.9,356.9h0.5 M298.9,356.9v0.4 M298.9,356.9h-0.5 M298.9,371.3v-0.4 M298.9,371.3h0.5 M298.9,371.3v0.4
		 M298.9,371.3h-0.5 M298.9,385.7v-0.4 M298.9,385.7h0.5 M298.9,385.7v0.4 M298.9,385.7h-0.5 M298.9,400.1v-0.4 M298.9,400.1h0.5
		 M298.9,400.1v0.4 M298.9,400.1h-0.5 M298.9,414.6v-0.4 M298.9,414.6h0.5 M298.9,414.6v0.4 M298.9,414.6h-0.5 M298.9,429v-0.4
		 M298.9,429h0.5 M298.9,429v0.4 M298.9,429h-0.5 M298.9,443.4V443 M298.9,443.4h0.5 M298.9,443.4v0.4 M298.9,443.4h-0.5"/>
	<path class="st1" d="M298.6,227v0.1l0.1,0.1l0.1,0.1h0.1h0.1l0.1-0.1v-0.1V227v-0.1v-0.1H299h-0.1h-0.1h-0.1L298.6,227L298.6,227
		 M298.6,616.5L298.6,616.5l0.1,0.2l0.1,0.1h0.1h0.1l0.1-0.1v-0.1v-0.1v-0.1v-0.1H299h-0.1h-0.1h-0.1L298.6,616.5L298.6,616.5
		 M298.6,587.7L298.6,587.7l0.1,0.2l0.1,0.1h0.1h0.1l0.1-0.1v-0.1v-0.1v-0.1v-0.1l-0.1-0.1h-0.1h-0.1l-0.1,0.1L298.6,587.7
		L298.6,587.7 M298.6,573.3L298.6,573.3l0.1,0.2l0.1,0.1h0.1h0.1l0.1-0.1v-0.1v-0.1v-0.1v-0.1L299,573h-0.1h-0.1l-0.1,0.1
		L298.6,573.3L298.6,573.3 M298.6,558.8L298.6,558.8l0.1,0.2l0.1,0.1h0.1h0.1l0.1-0.1v-0.1v-0.1v-0.1v-0.1l-0.1-0.1h-0.1h-0.1
		l-0.1,0.1L298.6,558.8L298.6,558.8 M298.6,544.4L298.6,544.4l0.1,0.2l0.1,0.1h0.1h0.1l0.1-0.1v-0.1v-0.1v-0.1v-0.1l-0.1-0.1h-0.1
		h-0.1l-0.1,0.1L298.6,544.4L298.6,544.4 M298.6,530L298.6,530l0.1,0.2l0.1,0.1h0.1h0.1l0.1-0.1v-0.1V530v-0.1v-0.1l-0.1-0.1h-0.1
		h-0.1l-0.1,0.1L298.6,530L298.6,530 M298.6,515.5L298.6,515.5l0.1,0.2l0.1,0.1h0.1h0.1l0.1-0.1v-0.1v-0.1v-0.1v-0.1l-0.1-0.1h-0.1
		h-0.1l-0.1,0.1L298.6,515.5L298.6,515.5 M298.6,501.1v0.1l0.1,0.1l0.1,0.1h0.1h0.1l0.1-0.1v-0.1v-0.1V501v-0.1l-0.1-0.1h-0.1h-0.1
		l-0.1,0.1L298.6,501.1L298.6,501.1 M298.6,486.7v0.1l0.1,0.1l0.1,0.1h0.1h0.1l0.1-0.1v-0.1v-0.1v-0.1v-0.1H299h-0.1h-0.1h-0.1
		L298.6,486.7L298.6,486.7 M298.6,472.3L298.6,472.3l0.1,0.2h0.1h0.1h0.1h0.1v-0.1v-0.1v-0.1v-0.1L299,472h-0.1h-0.1l-0.1,0.1
		L298.6,472.3L298.6,472.3 M298.6,457.9L298.6,457.9l0.1,0.2l0.1,0.1h0.1h0.1l0.1-0.1V458v-0.1v-0.1v-0.1l-0.1-0.1h-0.1h-0.1
		l-0.1,0.1l-0.1,0.1V457.9 M298.6,328L298.6,328l0.1,0.2l0.1,0.1h0.1h0.1l0.1-0.1v-0.1V328v-0.1v-0.1l-0.1-0.1h-0.1h-0.1l-0.1,0.1
		l-0.1,0.1V328 M298.6,313.6L298.6,313.6l0.1,0.2l0.1,0.1h0.1h0.1l0.1-0.1v-0.1v-0.1v-0.1v-0.1l-0.1-0.1h-0.1h-0.1l-0.1,0.1
		L298.6,313.6L298.6,313.6 M298.6,299.2L298.6,299.2l0.1,0.2l0.1,0.1h0.1h0.1l0.1-0.1v-0.1v-0.1v-0.1V299l-0.1-0.1h-0.1h-0.1
		l-0.1,0.1L298.6,299.2L298.6,299.2 M298.6,284.7L298.6,284.7l0.1,0.2l0.1,0.1h0.1h0.1l0.1-0.1v-0.1v-0.1v-0.1v-0.1l-0.1-0.1h-0.1
		h-0.1l-0.1,0.1L298.6,284.7L298.6,284.7 M298.6,602.1L298.6,602.1l0.1,0.2h0.1h0.1h0.1h0.1v-0.1v-0.1V602v-0.1l-0.1-0.1h-0.1h-0.1
		l-0.1,0.1L298.6,602.1L298.6,602.1 M298.6,241.4v0.1l0.1,0.1l0.1,0.1h0.1h0.1l0.1-0.1v-0.1v-0.1v-0.1v-0.1l-0.1-0.1h-0.1h-0.1
		l-0.1,0.1L298.6,241.4L298.6,241.4 M298.6,255.9L298.6,255.9l0.1,0.2l0.1,0.1h0.1h0.1l0.1-0.1V256v-0.1v-0.1v-0.1l-0.1-0.1h-0.1
		h-0.1l-0.1,0.1L298.6,255.9L298.6,255.9 M298.6,270.3L298.6,270.3l0.1,0.2l0.1,0.1h0.1h0.1l0.1-0.1v-0.1v-0.1v-0.1v-0.1L299,270
		h-0.1h-0.1l-0.1,0.1L298.6,270.3L298.6,270.3 M298.6,342.5L298.6,342.5l0.1,0.2h0.1h0.1h0.1h0.1v-0.1v-0.1v-0.1v-0.1l-0.1-0.1h-0.1
		h-0.1l-0.1,0.1l-0.1,0.1V342.5 M298.6,356.9v0.1l0.1,0.1l0.1,0.1h0.1h0.1l0.1-0.1V357v-0.1v-0.1v-0.1H299h-0.1h-0.1h-0.1
		L298.6,356.9L298.6,356.9 M298.6,371.3v0.1l0.1,0.1l0.1,0.1h0.1h0.1l0.1-0.1v-0.1v-0.1v-0.1v-0.1L299,371h-0.1h-0.1l-0.1,0.1
		L298.6,371.3L298.6,371.3 M298.6,385.7L298.6,385.7l0.1,0.2l0.1,0.1h0.1h0.1l0.1-0.1v-0.1v-0.1v-0.1v-0.1l-0.1-0.1h-0.1h-0.1
		l-0.1,0.1L298.6,385.7L298.6,385.7 M298.6,400.1L298.6,400.1l0.1,0.2l0.1,0.1h0.1h0.1l0.1-0.1v-0.1v-0.1V400v-0.1l-0.1-0.1h-0.1
		h-0.1l-0.1,0.1L298.6,400.1L298.6,400.1 M298.6,414.6L298.6,414.6l0.1,0.2l0.1,0.1h0.1h0.1l0.1-0.1v-0.1v-0.1v-0.1v-0.1l-0.1-0.1
		h-0.1h-0.1l-0.1,0.1L298.6,414.6L298.6,414.6 M298.6,429L298.6,429l0.1,0.2l0.1,0.1h0.1h0.1l0.1-0.1v-0.1V429v-0.1v-0.1l-0.1-0.1
		h-0.1h-0.1l-0.1,0.1L298.6,429L298.6,429 M298.6,443.4L298.6,443.4l0.1,0.2l0.1,0.1h0.1h0.1l0.1-0.1v-0.1v-0.1v-0.1v-0.1l-0.1-0.1
		h-0.1h-0.1l-0.1,0.1L298.6,443.4L298.6,443.4 M300.3,218.1h-4.1 M296.2,625.4V218.1 M300.3,625.4h-4.1 M300.3,625.4V218.1"/>
</g>
</svg>
