<?xml version="1.0" encoding="utf-8"?>
<!-- Generator: Adobe Illustrator 22.0.1, SVG Export Plug-In . SVG Version: 6.00 Build 0)  -->
<svg version="1.1" id="Layer_1" xmlns="http://www.w3.org/2000/svg" xmlns:xlink="http://www.w3.org/1999/xlink" x="0px" y="0px"
	 viewBox="0 0 595.3 841.9" style="enable-background:new 0 0 595.3 841.9;" xml:space="preserve">
<style type="text/css">
	.st0{fill:none;stroke:#010101;stroke-width:0.5128;stroke-linecap:round;stroke-linejoin:round;stroke-miterlimit:10;}
	.st1{fill:#010101;}
	.st2{font-family:'MyriadPro-Regular';}
	.st3{font-size:12px;}
</style>
<g>
	<path class="st0" d="M105.1,459.6l-0.1,0.1 M338,477.6l-0.6-0.1 M332.1,494.9h-0.1 M337.8,477.8l-0.3-0.1 M105.6,460.4L105.6,460.4
		 M333.9,488.5l-0.7,0.7 M338,449l-0.6-0.1 M337.8,449.1h-0.3 M338,420.4l-0.6-0.1 M337.8,420.6l-0.3-0.1 M105.7,384.1v-0.1
		 M105.7,459.8v-0.1 M105.9,459.8h-0.1 M147.4,370.7L147.4,370.7l0.1-0.1 M146.9,367.3L146.9,367.3L146.9,367.3l-0.1-0.1v-0.1
		l-0.1-0.1v-0.1 M146.7,366.8v-1.5 M146.7,366.8l0.6,0.1 M146.4,371.6l1.1-0.9 M148,370.7l-0.6-0.1 M146.7,365.3v-0.4v-0.1
		 M146.7,365.3l0.6,0.1 M147.4,345.6L147.4,345.6l0.1-0.1 M377,432.4L377,432.4h0.1 M376.4,429L376.4,429L376.4,429l-0.1-0.1v-0.1
		l-0.1-0.1v-0.1 M376.3,427.1v1.5 M376.3,428.6l0.6,0.1 M377,432.4l-1.1,0.9 M377.6,432.5l-0.6-0.1 M376.2,426.5l0.1,0.1v0.4
		 M376.3,427.1l0.6,0.1 M377,399.6L377,399.6l0.1-0.1 M376.4,396.2L376.4,396.2L376.4,396.2l-0.1-0.1V396l-0.1-0.1v-0.1
		 M376.3,394.2v1.5 M376.3,395.8l0.6,0.1 M377,399.6l-1.1,0.9 M377.6,399.7l-0.6-0.1 M376.2,393.7l0.1,0.1v0.4 M376.3,394.2l0.6,0.1
		 M104.4,459.6v0.2l0.1,0.2l0.1,0.3l0.2,0.1l0.1,0.2l0.2,0.1l0.2,0.1l0.3,0.1 M105,459.7L105,459.7v0.2l0.1,0.1l0.1,0.1l0.1,0.1
		l0.1,0.1l0.1,0.1h0.1 M107.2,461.2L107.2,461.2 M105.6,461l1.6,0.2 M105.6,460.4v0.6 M107.2,461.2v-0.5 M377,374.5L377,374.5
		l0.1-0.1 M104.8,383.2l42.6-37.6 M148,345.6l-0.6-0.1 M104.4,459.6v-74.9 M105,459.7l-0.6-0.1 M104.4,384.7v-0.2v-0.3l0.1-0.2v-0.2
		l0.1-0.2l0.1-0.1l0.1-0.1l0.1-0.1 M105,384.8l-0.6-0.1 M104.8,383.2l0.6,0.1 M148.5,371.5v18 M148.5,371.5v-0.2l-0.1-0.2V371
		l-0.1-0.1l-0.1-0.1l-0.1-0.1l-0.1,0.1H148 M146.4,372.2l1.7-1.4 M146.4,366.2v6 M147.3,365.4V365l-0.1-0.3l-0.1-0.1l-0.1-0.1
		l-0.1,0.1l-0.1,0.3l-0.1,0.4l-0.1,0.4l-0.1,0.4 M147.3,366.9v-1.5 M147.3,366.9v0.1l0.1,0.1v0.1v0.1l0.1,0.1h0.1 M148,366.9
		l-0.5,0.4 M148,366.9l0.1-0.1l0.1-0.1l0.1-0.2l0.1-0.2l0.1-0.2v-0.2l0.1-0.2v-0.3 M148.5,346.4v18.9 M148.5,346.4v-0.2l-0.1-0.2
		v-0.1l-0.1-0.1l-0.1-0.1l-0.1-0.1h-0.1l-0.1,0.1 M105.4,383.3l42.6-37.6 M105.4,383.3l-0.1,0.1l-0.1,0.1l-0.1,0.1l-0.1,0.2v0.2
		l-0.1,0.2v0.3v0.2 M105,459.7v-74.9 M332.6,494.9L332.6,494.9l-0.1,0.1 M337.8,475.6L337.8,475.6v0.5v0.4l-0.1,0.4l-0.1,0.4
		l-0.1,0.2 M332.5,495.1l-0.4,0.4 M332.5,495.1v-0.6 M332.5,494.5l-0.4,0.4 M332.5,494.5L332.5,494.5l0.1-0.1l-0.1-0.1l-0.1-0.1
		l-0.1-0.1l-0.2-0.1L332,494h-0.1 M332.1,494.9v0.6 M331.9,494.4v0.1v0.1v0.1l0.1,0.1l0.1,0.1l0.1-0.1 M107.6,467.2L107.6,467.2
		h-0.1l-0.1-0.1l-0.1-0.1v-0.1l-0.1-0.2v-0.2 M331.6,494.6v0.2v0.2l0.1,0.1l0.1,0.1l0.1,0.1l0.1,0.1h0.1l0.1-0.1 M107.2,466.4v-4.5
		 M107.2,466.4l224.4,28.3 M331.9,494.4l-0.2,0.2 M331.9,489.9v4.5 M331.6,490.1v4.5 M331.9,489.5L331.9,489.5v0.2v0.1v0.1
		 M331.9,489.9l-0.2,0.2 M107.3,461.1l0.1-0.1v-0.1l0.1-0.1 M107.2,461.9L107.2,461.9v-0.1v-0.1l0.1-0.1v-0.1v-0.1v-0.1v-0.1
		 M331.6,490.1l-224.4-28.3 M331.6,489.5L331.6,489.5L331.6,489.5v0.2v0.1v0.1v0.1v0.1v0.1 M331.6,489.5V489 M331.6,489.5l1.6,0.2
		 M105.6,460.4L105.6,460.4 M333.2,489.1L333.2,489.1 M333.2,489.1h0.1l0.1-0.1h0.1l0.1-0.1l0.1-0.1l0.1-0.1v-0.1v-0.1 M333.2,489.1
		v0.6 M378,450.2l-0.1,0.2l-0.1,0.3l-0.1,0.1l-0.1,0.2 M333.2,489.7h0.3l0.2-0.1l0.2-0.1l0.1-0.1l0.2-0.1l0.1-0.2l0.1-0.2v-0.3
		 M337.8,447L337.8,447v0.4v0.4l-0.1,0.4l-0.1,0.4l-0.1,0.2 M337.8,418.4L337.8,418.4v0.4v0.4l-0.1,0.4l-0.1,0.4l-0.1,0.2
		 M377,374.5L334.4,412 M377.6,374.6l-0.6-0.1 M333.9,413.6v74.9 M333.9,488.5l0.6,0.1 M337.8,418.4l0.2-0.1 M338,418.3l0.1-0.1
		l0.1,0.1l0.1,0.2v0.4v0.4l-0.1,0.4l-0.1,0.4l-0.1,0.2 M338,420.4l-0.2,0.2 M337.8,420.6h-0.1l-0.1-0.1l-0.1-0.3l-0.1-0.4l0.1-0.4
		l0.1-0.4l0.1-0.4l0.1-0.2 M337.8,447l0.2-0.2 M338,446.8l0.1-0.1l0.1,0.1l0.1,0.3v0.4v0.4l-0.1,0.4l-0.1,0.4L338,449 M338,449
		l-0.2,0.1 M337.8,449.1l-0.1,0.1l-0.1-0.1l-0.1-0.2l-0.1-0.4l0.1-0.4l0.1-0.4l0.1-0.4l0.1-0.2 M337.8,475.6l0.2-0.1 M338,475.5
		l0.1-0.1l0.1,0.1l0.1,0.2v0.4v0.4l-0.1,0.4l-0.1,0.4l-0.1,0.2 M338,477.6l-0.2,0.2 M337.8,477.8l-0.1,0.1l-0.1-0.1l-0.1-0.3
		l-0.1-0.4l0.1-0.4l0.1-0.4l0.1-0.4l0.1-0.2 M376.9,428.7v-1.5 M376.9,428.7v0.1v0.1l0.1,0.1v0.1l0.1,0.1h0.1 M377.6,428.7l-0.5,0.4
		 M377.6,428.7L377.6,428.7l0.1-0.2l0.1-0.2l0.1-0.1l0.1-0.3v-0.2l0.1-0.2v-0.2 M378,427.2v-26.7 M378,400.5v-0.2l-0.1-0.2v-0.1
		l-0.1-0.1l-0.1-0.1l-0.1-0.1h-0.1l-0.1,0.1 M375.9,401.1l1.7-1.4 M375.9,395.1v6 M376.9,394.3v-0.4l-0.1-0.3l-0.1-0.1l-0.1-0.1
		l-0.1,0.1l-0.2,0.3l-0.1,0.4l-0.1,0.4l-0.1,0.4 M376.9,395.8v-1.5 M376.9,395.8v0.1v0.1l0.1,0.1v0.1l0.1,0.1h0.1v-0.1 M377.6,395.8
		l-0.5,0.4 M377.6,395.8l0.1-0.1l0.1-0.1l0.1-0.1l0.1-0.2l0.1-0.2v-0.2l0.1-0.2v-0.3 M378,394.2v-18.9 M378,375.3v-0.2l-0.1-0.1
		v-0.2l-0.1-0.1l-0.1-0.1h-0.1h-0.1l-0.1,0.1 M377.6,374.6l-42.7,37.5 M334.5,413.7v74.9 M378,450.2l-43.5,38.3 M378,450.2v-16.9
		 M378,433.3v-0.2l-0.1-0.2v-0.1l-0.1-0.1l-0.1-0.1h-0.1h-0.1h-0.1 M375.9,434l1.7-1.4 M375.9,428v6 M376.9,427.2v-0.4l-0.1-0.3
		l-0.1-0.1h-0.1l-0.1,0.1l-0.2,0.3l-0.1,0.4l-0.1,0.4l-0.1,0.4 M334.9,412.1l-0.1,0.1l-0.1,0.1l-0.1,0.1l-0.1,0.2l-0.1,0.2v0.2v0.3
		l-0.1,0.2 M334.4,412l0.5,0.1 M333.9,413.6l0.1-0.2v-0.3l0.1-0.2v-0.2l0.1-0.2l0.1-0.1l0.1-0.1l0.1-0.1 M334.5,413.7l-0.6-0.1
		 M105.7,460.3v-0.4 M105.3,459.8l0.4,0.1 M111.9,377.8l-6.8,6 M111.9,377.8l0.6,0.1 M105.7,459.8l0.2-0.1 M112.5,385v-7.1
		 M112.5,377.9l-6.8,6 M105.7,383.9L105.7,383.9L105.7,383.9v0.1l0.1,0.1h0.1l0.1,0.1h0.1 M105.7,383.9l-0.6-0.1 M105.1,383.8
		L105.1,383.8l-0.1,0.1v0.1l0.1,0.1l0.1,0.1h0.2l0.2,0.1l0.2,0.1 M105.9,459.7l-0.4,0.1h-0.3h-0.1 M333.7,488.6l-0.6,0.5
		 M105.7,459.8l0.2-0.1 M105.7,460.5L105.7,460.5l0.1-0.3l0.1-0.4l0.1-0.1 M333.2,489.1v-0.6 M332,488.2l0.2,0.4l0.2,0.3l0.3,0.2
		h0.3l0.1-0.1 M337.4,419.9L337.4,419.9l0.1-0.5v-0.4 M337.5,418.9L337.5,418.9 M337.4,448.5l0.1-0.1l0.1-0.4v-0.4 M337.5,447.6
		L337.5,447.6 M337.4,477.1l0.1-0.3l0.1-0.4v-0.2 M333.7,488.6l0.1-0.1 M333.2,412.5l6.8-6 M333.7,412.6l0.7-0.6 M340.5,406.6
		l-0.6-0.1 M105.9,384.4v75.3 M105.9,459.7L332,488.2 M332.2,412.7l-226.1-28.5 M106.1,384.2l-0.2,0.2 M332,412.9l-226.1-28.5
		 M332,488.2v-75.3 M333.7,488.6h-0.3l-0.4-0.1l-0.4-0.1l-0.4-0.1l-0.2-0.1 M333.7,488.6v-75.9 M333.2,412.5l0.6,0.1 M332.2,412.7
		h0.1h0.1h0.1h0.1h0.1l0.1-0.1h0.1l0.1-0.1 M332.2,412.7l-0.2,0.2 M332,412.9h0.3h0.2h0.3l0.2-0.1h0.2l0.2-0.1l0.1-0.1l0.1-0.1
		 M148.2,370.7l-0.6-0.1 M146.9,367.3l0.6,0.1 M148.2,345.6l-0.6-0.1 M377.7,432.5l-0.6-0.1 M376.4,429l0.6,0.1 M377.7,399.6
		l-0.6-0.1 M376.4,396.2l0.6,0.1 M377.7,374.5l-0.6-0.1 M332.6,494.9v-0.6 M107.6,467.2l224.3,28.3 M334.1,489.4l43.5-38.3
		 M105.1,384v75.8 M105.7,460.5l227.1,28.6"/>
</g>
<text transform="matrix(1 0 0 1 389.6355 461.8712)" class="st1 st2 st3">ALPHA_60x20_PLA</text>
</svg>
