<?xml version="1.0" encoding="utf-8"?>
<!-- Generator: Adobe Illustrator 22.0.1, SVG Export Plug-In . SVG Version: 6.00 Build 0)  -->
<svg version="1.1" id="Layer_1" xmlns="http://www.w3.org/2000/svg" xmlns:xlink="http://www.w3.org/1999/xlink" x="0px" y="0px"
	 viewBox="0 0 595.3 841.9" style="enable-background:new 0 0 595.3 841.9;" xml:space="preserve">
<style type="text/css">
	.st0{fill:none;stroke:#010101;stroke-width:0.5;stroke-linecap:round;stroke-linejoin:round;stroke-miterlimit:10;}
	.st1{font-family:'MyriadPro-Regular';}
	.st2{font-size:12px;}
</style>
<g>
	<path class="st0" d="M484.9,430.9l0.8,0.1 M485,429.5l0.7,0.1 M484.9,402.1l0.8,0.1 M485,400.8l0.7,0.1 M433.5,444.8l-10.9-1.3
		 M173,425.1l-31.1,27.4 M137.9,452v-31.4 M141.9,452.5l-4-0.5 M141.9,452.5v-31.4 M433.5,433.9v55.4 M433.5,489.3l1.5,0.1
		 M435,496.1l0.3-0.3 M137.9,452l-2.5,2.3 M135.3,458.4L435,496.1 M435,492v4 M135.3,454.3L435,492 M135.3,454.3v4 M409.7,454.9
		l25.3-22.4 M485.7,383.8v0.3 M409.7,454.9L110,417.1 M409.7,454.9v-4 M110,417.1v-4 M186,346.1l-76,67 M110,413.1l299.7,37.8
		 M409.7,450.9l76-67.1 M485.7,383.8L186,346.1 M485.5,434.1L485.5,434.1l-0.1,0.1 M485.3,434.1l-0.4,0.4 M485.3,434.1l0.9,0.1
		 M485.5,405.4L485.5,405.4l-0.1,0.1 M485.3,405.4l-0.4,0.4 M485.3,405.4l0.9,0.1 M485.5,384.1L485.5,384.1l-0.1,0.1 M435,495.1v0.2
		v0.2l0.1,0.1l0.1,0.1v0.1l0.1,0.1 M485.3,384.1l-49.9,44.1 M485.3,384.1l0.9,0.1 M435,429.5v65.5 M435,495.1l1,0.1 M440,489.6v-0.2
		l-0.1-0.1l-0.1-0.1h-0.1l-0.1,0.1l-0.1,0.2l-0.1,0.2v0.3v0.2l0.1,0.1l0.1,0.1l0.1-0.1l0.1-0.1l0.1-0.2l0.1-0.2V489.6 M440,428.1
		v-0.2l-0.1-0.1l-0.1-0.1l-0.1,0.1l-0.1,0.1l-0.1,0.2l-0.1,0.2v0.3v0.2l0.1,0.1l0.1,0.1h0.1l0.1-0.1l0.1-0.2l0.1-0.2V428.1
		 M483.6,451.2l-0.1-0.2v-0.1l-0.1-0.1h-0.1l-0.1,0.1l-0.1,0.2l-0.1,0.2v0.3v0.2l0.1,0.1l0.1,0.1l0.1-0.1l0.1-0.1l0.1-0.2v-0.3
		L483.6,451.2 M483.6,389.7l-0.1-0.2v-0.1l-0.1-0.1h-0.1l-0.1,0.1l-0.1,0.2l-0.1,0.2v0.3v0.2l0.1,0.1l0.1,0.1h0.1l0.1-0.1l0.1-0.2
		V390L483.6,389.7 M468.6,464.4v-0.2l-0.1-0.1l-0.1-0.1l-0.1,0.1l-0.1,0.1l-0.1,0.2l-0.1,0.3v0.2v0.2l0.1,0.1l0.1,0.1h0.1l0.1-0.1
		l0.1-0.2l0.1-0.2V464.4 M455,476.4l-0.1-0.2V476l-0.1-0.1l-0.1,0.1l-0.1,0.1l-0.1,0.1l-0.1,0.3v0.2v0.2l0.1,0.1l0.1,0.1h0.1
		l0.1-0.1l0.1-0.2v-0.2L455,476.4 M455,414.9l-0.1-0.2v-0.1l-0.1-0.1h-0.1l-0.1,0.1l-0.1,0.2l-0.1,0.2v0.2v0.3l0.1,0.1l0.1,0.1
		l0.1-0.1l0.1-0.1l0.1-0.1v-0.3L455,414.9 M468.6,403v-0.2l-0.1-0.2l-0.1-0.1l-0.1,0.1l-0.1,0.1l-0.1,0.1l-0.1,0.3v0.2v0.2l0.1,0.2
		h0.1h0.1l0.1-0.1l0.1-0.1l0.1-0.3V403 M436,429.7v65.5 M436,495.2v0.2v0.2l0.1,0.1v0.1l0.1,0.1l0.1,0.1l0.1-0.1h0.1 M436.4,495.9
		l49.9-44.1 M486.3,451.8l0.1-0.1l0.1-0.1l0.1-0.1l0.1-0.2v-0.2l0.1-0.3v-0.2v-0.2 M486.7,450.5V435 M486.7,435v-0.2v-0.2l-0.1-0.1
		v-0.1l-0.1-0.1h-0.1h-0.1h-0.1 M486.3,434.3l-1.4,1.3 M484.9,435.5v-5.2 M484.9,430.3v-0.4l0.1-0.4l0.1-0.4l0.1-0.3l0.2-0.1h0.1
		l0.1,0.1l0.1,0.3v0.4 M485.7,429.6v1.3 M485.7,430.9v0.1v0.1v0.1l0.1,0.1v0.1h0.1h0.1 M485.9,431.3l0.4-0.4 M486.3,430.9l0.1-0.1
		l0.1-0.1l0.1-0.2l0.1-0.2v-0.2l0.1-0.2v-0.2v-0.2 M486.7,429.6v-23.3 M486.7,406.3v-0.2v-0.2l-0.1-0.1v-0.1l-0.1-0.1l-0.1-0.1h-0.1
		l-0.1,0.1 M486.3,405.6l-1.4,1.3 M484.9,406.8v-5.2 M484.9,401.6v-0.4l0.1-0.4l0.1-0.4l0.1-0.3l0.2-0.1h0.1l0.1,0.2l0.1,0.3v0.4
		 M485.7,400.9v1.3 M485.7,402.2L485.7,402.2v0.2v0.1l0.1,0.1l0.1,0.1l0.1-0.1 M485.9,402.5l0.4-0.3 M486.3,402.2l0.1-0.1l0.1-0.1
		l0.1-0.1l0.1-0.2v-0.2l0.1-0.2V401v-0.2 M486.7,400.8V385 M486.7,385v-0.2v-0.2l-0.1-0.1v-0.1l-0.1-0.1l-0.1-0.1l-0.1,0.1h-0.1
		 M486.3,384.3l-49.9,44.1 M436.4,428.3L436.4,428.3l-0.2,0.2l-0.1,0.1l-0.1,0.2v0.2l-0.1,0.3v0.2v0.2 M435.4,428.2l1,0.1
		 M435.4,428.2L435.4,428.2l-0.1,0.2l-0.1,0.1v0.2l-0.1,0.2l-0.1,0.3v0.2v0.2 M435,429.5l1,0.1 M184.8,346.2L184.8,346.2l-0.1,0.1
		 M134.3,457.2v0.2v0.1l0.1,0.2l0.1,0.1l0.1,0.1h0.1 M184.6,346.3l-49.9,44 M184.6,346.3l1,0.1 M134.3,420.2v37 M134.3,457.2l1,0.1
		 M134.7,390.3l1,0.1 M134.7,390.3l-0.1,0.1l-0.1,0.1l-0.1,0.1l-0.1,0.2l-0.1,0.2l-0.1,0.2v0.3v0.2 M135.3,420.4v37 M185.6,346.4
		l-49.9,44 M486.5,434.2l-1-0.1 M484.9,431.2l0.9,0.1 M486.5,405.5l-1-0.1 M484.9,402.5l0.9,0.1 M486.5,384.2l-1-0.1 M435.3,495.8
		l1,0.1 M185.7,346.3l-0.9-0.1 M134.6,457.9l0.8,0.1"/>
</g>
<text transform="matrix(1 0 0 1 240.0291 293.6666)"><tspan x="0" y="0" class="st1 st2">ALPHA_900_STU</tspan><tspan x="84.7" y="0" class="st1 st2">D</tspan><tspan x="92.3" y="0" class="st1 st2">Y</tspan></text>
</svg>
