<?xml version="1.0" encoding="utf-8"?>
<!-- Generator: Adobe Illustrator 22.0.1, SVG Export Plug-In . SVG Version: 6.00 Build 0)  -->
<svg version="1.1" id="Layer_1" xmlns="http://www.w3.org/2000/svg" xmlns:xlink="http://www.w3.org/1999/xlink" x="0px" y="0px"
	 viewBox="0 0 595.3 841.9" style="enable-background:new 0 0 595.3 841.9;" xml:space="preserve">
<style type="text/css">
	.st0{fill:none;stroke:#010101;stroke-width:0.5;stroke-linecap:round;stroke-linejoin:round;stroke-miterlimit:10;}
	.st1{font-family:'MyriadPro-Regular';}
	.st2{font-size:12px;}
</style>
<g>
	<path class="st0" d="M417.9,445.7l0.6,0.1 M418,444.7l0.5,0.1 M417.9,425.9l0.6,0.1 M418,425l0.5,0 M417.9,406.1l0.6,0 M418,405.2
		l0.5,0 M417.9,386.3l0.6,0.1 M418,385.3l0.5,0.1 M281.7,477.2l24.2-21.4 M305.9,455.3l-24.2,21.4 M281.5,478.3L281.5,478.3
		 M281.5,394.7L281.5,394.7 M418.3,447.9L418.3,447.9L418.3,447.9 M418.2,448l-0.3,0.3 M418.2,448l0.7,0.1 M418.3,428.1L418.3,428.1
		L418.3,428.1 M418.2,428.2l-0.3,0.3 M418.2,428.2l0.7,0.1 M418.3,408.3L418.3,408.3L418.3,408.3 M418.2,408.3l-0.3,0.3
		 M418.2,408.3l0.7,0.1 M418.3,388.5L418.3,388.5L418.3,388.5 M418.2,388.6l-0.3,0.3 M418.2,388.6l0.7,0.1 M418.3,372.7L418.3,372.7
		L418.3,372.7 M383.5,495.8v0.1v0.1l0,0.1v0.1l0,0l0,0 M418.2,372.7l-34.4,30.3 M418.2,372.7l0.7,0.1 M383.5,404v91.8 M383.5,495.8
		l0.7,0.1 M383.8,403.1l0.7,0.1 M383.8,403.1L383.8,403.1l-0.1,0.1l0,0.1l0,0.1v0.1l0,0.1v0.1v0.1 M383.5,404l0.7,0.1 M387,476.7
		v-0.1l0-0.1l0,0h0l-0.1,0.1l0,0.1v0.1l0,0.1l0,0.1v0.1l0,0l0.1,0l0-0.1l0-0.1l0-0.2V476.7 M387,447.6v-0.1l0-0.1l0,0l0,0l-0.1,0.1
		l0,0.1v0.2l0,0.1l0,0.1v0.1l0,0h0.1l0-0.1l0-0.1l0-0.1V447.6 M387,418.4v-0.1l0-0.1l0,0l0,0l-0.1,0l0,0.1v0.2l0,0.1l0,0.1v0.1l0,0
		h0.1l0-0.1l0-0.1l0-0.1V418.4 M387,492v-0.1l0-0.1l0,0l0,0l-0.1,0.1l0,0.1v0.2l0,0.1l0,0.1v0.1l0,0h0.1l0-0.1l0-0.1l0-0.1V492
		 M387,403.1v-0.1l0-0.1h0h0l-0.1,0.1l0,0.1v0.2l0,0.1l0,0.1v0.1h0h0.1l0-0.1l0-0.1l0-0.2V403.1 M417,465.5v-0.1l0-0.1l0,0l0,0l0,0
		l0,0.1l0,0.2v0.1v0.1l0,0.1l0,0h0l0-0.1l0-0.1l0-0.1V465.5 M417,391.9v-0.1l0-0.1l0,0l0,0l0,0l0,0.1l0,0.2v0.1v0.1l0,0.1l0,0h0
		l0-0.1l0-0.1l0-0.1V391.9 M417,421v-0.1l0-0.1l0,0l0,0l0,0.1l0,0.1l0,0.2v0.1v0.1l0,0.1l0,0h0l0-0.1l0-0.1l0-0.1V421 M417,450.2
		v-0.1l0-0.1l0,0l0,0l0,0.1l0,0.1l0,0.2v0.1v0.1l0,0.1h0h0l0-0.1l0-0.1l0-0.2V450.2 M417,376.6v-0.1l0-0.1l0,0l0,0l0,0.1l0,0.1
		l0,0.2v0.1v0.1l0,0.1l0,0h0l0-0.1l0-0.1l0-0.1V376.6 M406.7,474.7v-0.1l0-0.1l0,0h0l-0.1,0.1l0,0.1v0.1l0,0.2l0,0.1v0.1l0,0l0.1,0
		l0,0l0-0.1l0-0.2V474.7 M397.3,482.9v-0.1l0-0.1l0,0h0l0,0.1l0,0.1l0,0.1v0.2v0.1l0,0.1l0,0l0,0l0,0l0-0.1l0-0.1V482.9
		 M397.3,393.9v-0.1l0-0.1l0,0h0l0,0.1l0,0.1l0,0.1v0.2v0.1l0,0.1l0,0h0l0-0.1l0-0.1l0-0.1V393.9 M406.7,385.7v-0.1l0-0.1l0,0h0
		l-0.1,0.1l0,0.1v0.1l0,0.2l0,0.1v0.1l0,0l0.1,0l0,0l0-0.1l0-0.1V385.7 M384.5,403.2L384.5,403.2l-0.1,0.1l0,0.1l0,0.1l0,0.1v0.1
		v0.1l0,0.1 M384.2,404.1v91.8 M384.2,495.9l0,0.1v0.1v0.1l0,0.1l0,0l0,0h0l0,0 M384.5,496.3l34.4-30.3 M418.9,466L418.9,466
		l0.1-0.2l0.1-0.1v-0.1l0-0.1l0-0.1v-0.1V465 M419.1,465v-16.5 M419.1,448.5v-0.1v-0.1l0-0.1l0-0.1v0l-0.1,0h0l0,0 M418.9,448.1
		l-1,0.9 M417.9,448.9v-3.6 M417.9,445.3V445l0-0.3l0.1-0.3l0.1-0.2l0.1-0.1h0.1l0.1,0.1l0,0.2l0,0.3 M418.5,444.8v0.9 M418.5,445.7
		L418.5,445.7v0.1v0l0,0v0h0l0,0 M418.6,446l0.3-0.2 M418.9,445.7L418.9,445.7l0.1-0.2l0.1-0.1v-0.1l0-0.1l0-0.1V445v-0.2
		 M419.1,444.8v-16 M419.1,428.7v-0.2v-0.1l0-0.1l0,0v0l-0.1,0h0l0,0 M418.9,428.3l-1,0.9 M417.9,429.1v-3.6 M417.9,425.5v-0.3
		l0-0.3l0.1-0.2l0.1-0.2l0.1-0.1h0.1l0.1,0.1l0,0.2l0,0.2 M418.5,425v1 M418.5,426L418.5,426v0.1v0l0,0h0h0 M418.6,426.2l0.3-0.3
		 M418.9,425.9L418.9,425.9l0.1-0.1l0.1-0.1v-0.1l0-0.1l0-0.1v-0.2V425 M419.1,425v-16.1 M419.1,408.9v-0.1v-0.1l0-0.1l0-0.1v0H419
		h0h0 M418.9,408.4l-1,0.9 M417.9,409.3v-3.6 M417.9,405.7v-0.3l0-0.3l0.1-0.2l0.1-0.2l0.1-0.1h0.1l0.1,0.1l0,0.2l0,0.3
		 M418.5,405.2v0.9 M418.5,406.1L418.5,406.1v0.1v0l0,0v0h0h0 M418.6,406.4l0.3-0.3 M418.9,406.1L418.9,406.1l0.1-0.1l0.1-0.1v-0.1
		l0-0.2l0-0.1v-0.1v-0.1 M419.1,405.2v-16.1 M419.1,389.1V389v-0.1l0-0.1l0-0.1v0l-0.1,0h0l0,0 M418.9,388.7l-1,0.9 M417.9,389.5
		v-3.6 M417.9,385.9v-0.3l0-0.3l0.1-0.3l0.1-0.2l0.1-0.1h0.1l0.1,0.1l0,0.2l0,0.3 M418.5,385.4v0.9 M418.5,386.3L418.5,386.3v0.1v0
		l0,0v0h0l0,0 M418.6,386.6l0.3-0.2 M418.9,386.3L418.9,386.3l0.1-0.2l0.1-0.1v-0.1l0-0.1l0-0.1v-0.1v-0.2 M419.1,385.4v-12.1
		 M419.1,373.3v-0.1v-0.1l0-0.1l0,0v-0.1H419h0l0,0 M418.9,372.8l-34.4,30.3 M211,346.6L211,346.6L211,346.6 M176.2,469.7v0.1v0.1
		l0,0.1v0.1l0,0l0,0 M210.9,346.6L176.5,377 M210.9,346.6l0.7,0.1 M176.2,377.9v91.8 M176.2,469.7l0.7,0.1 M176.9,378v91.8
		 M211.6,346.7l-34.4,30.4 M176.5,377l0.7,0.1 M176.5,377L176.5,377l-0.1,0.1l0,0.1l0,0.1v0.1l0,0.2v0.1v0.1 M176.2,377.9l0.7,0.1
		 M382.5,407.4v83 M382.5,490.4l1,0.1 M210.8,439.2l0.3-0.3 M203.9,445.3l1.5-1.3 M196.9,451.4l1.5-1.3 M190,457.6l1.5-1.4
		 M183,463.7l1.5-1.3 M211.1,397.6v-2 M211.1,411.6v-1.9 M211.1,425.6v-2 M211.1,438.9v-1.3 M266.1,445.8l2.1,0.3 M252.2,444
		l2.1,0.3 M238.3,442.3l2.1,0.3 M224.5,440.6l2.1,0.3 M211.1,438.9l1.6,0.2 M176.9,466.3v4.2 M176.9,470.5l206.6,26 M383.5,492.3
		l-206.6-26 M177.3,465.9l-0.4,0.4 M383.5,496.5v-4.2 M383.7,496.3l-0.2,0.2 M418.4,372.7v-0.2 M176.9,381.5v-4.2 M176.9,381.5
		l206.6,26.1 M383.5,407.5v-4.2 M211.8,346.5l-34.9,30.8 M176.9,377.3l206.6,26 M383.5,403.3l34.9-30.8 M418.4,372.5l-206.6-26
		 M298.7,464.5L298.7,464.5l-0.3,0h-0.2l-0.3,0h-0.1 M286.1,475.7L286.1,475.7l-0.3,0h-0.3h-0.2l-0.1,0 M305.9,460.2l-20,17.7
		 M285.2,478l-3.5-0.4 M285.9,477.9L285.9,477.9l-0.1,0l0,0h-0.1h-0.1h-0.1h-0.1h-0.1 M285.9,477.6v0.3 M285.2,478v-0.3 M285,475.5
		L285,475.5v0.2l0.1,0l0.2,0l0.2,0h0.3l0.2,0l0.2-0.1l0.1,0v-0.1l-0.1-0.1l-0.2,0l-0.2,0h-0.3h-0.2l-0.2,0L285,475.5 M297.7,464.3
		L297.7,464.3v0.1l0.1,0.1l0.2,0l0.3,0l0.3,0l0.2,0l0.2,0l0.1-0.1v-0.1l-0.1,0l-0.1-0.1l-0.3,0h-0.2l-0.3,0l-0.2,0L297.7,464.3
		 M285.2,477.7l-3.5-0.4 M285.2,477.7L285.2,477.7h0.2h0.1h0.1h0.1l0,0l0.1,0h0 M305.9,459.9l-20,17.7 M177.1,465.8v-0.3
		 M183.1,462.2L183.1,462.2l-0.2,0.3l-0.1,0.3v0.3l0.1,0.3l0.2,0.3l0.2,0.2l0.3,0.2l0.3,0.1h0.3l0.3,0l0.2-0.1 M183.1,448.2
		L183.1,448.2l-0.2,0.3l-0.1,0.3v0.3l0.1,0.3l0.2,0.3l0.2,0.3l0.3,0.2l0.3,0.1l0.3,0l0.3-0.1l0.2-0.1 M190,456.1L190,456.1l-0.2,0.3
		l-0.1,0.3v0.3l0.1,0.3l0.2,0.3l0.2,0.3l0.3,0.2l0.3,0.1h0.3l0.3-0.1l0.2-0.1 M197,464L197,464l-0.2,0.3l0,0.3v0.3l0,0.3l0.2,0.3
		l0.3,0.2l0.3,0.2l0.3,0.1h0.3l0.3,0l0.2-0.1 M183.1,434.2L183.1,434.2l-0.2,0.3l-0.1,0.3v0.3l0.1,0.3l0.2,0.3l0.2,0.3l0.3,0.2
		l0.3,0.1l0.3,0l0.3-0.1l0.2-0.1 M190,442.1L190,442.1l-0.2,0.3l-0.1,0.3v0.3l0.1,0.3l0.2,0.3l0.2,0.2l0.3,0.2l0.3,0.1h0.3l0.3,0
		l0.2-0.1 M197,450L197,450l-0.2,0.3l0,0.3v0.3l0,0.3l0.2,0.3l0.3,0.3l0.3,0.2l0.3,0.1l0.3,0l0.3-0.1l0.2-0.1 M203.9,457.8
		L203.9,457.8l-0.2,0.3l-0.1,0.3v0.3l0.1,0.3l0.1,0.3l0.3,0.2l0.3,0.2l0.3,0.1h0.3l0.3,0l0.2-0.1 M210.8,465.7L210.8,465.7l-0.2,0.3
		l-0.1,0.3v0.3l0.1,0.3l0.1,0.3l0.3,0.3l0.3,0.2l0.3,0.1h0.3l0.3,0l0.2-0.1 M183.1,420.2L183.1,420.2l-0.2,0.3l-0.1,0.3v0.3l0.1,0.3
		l0.2,0.3l0.2,0.2l0.3,0.2l0.3,0.1h0.3l0.3,0l0.2-0.1 M190,428.1L190,428.1l-0.2,0.3l-0.1,0.3v0.3l0.1,0.3l0.2,0.3l0.2,0.3l0.3,0.2
		l0.3,0.1l0.3,0l0.3-0.1l0.2-0.1 M197,436L197,436l-0.2,0.3l0,0.3v0.3l0,0.3l0.2,0.3l0.3,0.3l0.3,0.2l0.3,0.1h0.3l0.3-0.1l0.2-0.1
		 M203.9,443.9L203.9,443.9l-0.2,0.3l-0.1,0.3v0.3l0.1,0.3l0.1,0.3l0.3,0.2l0.3,0.2l0.3,0.1h0.3l0.3,0l0.2-0.1 M210.8,451.7
		L210.8,451.7l-0.2,0.3l-0.1,0.3v0.3l0.1,0.3l0.1,0.3l0.3,0.3l0.3,0.2l0.3,0.1l0.3,0l0.3-0.1l0.2-0.1 M217.8,459.6L217.8,459.6
		l-0.2,0.3l-0.1,0.3v0.3l0.1,0.3l0.2,0.3l0.2,0.2l0.3,0.2l0.3,0.1h0.3l0.3,0l0.2-0.1 M224.7,467.4L224.7,467.4l-0.2,0.3l-0.1,0.3
		v0.3l0.1,0.3l0.2,0.3l0.2,0.3l0.3,0.2l0.3,0.1l0.3,0l0.3-0.1l0.2-0.1 M183.1,406.3L183.1,406.3l-0.2,0.3l-0.1,0.3v0.3l0.1,0.3
		l0.2,0.3l0.2,0.3l0.3,0.2l0.3,0.1h0.3l0.3,0l0.2-0.1 M190,414.1L190,414.1l-0.2,0.3l-0.1,0.3v0.3l0.1,0.3l0.2,0.3l0.2,0.3l0.3,0.2
		l0.3,0.1l0.3,0l0.3-0.1l0.2-0.1 M197,422L197,422l-0.2,0.3l0,0.3v0.3l0,0.3l0.2,0.3l0.3,0.2l0.3,0.2l0.3,0.1h0.3l0.3,0l0.2-0.1
		 M203.9,429.9L203.9,429.9l-0.2,0.3l-0.1,0.3v0.3l0.1,0.3l0.1,0.3l0.3,0.3l0.3,0.2l0.3,0.1l0.3,0l0.3-0.1l0.2-0.1 M210.8,437.7
		L210.8,437.7l-0.2,0.3l-0.1,0.3v0.3l0.1,0.3l0.1,0.3l0.3,0.2l0.3,0.2l0.3,0.1h0.3l0.3-0.1l0.2-0.1 M217.8,445.6L217.8,445.6
		l-0.2,0.3l-0.1,0.3v0.3l0.1,0.3l0.2,0.3l0.2,0.3l0.3,0.2l0.3,0.1h0.3l0.3,0l0.2-0.1 M224.7,453.5L224.7,453.5l-0.2,0.3l-0.1,0.3
		v0.3l0.1,0.3l0.2,0.3l0.2,0.3l0.3,0.2l0.3,0.1l0.3,0l0.3-0.1l0.2-0.1 M231.6,461.3L231.6,461.3l-0.2,0.3l-0.1,0.3v0.3l0.1,0.3
		l0.2,0.3l0.2,0.2l0.3,0.2l0.3,0.1h0.3l0.3,0l0.2-0.1 M238.6,469.2L238.6,469.2l-0.2,0.3l-0.1,0.3v0.3l0.1,0.3l0.2,0.3l0.2,0.3
		l0.3,0.2l0.3,0.1l0.3,0l0.3-0.1l0.2-0.1 M183.1,392.3L183.1,392.3l-0.2,0.3l-0.1,0.3v0.3l0.1,0.3l0.2,0.3l0.2,0.3l0.3,0.2l0.3,0.1
		l0.3,0l0.3-0.1l0.2-0.1 M190,400.2L190,400.2l-0.2,0.3l-0.1,0.3v0.3l0.1,0.3l0.2,0.3l0.2,0.2l0.3,0.2l0.3,0.1h0.3l0.3,0l0.2-0.1
		 M197,408L197,408l-0.2,0.3l0,0.3v0.3l0,0.3l0.2,0.3l0.3,0.3l0.3,0.2l0.3,0.1l0.3,0l0.3-0.1l0.2-0.1 M203.9,415.9L203.9,415.9
		l-0.2,0.3l-0.1,0.3v0.3l0.1,0.3l0.1,0.3l0.3,0.3l0.3,0.2l0.3,0.1h0.3l0.3-0.1l0.2-0.1 M210.8,423.8L210.8,423.8l-0.2,0.3l-0.1,0.3
		v0.3l0.1,0.3l0.1,0.3l0.3,0.2l0.3,0.2l0.3,0.1h0.3l0.3,0l0.2-0.1 M217.8,431.6L217.8,431.6l-0.2,0.3l-0.1,0.3v0.3l0.1,0.3l0.2,0.3
		l0.2,0.3l0.3,0.2l0.3,0.1l0.3,0l0.3-0.1l0.2-0.1 M224.7,439.5L224.7,439.5l-0.2,0.3l-0.1,0.3v0.3l0.1,0.3l0.2,0.3l0.2,0.2l0.3,0.2
		l0.3,0.1h0.3l0.3,0l0.2-0.1 M231.6,447.4L231.6,447.4l-0.2,0.3l-0.1,0.3v0.3l0.1,0.3l0.2,0.3l0.2,0.3l0.3,0.2l0.3,0.1l0.3,0
		l0.3-0.1l0.2-0.1 M238.6,455.2L238.6,455.2l-0.2,0.3l-0.1,0.3v0.3l0.1,0.3l0.2,0.3l0.2,0.3l0.3,0.2l0.3,0.1h0.3l0.3-0.1l0.2-0.1
		 M245.5,463.1L245.5,463.1l-0.2,0.3l-0.1,0.3v0.3l0.1,0.3l0.2,0.3l0.2,0.2l0.3,0.2l0.3,0.1h0.3l0.3,0l0.2-0.1 M252.4,470.9
		L252.4,470.9l-0.2,0.3l-0.1,0.3v0.3l0.1,0.3l0.2,0.3l0.2,0.3l0.3,0.2l0.3,0.1l0.3,0l0.3-0.1l0.2-0.1 M177.1,381.9l0,0.2l0,0.1
		l0.2,0.1l0.2,0.1 M177.5,465.5h-0.2h-0.1h-0.1 M177.3,382L177.3,382l-0.1-0.1l0,0 M177.1,381.5v0.3 M190,386.2L190,386.2l-0.2,0.3
		l-0.1,0.3v0.3l0.1,0.3l0.2,0.3l0.2,0.3l0.3,0.2l0.3,0.1h0.3l0.3,0l0.2-0.1 M197,394.1L197,394.1l-0.2,0.3l0,0.3v0.3l0,0.3l0.2,0.3
		l0.3,0.3l0.3,0.2l0.3,0.1l0.3,0l0.3-0.1l0.2-0.1 M203.9,401.9L203.9,401.9l-0.2,0.3l-0.1,0.3v0.3l0.1,0.3l0.1,0.3l0.3,0.2l0.3,0.2
		l0.3,0.1h0.3l0.3,0l0.2-0.1 M210.8,409.8L210.8,409.8l-0.2,0.3l-0.1,0.3v0.3l0.1,0.3l0.1,0.3l0.3,0.3l0.3,0.2l0.3,0.1l0.3,0
		l0.3-0.1l0.2-0.1 M217.8,417.6L217.8,417.6l-0.2,0.3l-0.1,0.3v0.3l0.1,0.3l0.2,0.3l0.2,0.3l0.3,0.2l0.3,0.1h0.3l0.3-0.1l0.2-0.1
		 M224.7,425.5L224.7,425.5l-0.2,0.3l-0.1,0.3v0.3l0.1,0.3l0.2,0.3l0.2,0.3l0.3,0.2l0.3,0.1h0.3l0.3,0l0.2-0.1 M231.6,433.4
		L231.6,433.4l-0.2,0.3l-0.1,0.3v0.3l0.1,0.3l0.2,0.3l0.2,0.3l0.3,0.2l0.3,0.1l0.3,0l0.3-0.1l0.2-0.1 M238.6,441.3L238.6,441.3
		l-0.2,0.3l-0.1,0.3v0.3l0.1,0.3l0.2,0.3l0.2,0.2l0.3,0.2l0.3,0.1h0.3l0.3,0l0.2-0.1 M245.5,449.1L245.5,449.1l-0.2,0.3l-0.1,0.3
		v0.3l0.1,0.3l0.2,0.3l0.2,0.3l0.3,0.2l0.3,0.1l0.3,0l0.3-0.1l0.2-0.1 M252.4,456.9L252.4,456.9l-0.2,0.3l-0.1,0.3v0.3l0.1,0.3
		l0.2,0.3l0.2,0.3l0.3,0.2l0.3,0.1h0.3l0.3-0.1l0.2-0.1 M259.3,464.8L259.3,464.8l-0.2,0.3l-0.1,0.3v0.3l0.1,0.3l0.2,0.3l0.2,0.3
		l0.3,0.2l0.3,0.1h0.3l0.3,0l0.2-0.1 M266.3,472.7L266.3,472.7l-0.2,0.3l-0.1,0.3v0.3l0.1,0.3l0.2,0.3l0.2,0.3l0.3,0.2l0.3,0.1
		l0.3,0l0.3-0.1l0.2-0.1 M281.6,478.8L281.6,478.8L281.6,478.8L281.6,478.8l0-0.1h0 M281.7,478.7L281.7,478.7v-0.2l0-0.1l0-0.1v0
		l0,0h0l0,0 M281.1,478.9l0.3-0.3 M281.5,478.6v-0.3 M281.1,478.6l0.3-0.3 M177.2,465.5L177.2,465.5h0.1h0 M281.1,478.9v-0.3
		 M177.2,465.9L177.2,465.9L177.2,465.9l0.2-0.2l0.1-0.2 M280.3,478.4l0.2,0.3l0.2,0.2l0.2,0.1l0.2,0 M203.9,388L203.9,388l-0.2,0.3
		l-0.1,0.3v0.3l0.1,0.3l0.1,0.3l0.3,0.3l0.3,0.2l0.3,0.1l0.3,0l0.3-0.1l0.2-0.1 M210.8,395.8L210.8,395.8l-0.2,0.3l-0.1,0.3v0.3
		l0.1,0.3l0.1,0.3l0.3,0.3l0.3,0.2l0.3,0.1h0.3l0.3-0.1l0.2-0.1 M217.8,403.7L217.8,403.7l-0.2,0.3l-0.1,0.3v0.3l0.1,0.3l0.2,0.3
		l0.2,0.2l0.3,0.2l0.3,0.1h0.3l0.3,0l0.2-0.1 M224.7,411.5L224.7,411.5l-0.2,0.3l-0.1,0.3v0.3l0.1,0.3l0.2,0.3l0.2,0.3l0.3,0.2
		l0.3,0.1l0.3,0l0.3-0.1l0.2-0.1 M231.6,419.4L231.6,419.4l-0.2,0.3l-0.1,0.3v0.3l0.1,0.3l0.2,0.3l0.2,0.2l0.3,0.2l0.3,0.1h0.3
		l0.3,0l0.2-0.1 M238.6,427.3L238.6,427.3l-0.2,0.3l-0.1,0.3v0.3l0.1,0.3l0.2,0.3l0.2,0.3l0.3,0.2l0.3,0.1l0.3,0l0.3-0.1l0.2-0.1
		 M245.5,435.1L245.5,435.1l-0.2,0.3l-0.1,0.3v0.3l0.1,0.3l0.2,0.3l0.2,0.3l0.3,0.2l0.3,0.1h0.3l0.3-0.1l0.2-0.1 M252.4,443
		L252.4,443l-0.2,0.3l-0.1,0.3v0.3l0.1,0.3l0.2,0.3l0.2,0.2l0.3,0.2l0.3,0.1h0.3l0.3,0l0.2-0.1 M259.3,450.8L259.3,450.8l-0.2,0.3
		l-0.1,0.3v0.3l0.1,0.3l0.2,0.3l0.2,0.3l0.3,0.2l0.3,0.1l0.3,0l0.3-0.1l0.2-0.1 M266.3,458.7L266.3,458.7l-0.2,0.3l-0.1,0.3v0.3
		l0.1,0.3l0.2,0.3l0.2,0.2l0.3,0.2l0.3,0.1h0.3l0.3,0l0.2-0.1 M272,465.2l-0.3,0.3l-0.3,0.4l-0.1,0.4l-0.1,0.5v0.5l0.1,0.5l0.1,0.5
		l0.3,0.4l0.3,0.4l0.3,0.3l0.4,0.3l0.4,0.2l0.5,0.2l0.5,0.1h0.5l0.5-0.1l0.4-0.2l0.4-0.3l0,0 M217.8,389.7L217.8,389.7l-0.2,0.3
		l-0.1,0.3v0.3l0.1,0.3l0.2,0.3l0.2,0.3l0.3,0.2l0.3,0.1l0.3,0l0.3-0.1l0.2-0.1 M224.7,397.5L224.7,397.5l-0.2,0.3l-0.1,0.3v0.3
		l0.1,0.3l0.2,0.3l0.2,0.3l0.3,0.2l0.3,0.1h0.3l0.3-0.1l0.2-0.1 M231.6,405.4L231.6,405.4l-0.2,0.3l-0.1,0.3v0.3l0.1,0.3l0.2,0.3
		l0.2,0.3l0.3,0.2l0.3,0.1h0.3l0.3,0l0.2-0.1 M238.6,413.3L238.6,413.3l-0.2,0.3l-0.1,0.3v0.3l0.1,0.3l0.2,0.3l0.2,0.3l0.3,0.2
		l0.3,0.1l0.3,0l0.3-0.1l0.2-0.1 M245.5,421.2L245.5,421.2l-0.2,0.3l-0.1,0.3v0.3l0.1,0.3l0.2,0.3l0.2,0.2l0.3,0.2l0.3,0.1h0.3
		l0.3,0l0.2-0.1 M252.4,429L252.4,429l-0.2,0.3l-0.1,0.3v0.3l0.1,0.3l0.2,0.3l0.2,0.3l0.3,0.2l0.3,0.1l0.3,0l0.3-0.1l0.2-0.1
		 M259.3,436.9L259.3,436.9l-0.2,0.3l-0.1,0.3v0.3l0.1,0.3l0.2,0.3l0.2,0.3l0.3,0.2l0.3,0.1h0.3l0.3-0.1l0.2-0.1 M266.3,444.7
		L266.3,444.7l-0.2,0.3l-0.1,0.3v0.3l0.1,0.3l0.2,0.3l0.2,0.2l0.3,0.2l0.3,0.1h0.3l0.3,0l0.2-0.1 M273.2,452.6L273.2,452.6l-0.2,0.3
		l-0.1,0.3v0.3l0.1,0.3l0.1,0.3l0.3,0.3l0.3,0.2l0.3,0.1l0.3,0l0.3-0.1l0.2-0.1 M231.6,391.4L231.6,391.4l-0.2,0.3l-0.1,0.3v0.3
		l0.1,0.3l0.2,0.3l0.2,0.3l0.3,0.2l0.3,0.1l0.3,0l0.3-0.1l0.2-0.1 M238.6,399.3L238.6,399.3l-0.2,0.3l-0.1,0.3v0.3l0.1,0.3l0.2,0.3
		l0.2,0.2l0.3,0.2l0.3,0.1h0.3l0.3,0l0.2-0.1 M245.5,407.2L245.5,407.2l-0.2,0.3l-0.1,0.3v0.3l0.1,0.3l0.2,0.3l0.2,0.3l0.3,0.2
		l0.3,0.1l0.3,0l0.3-0.1l0.2-0.1 M252.4,415L252.4,415l-0.2,0.3l-0.1,0.3v0.3l0.1,0.3l0.2,0.3l0.2,0.3l0.3,0.2l0.3,0.1h0.3l0.3-0.1
		l0.2-0.1 M259.3,422.9L259.3,422.9l-0.2,0.3l-0.1,0.3v0.3l0.1,0.3l0.2,0.3l0.2,0.2l0.3,0.2l0.3,0.1h0.3l0.3,0l0.2-0.1 M266.3,430.7
		L266.3,430.7l-0.2,0.3l-0.1,0.3v0.3l0.1,0.3l0.2,0.3l0.2,0.3l0.3,0.2l0.3,0.1l0.3,0l0.3-0.1l0.2-0.1 M273.2,438.6L273.2,438.6
		l-0.2,0.3l-0.1,0.3v0.3l0.1,0.3l0.1,0.3l0.3,0.2l0.3,0.2l0.3,0.1h0.3l0.3,0l0.2-0.1 M245.5,393.2L245.5,393.2l-0.2,0.3l-0.1,0.3
		v0.3l0.1,0.3l0.2,0.3l0.2,0.3l0.3,0.2l0.3,0.1l0.3,0l0.3-0.1l0.2-0.1 M252.4,401.1L252.4,401.1l-0.2,0.3l-0.1,0.3v0.3l0.1,0.3
		l0.2,0.3l0.2,0.2l0.3,0.2l0.3,0.1h0.3l0.3,0l0.2-0.1 M259.3,408.9L259.3,408.9l-0.2,0.3l-0.1,0.3v0.3l0.1,0.3l0.2,0.3l0.2,0.3
		l0.3,0.2l0.3,0.1l0.3,0l0.3-0.1l0.2-0.1 M266.3,416.8L266.3,416.8l-0.2,0.3l-0.1,0.3v0.3l0.1,0.3l0.2,0.3l0.2,0.3l0.3,0.2l0.3,0.1
		h0.3l0.3-0.1l0.2-0.1 M273.2,424.6L273.2,424.6l-0.2,0.3l-0.1,0.3v0.3l0.1,0.3l0.1,0.3l0.3,0.2l0.3,0.2l0.3,0.1h0.3l0.3,0l0.2-0.1
		 M259.3,394.9L259.3,394.9l-0.2,0.3l-0.1,0.3v0.3l0.1,0.3l0.2,0.3l0.2,0.3l0.3,0.2l0.3,0.1h0.3l0.3-0.1l0.2-0.1 M266.3,402.8
		L266.3,402.8l-0.2,0.3l-0.1,0.3v0.3l0.1,0.3l0.2,0.3l0.2,0.2l0.3,0.2l0.3,0.1h0.3l0.3,0l0.2-0.1 M273.2,410.7L273.2,410.7l-0.2,0.3
		l-0.1,0.3v0.3l0.1,0.3l0.1,0.3l0.3,0.3l0.3,0.2l0.3,0.1l0.3,0l0.3-0.1l0.2-0.1 M273.2,396.7L273.2,396.7l-0.2,0.3l-0.1,0.3v0.3
		l0.1,0.3l0.1,0.3l0.3,0.3l0.3,0.2l0.3,0.1h0.3l0.3-0.1l0.2-0.1 M281.5,394.7L281.5,394.7 M281.7,478.1l-0.6,0.5 M281.7,394.7v83.4
		 M281.5,394.7l-0.4,0.3 M281.1,395l0.3-0.3 M191.9,387.3l0-0.3l-0.1-0.3l-0.2-0.3l-0.3-0.2l-0.3-0.1l-0.3-0.1l-0.3,0l-0.3,0.1
		l-0.2,0.2l-0.2,0.3l-0.1,0.3v0.3l0.1,0.3l0.2,0.3l0.2,0.2l0.3,0.2l0.3,0.1h0.3l0.3,0l0.3-0.2l0.2-0.2l0.1-0.3L191.9,387.3
		 M191.9,401.3l0-0.3l-0.1-0.3l-0.2-0.3l-0.3-0.2l-0.3-0.1l-0.3-0.1l-0.3,0l-0.3,0.1l-0.2,0.2l-0.2,0.2l-0.1,0.3v0.3l0.1,0.3
		l0.2,0.3l0.2,0.3l0.3,0.2l0.3,0.1l0.3,0l0.3-0.1l0.3-0.1l0.2-0.2l0.1-0.3L191.9,401.3 M191.9,415.3l0-0.3l-0.1-0.3l-0.2-0.3
		l-0.3-0.2L191,414l-0.3,0h-0.3l-0.3,0.1l-0.2,0.2l-0.2,0.3l-0.1,0.3v0.3l0.1,0.3l0.2,0.3l0.2,0.3l0.3,0.2l0.3,0.1l0.3,0l0.3-0.1
		l0.3-0.1l0.2-0.3l0.1-0.3L191.9,415.3 M191.9,429.3l0-0.3l-0.1-0.3l-0.2-0.3l-0.3-0.2L191,428l-0.3,0h-0.3l-0.3,0.1l-0.2,0.2
		l-0.2,0.3l-0.1,0.3v0.3l0.1,0.3l0.2,0.3l0.2,0.2l0.3,0.2l0.3,0.1h0.3l0.3,0l0.3-0.2l0.2-0.2l0.1-0.3L191.9,429.3 M191.9,443.2
		l0-0.3l-0.1-0.3l-0.2-0.3l-0.3-0.2L191,442l-0.3-0.1l-0.3,0l-0.3,0.1l-0.2,0.2l-0.2,0.2l-0.1,0.3v0.3l0.1,0.3l0.2,0.3l0.2,0.3
		l0.3,0.2l0.3,0.1h0.3l0.3-0.1l0.3-0.1l0.2-0.2l0.1-0.3L191.9,443.2 M275.1,397.8l0-0.3l-0.1-0.3l-0.2-0.3l-0.3-0.2l-0.3-0.2l-0.3,0
		l-0.3,0l-0.3,0.1l-0.3,0.2l-0.1,0.3l-0.1,0.3v0.3l0.1,0.3l0.1,0.3l0.3,0.3l0.3,0.2l0.3,0.1l0.3,0l0.3-0.1l0.3-0.1l0.2-0.2l0.1-0.3
		L275.1,397.8 M261.3,396.1l0-0.3l-0.1-0.3l-0.2-0.3l-0.3-0.2l-0.3-0.2l-0.3,0h-0.3l-0.3,0.1l-0.2,0.2l-0.2,0.3l-0.1,0.3v0.3
		l0.1,0.3l0.2,0.3l0.2,0.3l0.3,0.2l0.3,0.1l0.3,0l0.3-0.1l0.3-0.1l0.2-0.3l0.1-0.3L261.3,396.1 M247.4,394.3l0-0.3l-0.1-0.3
		l-0.2-0.3l-0.3-0.2l-0.3-0.1l-0.3,0h-0.3l-0.3,0.1l-0.2,0.2l-0.2,0.3l-0.1,0.3v0.3l0.1,0.3l0.2,0.3l0.2,0.3l0.3,0.2l0.3,0.1h0.3
		l0.3,0l0.3-0.2l0.2-0.2l0.1-0.3L247.4,394.3 M233.5,392.6l0-0.3l-0.1-0.3l-0.2-0.3l-0.3-0.2l-0.3-0.1l-0.3,0H232l-0.3,0.1l-0.2,0.2
		l-0.2,0.3l-0.1,0.3v0.3l0.1,0.3l0.2,0.3l0.2,0.2l0.3,0.2l0.3,0.1h0.3l0.3,0l0.3-0.2l0.2-0.2l0.1-0.3L233.5,392.6 M219.7,390.8
		l0-0.3l-0.1-0.3l-0.2-0.3l-0.3-0.2l-0.3-0.1l-0.3,0h-0.3l-0.3,0.1l-0.2,0.2l-0.2,0.3l-0.1,0.3v0.3l0.1,0.3l0.2,0.3l0.2,0.2l0.3,0.2
		l0.3,0.1h0.3l0.3,0l0.3-0.2l0.2-0.2l0.1-0.3L219.7,390.8 M205.8,389.1l0-0.3l-0.1-0.3l-0.2-0.3l-0.3-0.2l-0.3-0.1l-0.3-0.1l-0.3,0
		l-0.3,0.1l-0.3,0.2l-0.1,0.3l-0.1,0.3v0.3l0.1,0.3l0.1,0.3l0.3,0.2l0.3,0.2l0.3,0.1h0.3l0.3,0l0.3-0.2l0.2-0.2l0.1-0.3L205.8,389.1
		 M275.1,411.8l0-0.3l-0.1-0.3l-0.2-0.3l-0.3-0.2l-0.3-0.1l-0.3,0h-0.3l-0.3,0.1l-0.3,0.2l-0.1,0.3l-0.1,0.3v0.3l0.1,0.3l0.1,0.3
		l0.3,0.2l0.3,0.2l0.3,0.1h0.3l0.3,0l0.3-0.2l0.2-0.2l0.1-0.3L275.1,411.8 M261.3,410l0-0.3l-0.1-0.3l-0.2-0.3l-0.3-0.2l-0.3-0.1
		l-0.3,0h-0.3l-0.3,0.1l-0.2,0.2l-0.2,0.3l-0.1,0.3v0.3l0.1,0.3l0.2,0.3l0.2,0.2l0.3,0.2l0.3,0.1h0.3l0.3,0l0.3-0.2l0.2-0.2l0.1-0.3
		L261.3,410 M247.4,408.3l0-0.3l-0.1-0.3l-0.2-0.3l-0.3-0.2l-0.3-0.1l-0.3-0.1l-0.3,0l-0.3,0.1l-0.2,0.2l-0.2,0.3l-0.1,0.3v0.3
		l0.1,0.3l0.2,0.3l0.2,0.2l0.3,0.2l0.3,0.1h0.3l0.3,0l0.3-0.2l0.2-0.2l0.1-0.3L247.4,408.3 M233.5,406.6l0-0.3l-0.1-0.3l-0.2-0.3
		l-0.3-0.2l-0.3-0.1l-0.3-0.1l-0.3,0l-0.3,0.1l-0.2,0.2l-0.2,0.3l-0.1,0.3v0.3l0.1,0.3l0.2,0.3l0.2,0.2l0.3,0.2l0.3,0.1h0.3l0.3,0
		l0.3-0.2l0.2-0.2l0.1-0.3L233.5,406.6 M219.7,404.8l0-0.3l-0.1-0.3l-0.2-0.3l-0.3-0.2l-0.3-0.1l-0.3-0.1l-0.3,0l-0.3,0.1l-0.2,0.2
		l-0.2,0.2l-0.1,0.3v0.3l0.1,0.3l0.2,0.3l0.2,0.3l0.3,0.2l0.3,0.1h0.3l0.3-0.1l0.3-0.1l0.2-0.2l0.1-0.3L219.7,404.8 M205.8,403
		l0-0.3l-0.1-0.3l-0.2-0.3l-0.3-0.2l-0.3-0.1l-0.3-0.1l-0.3,0l-0.3,0.1l-0.3,0.2l-0.1,0.2l-0.1,0.3v0.3l0.1,0.3l0.1,0.3l0.3,0.3
		l0.3,0.2l0.3,0.1h0.3l0.3-0.1l0.3-0.1l0.2-0.2l0.1-0.3L205.8,403 M275.1,425.8l0-0.3l-0.1-0.3l-0.2-0.3l-0.3-0.2l-0.3-0.1l-0.3-0.1
		l-0.3,0l-0.3,0.1l-0.3,0.2l-0.1,0.3l-0.1,0.3v0.3l0.1,0.3l0.1,0.3l0.3,0.3l0.3,0.2l0.3,0.1h0.3l0.3-0.1l0.3-0.1l0.2-0.2l0.1-0.3
		L275.1,425.8 M261.3,424l0-0.3l-0.1-0.3l-0.2-0.3l-0.3-0.2l-0.3-0.1l-0.3-0.1l-0.3,0l-0.3,0.1l-0.2,0.2l-0.2,0.2l-0.1,0.3v0.3
		l0.1,0.3l0.2,0.3l0.2,0.3l0.3,0.2l0.3,0.1h0.3l0.3-0.1l0.3-0.1l0.2-0.2l0.1-0.3L261.3,424 M247.4,422.3l0-0.3l-0.1-0.3l-0.2-0.3
		l-0.3-0.2l-0.3-0.1l-0.3-0.1l-0.3,0l-0.3,0.1l-0.2,0.2l-0.2,0.2l-0.1,0.3v0.3l0.1,0.3l0.2,0.3l0.2,0.3l0.3,0.2l0.3,0.1l0.3,0
		l0.3-0.1l0.3-0.1l0.2-0.2l0.1-0.3L247.4,422.3 M233.5,420.5l0-0.3l-0.1-0.3l-0.2-0.3l-0.3-0.2l-0.3-0.2l-0.3,0l-0.3,0l-0.3,0.1
		l-0.2,0.2l-0.2,0.2l-0.1,0.3v0.3l0.1,0.3l0.2,0.3l0.2,0.3l0.3,0.2l0.3,0.1l0.3,0l0.3-0.1l0.3-0.1l0.2-0.2l0.1-0.3L233.5,420.5
		 M219.7,418.8l0-0.3l-0.1-0.3l-0.2-0.3l-0.3-0.2l-0.3-0.2l-0.3,0l-0.3,0l-0.3,0.1l-0.2,0.2l-0.2,0.3l-0.1,0.3v0.3l0.1,0.3l0.2,0.3
		l0.2,0.3l0.3,0.2l0.3,0.1l0.3,0l0.3-0.1l0.3-0.1l0.2-0.2l0.1-0.3L219.7,418.8 M205.8,417l0-0.3l-0.1-0.3l-0.2-0.3l-0.3-0.2
		l-0.3-0.2l-0.3,0h-0.3l-0.3,0.1l-0.3,0.2l-0.1,0.3l-0.1,0.3v0.3l0.1,0.3l0.1,0.3l0.3,0.3l0.3,0.2l0.3,0.1l0.3,0l0.3-0.1l0.3-0.1
		l0.2-0.2l0.1-0.3L205.8,417 M275.1,439.7l0-0.3l-0.1-0.3l-0.2-0.3l-0.3-0.2l-0.3-0.2l-0.3,0l-0.3,0l-0.3,0.1l-0.3,0.2l-0.1,0.3
		l-0.1,0.3v0.3l0.1,0.3l0.1,0.3l0.3,0.3l0.3,0.2l0.3,0.1l0.3,0l0.3-0.1l0.3-0.1l0.2-0.2l0.1-0.3L275.1,439.7 M261.3,438l0-0.3
		l-0.1-0.3l-0.2-0.3l-0.3-0.2l-0.3-0.2l-0.3,0l-0.3,0l-0.3,0.1l-0.2,0.2l-0.2,0.3l-0.1,0.3v0.3l0.1,0.3l0.2,0.3l0.2,0.3l0.3,0.2
		l0.3,0.1l0.3,0l0.3-0.1l0.3-0.1l0.2-0.2l0.1-0.3L261.3,438 M247.4,436.2l0-0.3l-0.1-0.3l-0.2-0.3l-0.3-0.2l-0.3-0.2l-0.3,0h-0.3
		l-0.3,0.1l-0.2,0.2l-0.2,0.3l-0.1,0.3v0.3l0.1,0.3l0.2,0.3l0.2,0.3l0.3,0.2l0.3,0.1l0.3,0l0.3-0.1l0.3-0.1l0.2-0.3l0.1-0.3
		L247.4,436.2 M233.5,434.5l0-0.3l-0.1-0.3l-0.2-0.3l-0.3-0.2l-0.3-0.1l-0.3,0H232l-0.3,0.1l-0.2,0.2l-0.2,0.3l-0.1,0.3v0.3l0.1,0.3
		l0.2,0.3l0.2,0.3l0.3,0.2l0.3,0.1l0.3,0l0.3-0.1l0.3-0.2l0.2-0.2l0.1-0.3L233.5,434.5 M219.7,432.8l0-0.3l-0.1-0.3l-0.2-0.3
		l-0.3-0.2l-0.3-0.1l-0.3,0h-0.3l-0.3,0.1l-0.2,0.2l-0.2,0.3l-0.1,0.3v0.3l0.1,0.3l0.2,0.3l0.2,0.2l0.3,0.2l0.3,0.1h0.3l0.3,0
		l0.3-0.2l0.2-0.2l0.1-0.3L219.7,432.8 M205.8,431l0-0.3l-0.1-0.3l-0.2-0.3l-0.3-0.2l-0.3-0.1l-0.3,0h-0.3l-0.3,0.1l-0.3,0.2
		l-0.1,0.3l-0.1,0.3v0.3l0.1,0.3l0.1,0.3l0.3,0.2l0.3,0.2l0.3,0.1h0.3l0.3,0l0.3-0.2l0.2-0.2l0.1-0.3L205.8,431 M275.1,453.7l0-0.3
		l-0.1-0.3l-0.2-0.3l-0.3-0.2l-0.3-0.1l-0.3,0h-0.3l-0.3,0.1l-0.3,0.2l-0.1,0.3l-0.1,0.3v0.3l0.1,0.3l0.1,0.3l0.3,0.3l0.3,0.2
		l0.3,0.1h0.3l0.3,0l0.3-0.2l0.2-0.2l0.1-0.3L275.1,453.7 M261.3,452l0-0.3l-0.1-0.3l-0.2-0.3l-0.3-0.2l-0.3-0.1l-0.3,0h-0.3
		l-0.3,0.1l-0.2,0.2l-0.2,0.3l-0.1,0.3v0.3l0.1,0.3l0.2,0.3l0.2,0.2l0.3,0.2l0.3,0.1h0.3l0.3,0l0.3-0.2l0.2-0.2l0.1-0.3L261.3,452
		 M185,463.3l0-0.3l-0.1-0.3l-0.2-0.3l-0.3-0.2l-0.3-0.1l-0.3-0.1l-0.3,0l-0.3,0.1l-0.2,0.2l-0.2,0.2l-0.1,0.3v0.3l0.1,0.3l0.2,0.3
		l0.2,0.3l0.3,0.2l0.3,0.1h0.3l0.3-0.1l0.3-0.1l0.2-0.2l0.1-0.3L185,463.3 M247.4,450.2l0-0.3l-0.1-0.3l-0.2-0.3l-0.3-0.2l-0.3-0.1
		l-0.3,0h-0.3l-0.3,0.1l-0.2,0.2l-0.2,0.3l-0.1,0.3v0.3l0.1,0.3l0.2,0.3l0.2,0.2l0.3,0.2l0.3,0.1h0.3l0.3,0l0.3-0.2l0.2-0.2l0.1-0.3
		L247.4,450.2 M233.5,448.5l0-0.3l-0.1-0.3l-0.2-0.3l-0.3-0.2l-0.3-0.1l-0.3-0.1l-0.3,0l-0.3,0.1l-0.2,0.2l-0.2,0.3l-0.1,0.3v0.3
		l0.1,0.3l0.2,0.3l0.2,0.2l0.3,0.2l0.3,0.1h0.3l0.3,0l0.3-0.2l0.2-0.2l0.1-0.3L233.5,448.5 M219.7,446.7l0-0.3l-0.1-0.3l-0.2-0.3
		l-0.3-0.2l-0.3-0.1l-0.3-0.1l-0.3,0l-0.3,0.1l-0.2,0.2l-0.2,0.3l-0.1,0.3v0.3l0.1,0.3l0.2,0.3l0.2,0.2l0.3,0.2l0.3,0.1h0.3l0.3,0
		l0.3-0.2l0.2-0.2l0.1-0.3L219.7,446.7 M205.8,445l0-0.3l-0.1-0.3l-0.2-0.3l-0.3-0.2l-0.3-0.1l-0.3-0.1l-0.3,0l-0.3,0.1l-0.3,0.2
		l-0.1,0.2l-0.1,0.3v0.3l0.1,0.3l0.1,0.3l0.3,0.3l0.3,0.2l0.3,0.1h0.3l0.3-0.1l0.3-0.1l0.2-0.2l0.1-0.3L205.8,445 M261.3,466l0-0.3
		l-0.1-0.3l-0.2-0.3l-0.3-0.2l-0.3-0.1l-0.3-0.1l-0.3,0l-0.3,0.1l-0.2,0.2l-0.2,0.3l-0.1,0.3v0.3l0.1,0.3l0.2,0.3l0.2,0.2l0.3,0.2
		l0.3,0.1h0.3l0.3,0l0.3-0.2l0.2-0.2l0.1-0.3L261.3,466 M185,393.4l0-0.3l-0.1-0.3l-0.2-0.3l-0.3-0.2l-0.3-0.1l-0.3,0h-0.3l-0.3,0.1
		l-0.2,0.2l-0.2,0.3l-0.1,0.3v0.3l0.1,0.3l0.2,0.3l0.2,0.3l0.3,0.2l0.3,0.1h0.3l0.3,0l0.3-0.2l0.2-0.2l0.1-0.3L185,393.4 M185,407.4
		l0-0.3l-0.1-0.3l-0.2-0.3l-0.3-0.2l-0.3-0.1l-0.3-0.1l-0.3,0l-0.3,0.1l-0.2,0.2l-0.2,0.3l-0.1,0.3v0.3l0.1,0.3l0.2,0.3l0.2,0.2
		l0.3,0.2l0.3,0.1h0.3l0.3,0l0.3-0.2l0.2-0.2l0.1-0.3L185,407.4 M185,421.4l0-0.3l-0.1-0.3l-0.2-0.3l-0.3-0.2l-0.3-0.1l-0.3-0.1
		l-0.3,0l-0.3,0.1l-0.2,0.2l-0.2,0.2l-0.1,0.3v0.3l0.1,0.3l0.2,0.3l0.2,0.3l0.3,0.2l0.3,0.1l0.3,0l0.3-0.1l0.3-0.1l0.2-0.2l0.1-0.3
		L185,421.4 M185,435.4l0-0.3l-0.1-0.3l-0.2-0.3l-0.3-0.2l-0.3-0.2l-0.3,0h-0.3l-0.3,0.1l-0.2,0.2l-0.2,0.3l-0.1,0.3v0.3l0.1,0.3
		l0.2,0.3l0.2,0.3l0.3,0.2l0.3,0.1l0.3,0l0.3-0.1l0.3-0.1l0.2-0.3l0.1-0.3L185,435.4 M185,449.4l0-0.3l-0.1-0.3l-0.2-0.3l-0.3-0.2
		l-0.3-0.1l-0.3,0h-0.3l-0.3,0.1l-0.2,0.2l-0.2,0.3l-0.1,0.3v0.3l0.1,0.3l0.2,0.3l0.2,0.2l0.3,0.2l0.3,0.1h0.3l0.3,0l0.3-0.2
		l0.2-0.2l0.1-0.3L185,449.4 M247.4,464.2l0-0.3l-0.1-0.3l-0.2-0.3l-0.3-0.2l-0.3-0.1l-0.3-0.1l-0.3,0l-0.3,0.1l-0.2,0.2l-0.2,0.2
		l-0.1,0.3v0.3l0.1,0.3l0.2,0.3l0.2,0.3l0.3,0.2l0.3,0.1h0.3l0.3-0.1l0.3-0.1l0.2-0.2l0.1-0.3L247.4,464.2 M268.2,403.9l0-0.3
		l-0.1-0.3l-0.2-0.3l-0.3-0.2l-0.3-0.1l-0.3-0.1l-0.3,0l-0.3,0.1l-0.2,0.2l-0.2,0.2l-0.1,0.3v0.3l0.1,0.3l0.2,0.3l0.2,0.3l0.3,0.2
		l0.3,0.1h0.3l0.3-0.1l0.3-0.1l0.2-0.2l0.1-0.3L268.2,403.9 M254.3,402.2l0-0.3l-0.1-0.3l-0.2-0.3l-0.3-0.2l-0.3-0.1l-0.3-0.1
		l-0.3,0l-0.3,0.1l-0.2,0.2l-0.2,0.2l-0.1,0.3v0.3l0.1,0.3l0.2,0.3l0.2,0.3l0.3,0.2l0.3,0.1l0.3,0l0.3-0.1l0.3-0.1l0.2-0.2l0.1-0.3
		L254.3,402.2 M240.5,400.4l0-0.3l-0.1-0.3l-0.2-0.3l-0.2-0.2l-0.3-0.2l-0.3,0l-0.3,0l-0.3,0.1l-0.2,0.2l-0.2,0.3l-0.1,0.3v0.3
		l0.1,0.3l0.2,0.3l0.2,0.3l0.3,0.2l0.3,0.1l0.3,0l0.3-0.1l0.2-0.1l0.2-0.2l0.1-0.3L240.5,400.4 M226.6,398.7l0-0.3l-0.1-0.3
		l-0.2-0.3l-0.3-0.2l-0.3-0.2l-0.3,0l-0.3,0l-0.3,0.1l-0.2,0.2l-0.2,0.3l-0.1,0.3v0.3l0.1,0.3l0.2,0.3l0.2,0.3l0.3,0.2l0.3,0.1
		l0.3,0l0.3-0.1l0.3-0.1l0.2-0.2l0.1-0.3L226.6,398.7 M212.7,396.9v-0.3l-0.1-0.3l-0.2-0.3l-0.3-0.2l-0.3-0.2l-0.3,0h-0.3l-0.3,0.1
		l-0.3,0.2l-0.1,0.3l-0.1,0.3v0.3l0.1,0.3l0.1,0.3l0.3,0.3l0.3,0.2l0.3,0.1l0.3,0l0.3-0.1l0.3-0.1l0.2-0.2l0.1-0.3V396.9
		 M198.9,395.2l0-0.3l-0.1-0.3l-0.2-0.3l-0.3-0.2l-0.3-0.1l-0.3,0h-0.3l-0.3,0.1l-0.3,0.2l-0.2,0.3l0,0.3v0.3l0,0.3l0.2,0.3l0.3,0.3
		l0.3,0.2l0.3,0.1l0.3,0l0.3-0.1l0.3-0.2l0.2-0.2l0.1-0.3L198.9,395.2 M233.5,462.4l0-0.3l-0.1-0.3l-0.2-0.3l-0.3-0.2l-0.3-0.1
		l-0.3-0.1l-0.3,0l-0.3,0.1l-0.2,0.2l-0.2,0.2l-0.1,0.3v0.3l0.1,0.3l0.2,0.3l0.2,0.3l0.3,0.2l0.3,0.1h0.3l0.3-0.1l0.3-0.1l0.2-0.2
		l0.1-0.3L233.5,462.4 M268.2,417.9l0-0.3l-0.1-0.3l-0.2-0.3l-0.3-0.2l-0.3-0.2l-0.3,0l-0.3,0l-0.3,0.1l-0.2,0.2l-0.2,0.3l-0.1,0.3
		v0.3l0.1,0.3l0.2,0.3l0.2,0.3l0.3,0.2l0.3,0.1l0.3,0l0.3-0.1l0.3-0.1l0.2-0.2l0.1-0.3L268.2,417.9 M254.3,416.2l0-0.3l-0.1-0.3
		l-0.2-0.3l-0.3-0.2l-0.3-0.2l-0.3,0h-0.3l-0.3,0.1l-0.2,0.2l-0.2,0.3l-0.1,0.3v0.3l0.1,0.3l0.2,0.3l0.2,0.3l0.3,0.2l0.3,0.1l0.3,0
		l0.3-0.1l0.3-0.1l0.2-0.3l0.1-0.3L254.3,416.2 M240.5,414.4l0-0.3l-0.1-0.3l-0.2-0.3l-0.2-0.2l-0.3-0.1l-0.3,0h-0.3l-0.3,0.1
		l-0.2,0.2l-0.2,0.3l-0.1,0.3v0.3l0.1,0.3l0.2,0.3l0.2,0.3l0.3,0.2l0.3,0.1h0.3l0.3,0l0.2-0.2l0.2-0.2l0.1-0.3L240.5,414.4
		 M226.6,412.7l0-0.3l-0.1-0.3l-0.2-0.3l-0.3-0.2l-0.3-0.1l-0.3,0H225l-0.3,0.1l-0.2,0.2l-0.2,0.3l-0.1,0.3v0.3l0.1,0.3l0.2,0.3
		l0.2,0.2l0.3,0.2l0.3,0.1h0.3l0.3,0l0.3-0.2l0.2-0.2l0.1-0.3L226.6,412.7 M212.7,410.9v-0.3l-0.1-0.3l-0.2-0.3l-0.3-0.2l-0.3-0.1
		l-0.3,0h-0.3l-0.3,0.1l-0.3,0.2l-0.1,0.3l-0.1,0.3v0.3l0.1,0.3l0.1,0.3l0.3,0.2l0.3,0.2l0.3,0.1h0.3l0.3,0l0.3-0.2l0.2-0.2l0.1-0.3
		V410.9 M198.9,409.2l0-0.3l-0.1-0.3l-0.2-0.3l-0.3-0.2l-0.3-0.1l-0.3-0.1l-0.3,0l-0.3,0.1l-0.3,0.2l-0.2,0.3l0,0.3v0.3l0,0.3
		l0.2,0.3l0.3,0.2l0.3,0.2l0.3,0.1h0.3l0.3,0l0.3-0.2l0.2-0.2l0.1-0.3L198.9,409.2 M219.7,460.7l0-0.3l-0.1-0.3l-0.2-0.3l-0.3-0.2
		l-0.3-0.2l-0.3,0l-0.3,0l-0.3,0.1l-0.2,0.2l-0.2,0.2l-0.1,0.3v0.3l0.1,0.3l0.2,0.3l0.2,0.3l0.3,0.2l0.3,0.1l0.3,0l0.3-0.1l0.3-0.1
		l0.2-0.2l0.1-0.3L219.7,460.7 M268.2,431.9l0-0.3l-0.1-0.3l-0.2-0.3l-0.3-0.2l-0.3-0.1l-0.3,0h-0.3l-0.3,0.1l-0.2,0.2l-0.2,0.3
		l-0.1,0.3v0.3l0.1,0.3l0.2,0.3l0.2,0.2l0.3,0.2l0.3,0.1h0.3l0.3,0l0.3-0.2l0.2-0.2l0.1-0.3L268.2,431.9 M254.3,430.1l0-0.3
		l-0.1-0.3l-0.2-0.3l-0.3-0.2l-0.3-0.1l-0.3,0h-0.3l-0.3,0.1l-0.2,0.2l-0.2,0.3l-0.1,0.3v0.3l0.1,0.3l0.2,0.3l0.2,0.2l0.3,0.2
		l0.3,0.1h0.3l0.3,0l0.3-0.2l0.2-0.2l0.1-0.3L254.3,430.1 M240.5,428.4l0-0.3l-0.1-0.3l-0.2-0.3l-0.2-0.2l-0.3-0.1l-0.3-0.1l-0.3,0
		l-0.3,0.1l-0.2,0.2l-0.2,0.3l-0.1,0.3v0.3l0.1,0.3l0.2,0.3l0.2,0.2l0.3,0.2l0.3,0.1h0.3l0.3,0l0.2-0.2l0.2-0.2l0.1-0.3L240.5,428.4
		 M226.6,426.7l0-0.3l-0.1-0.3l-0.2-0.3l-0.3-0.2l-0.3-0.1l-0.3-0.1l-0.3,0l-0.3,0.1l-0.2,0.2l-0.2,0.3l-0.1,0.3v0.3l0.1,0.3
		l0.2,0.3l0.2,0.2l0.3,0.2l0.3,0.1h0.3l0.3,0l0.3-0.2l0.2-0.2l0.1-0.3L226.6,426.7 M212.7,424.9v-0.3l-0.1-0.3l-0.2-0.3l-0.3-0.2
		l-0.3-0.1l-0.3-0.1l-0.3,0l-0.3,0.1l-0.3,0.2l-0.1,0.2l-0.1,0.3v0.3l0.1,0.3l0.1,0.3l0.3,0.3l0.3,0.2l0.3,0.1h0.3l0.3-0.1l0.3-0.1
		l0.2-0.2l0.1-0.3V424.9 M198.9,423.1l0-0.3l-0.1-0.3l-0.2-0.3l-0.3-0.2l-0.3-0.1l-0.3-0.1l-0.3,0l-0.3,0.1l-0.3,0.2l-0.2,0.2l0,0.3
		v0.3l0,0.3l0.2,0.3l0.3,0.3l0.3,0.2l0.3,0.1h0.3l0.3-0.1l0.3-0.1l0.2-0.2l0.1-0.3L198.9,423.1 M205.8,458.9l0-0.3l-0.1-0.3
		l-0.2-0.3l-0.3-0.2l-0.3-0.2l-0.3,0l-0.3,0l-0.3,0.1l-0.3,0.2l-0.1,0.3l-0.1,0.3v0.3l0.1,0.3l0.1,0.3l0.3,0.3l0.3,0.2l0.3,0.1
		l0.3,0l0.3-0.1l0.3-0.1l0.2-0.2l0.1-0.3L205.8,458.9 M268.2,445.9l0-0.3l-0.1-0.3l-0.2-0.3l-0.3-0.2l-0.3-0.1l-0.3-0.1l-0.3,0
		l-0.3,0.1l-0.2,0.2l-0.2,0.3l-0.1,0.3v0.3l0.1,0.3l0.2,0.3l0.2,0.2l0.3,0.2l0.3,0.1h0.3l0.3-0.1l0.3-0.1l0.2-0.2l0.1-0.3
		L268.2,445.9 M254.3,444.1l0-0.3l-0.1-0.3l-0.2-0.3l-0.3-0.2l-0.3-0.1l-0.3-0.1l-0.3,0l-0.3,0.1l-0.2,0.2l-0.2,0.2l-0.1,0.3v0.3
		l0.1,0.3l0.2,0.3l0.2,0.3l0.3,0.2l0.3,0.1h0.3l0.3-0.1l0.3-0.1l0.2-0.2l0.1-0.3L254.3,444.1 M240.5,442.3l0-0.3l-0.1-0.3l-0.2-0.3
		l-0.2-0.2l-0.3-0.1l-0.3-0.1l-0.3,0l-0.3,0.1l-0.2,0.2l-0.2,0.2l-0.1,0.3v0.3l0.1,0.3l0.2,0.3l0.2,0.3l0.3,0.2l0.3,0.1l0.3,0
		l0.3-0.1l0.2-0.1l0.2-0.2l0.1-0.3L240.5,442.3 M226.6,440.6l0-0.3l-0.1-0.3l-0.2-0.3l-0.3-0.2l-0.3-0.2l-0.3,0l-0.3,0l-0.3,0.1
		l-0.2,0.2l-0.2,0.2l-0.1,0.3v0.3l0.1,0.3l0.2,0.3l0.2,0.3l0.3,0.2l0.3,0.1l0.3,0l0.3-0.1l0.3-0.1l0.2-0.2l0.1-0.3L226.6,440.6
		 M212.7,438.9v-0.3l-0.1-0.3l-0.2-0.3l-0.3-0.2l-0.3-0.2l-0.3,0l-0.3,0l-0.3,0.1l-0.3,0.2l-0.1,0.3l-0.1,0.3v0.3l0.1,0.3l0.1,0.3
		l0.3,0.3l0.3,0.2l0.3,0.1l0.3,0l0.3-0.1l0.3-0.1l0.2-0.2l0.1-0.3V438.9 M198.9,437.1l0-0.3l-0.1-0.3l-0.2-0.3l-0.3-0.2l-0.3-0.2
		l-0.3,0h-0.3l-0.3,0.1l-0.3,0.2l-0.2,0.3l0,0.3v0.3l0,0.3l0.2,0.3l0.3,0.3l0.3,0.2l0.3,0.1l0.3,0l0.3-0.1l0.3-0.1l0.2-0.2l0.1-0.3
		L198.9,437.1 M268.2,459.8l0-0.3l-0.1-0.3l-0.2-0.3l-0.3-0.2l-0.3-0.2l-0.3,0l-0.3,0l-0.3,0.1l-0.2,0.2l-0.2,0.3l-0.1,0.3v0.3
		l0.1,0.3l0.2,0.3l0.2,0.3l0.3,0.2l0.3,0.1l0.3,0l0.3-0.1l0.3-0.1l0.2-0.2l0.1-0.3L268.2,459.8 M254.3,458.1l0-0.3l-0.1-0.3
		l-0.2-0.3l-0.3-0.2l-0.3-0.2l-0.3,0l-0.3,0l-0.3,0.1l-0.2,0.2l-0.2,0.3l-0.1,0.3v0.3l0.1,0.3l0.2,0.3l0.2,0.3l0.3,0.2l0.3,0.1
		l0.3,0l0.3-0.1l0.3-0.1l0.2-0.2l0.1-0.3L254.3,458.1 M240.5,456.3l0-0.3l-0.1-0.3l-0.2-0.3l-0.2-0.2l-0.3-0.2l-0.3,0h-0.3l-0.3,0.1
		l-0.2,0.2l-0.2,0.3l-0.1,0.3v0.3l0.1,0.3l0.2,0.3l0.2,0.3l0.3,0.2l0.3,0.1l0.3,0l0.3-0.1l0.2-0.1l0.2-0.2l0.1-0.3L240.5,456.3
		 M226.6,454.6l0-0.3l-0.1-0.3l-0.2-0.3l-0.3-0.2l-0.3-0.1l-0.3,0H225l-0.3,0.1l-0.2,0.2l-0.2,0.3l-0.1,0.3v0.3l0.1,0.3l0.2,0.3
		l0.2,0.3l0.3,0.2l0.3,0.1l0.3,0l0.3-0.1l0.3-0.2l0.2-0.2l0.1-0.3L226.6,454.6 M212.7,452.8v-0.3l-0.1-0.3l-0.2-0.3l-0.3-0.2
		l-0.3-0.1l-0.3,0h-0.3l-0.3,0.1l-0.3,0.2l-0.1,0.3l-0.1,0.3v0.3l0.1,0.3l0.1,0.3l0.3,0.2l0.3,0.2l0.3,0.1h0.3l0.3,0l0.3-0.2
		l0.2-0.2l0.1-0.3V452.8 M198.9,451.1l0-0.3l-0.1-0.3l-0.2-0.3l-0.3-0.2l-0.3-0.1l-0.3,0h-0.3l-0.3,0.1l-0.3,0.2l-0.2,0.3l0,0.3v0.3
		l0,0.3l0.2,0.3l0.3,0.2l0.3,0.2l0.3,0.1h0.3l0.3,0l0.3-0.2l0.2-0.2l0.1-0.3L198.9,451.1 M276.9,467.9l0-0.5l-0.1-0.5l-0.2-0.5
		l-0.3-0.4l-0.3-0.4l-0.4-0.3l-0.4-0.3l-0.5-0.2l-0.5-0.1l-0.5,0l-0.5,0l-0.4,0.1l-0.4,0.2l-0.3,0.3l-0.3,0.3l-0.3,0.4l-0.1,0.4
		l-0.1,0.5v0.5l0.1,0.5l0.1,0.5l0.3,0.5l0.3,0.4l0.3,0.3l0.4,0.3l0.4,0.3l0.5,0.2l0.5,0h0.5l0.5-0.1l0.4-0.1l0.4-0.3l0.3-0.3
		l0.3-0.4l0.2-0.4l0.1-0.4L276.9,467.9 M268.2,473.8l0-0.3l-0.1-0.3l-0.2-0.3l-0.3-0.2l-0.3-0.1l-0.3,0h-0.3l-0.3,0.1l-0.2,0.2
		l-0.2,0.3l-0.1,0.3v0.3l0.1,0.3l0.2,0.3l0.2,0.3l0.3,0.2l0.3,0.1h0.3l0.3,0l0.3-0.2l0.2-0.2l0.1-0.3L268.2,473.8 M254.3,472.1
		l0-0.3l-0.1-0.3l-0.2-0.3l-0.3-0.2l-0.3-0.1l-0.3,0h-0.3l-0.3,0.1l-0.2,0.2l-0.2,0.3l-0.1,0.3v0.3l0.1,0.3l0.2,0.3l0.2,0.2l0.3,0.2
		l0.3,0.1h0.3l0.3,0l0.3-0.2l0.2-0.2l0.1-0.3L254.3,472.1 M240.5,470.3l0-0.3l-0.1-0.3l-0.2-0.3l-0.2-0.2l-0.3-0.1l-0.3,0h-0.3
		l-0.3,0.1l-0.2,0.2l-0.2,0.3l-0.1,0.3v0.3l0.1,0.3l0.2,0.3l0.2,0.2l0.3,0.2l0.3,0.1h0.3l0.3,0l0.2-0.2l0.2-0.2l0.1-0.3L240.5,470.3
		 M226.6,468.6l0-0.3l-0.1-0.3l-0.2-0.3l-0.3-0.2l-0.3-0.1l-0.3-0.1l-0.3,0l-0.3,0.1l-0.2,0.2l-0.2,0.3l-0.1,0.3v0.3l0.1,0.3
		l0.2,0.3l0.2,0.2l0.3,0.2l0.3,0.1h0.3l0.3,0l0.3-0.2l0.2-0.2l0.1-0.3L226.6,468.6 M212.7,466.8v-0.3l-0.1-0.3l-0.2-0.3l-0.3-0.2
		l-0.3-0.1l-0.3-0.1l-0.3,0l-0.3,0.1l-0.3,0.2l-0.1,0.3l-0.1,0.3v0.3l0.1,0.3l0.1,0.3l0.3,0.2l0.3,0.2l0.3,0.1h0.3l0.3,0l0.3-0.2
		l0.2-0.2l0.1-0.3V466.8 M198.9,465.1l0-0.3l-0.1-0.3l-0.2-0.3l-0.3-0.2l-0.3-0.1l-0.3-0.1l-0.3,0l-0.3,0.1l-0.3,0.2l-0.2,0.2l0,0.3
		v0.3l0,0.3l0.2,0.3l0.3,0.3l0.3,0.2l0.3,0.1h0.3l0.3-0.1l0.3-0.1l0.2-0.2l0.1-0.3L198.9,465.1 M191.9,457.2l0-0.3l-0.1-0.3
		l-0.2-0.3l-0.3-0.2l-0.3-0.2l-0.3,0l-0.3,0l-0.3,0.1l-0.2,0.2l-0.2,0.3l-0.1,0.3v0.3l0.1,0.3l0.2,0.3l0.2,0.3l0.3,0.2l0.3,0.1
		l0.3,0l0.3-0.1l0.3-0.1l0.2-0.2l0.1-0.3L191.9,457.2 M177.5,382.4v83.1 M177.5,465.5l102.8,12.9 M280.4,395.2L280.4,395.2l0.2-0.1
		 M280.3,478.4v-83.1 M281.1,478.6H281h-0.2l-0.3,0l-0.2-0.1 M281.1,478.6V395 M280.3,395.4l0.2,0l0.3-0.1l0.2-0.1l0.1-0.1
		 M280.3,395.4l-102.8-12.9 M177.5,382.4l-0.1-0.1l0-0.2l-0.1-0.1l0-0.1l0-0.1l0-0.1v-0.1l0,0 M281.1,394.6v0.3 M281.1,394.6
		l-0.2,0.1l-0.3,0.2l-0.2,0.3l-0.1,0.2 M280.3,395.4L280.3,395.4 M281.1,395l-0.3,0l-0.3,0.1l-0.1,0.1 M281.7,448.1l24.2-21.4
		 M307.8,481l24-21.1 M333.6,484.3l24-21.2 M281.7,420.1l24.2-21.4 M307.8,451.6l24-21.1 M359.4,487.5l23.1-20.3 M333.6,454.9
		l24-21.1 M307.8,423.7l24-21.1 M359.4,458.2l23.1-20.4 M333.6,427l24-21.1 M359.4,430.2l23.1-20.3 M307.8,453.5l24,3.1
		 M331.8,456.5V484 M331.8,484l1.8,0.3 M333.6,484.3v-27.5 M333.6,456.8l24,3 M357.6,459.8v27.5 M357.6,487.3l1.8,0.2 M359.4,487.5
		V460 M359.4,460l23.1,2.9 M382.5,462.9V461 M382.5,461l-23.1-2.9 M359.4,458.2v-26.1 M359.4,432.1l23.1,2.9 M382.5,435v-1.9
		 M382.5,433.1l-23.1-2.9 M359.4,430.2v-25.7 M357.6,404.3V430 M357.6,430l-24-3 M333.6,427v-25.8 M331.8,401v25.7 M331.8,426.7
		l-24-3 M307.8,423.7V398 M305.9,397.7v25.8 M305.9,423.5l-24.2-3.1 M281.7,422.3l24.2,3.1 M305.9,425.3v26.1 M305.9,451.4
		l-24.2-3.1 M281.7,450.2l24.2,3.1 M305.9,453.3v27.5 M305.9,480.8l1.9,0.2 M307.8,481v-27.5 M307.8,425.6v26.1 M331.8,428.6l-24-3
		 M331.8,454.7v-26.1 M307.8,451.6l24,3.1 M333.6,428.8v26.1 M357.6,431.8l-24-3.1 M357.6,457.9v-26.1 M333.6,454.9l24,3 M419,448
		l-0.7-0.1 M417.9,445.9l0.7,0.1 M419,428.2l-0.7-0.1 M417.9,426.1l0.7,0 M419,408.4l-0.7-0.1 M417.9,406.3l0.7,0.1 M419,388.6
		l-0.7-0.1 M417.9,386.5l0.7,0.1 M419,372.8l-0.7-0.1 M383.7,496.3l0.7,0.1 M211.6,346.6l-0.7-0.1 M176.4,470.2l0.6,0 M177.1,382
		v83.5 M281.5,478.3L281.5,478.3 M177.2,465.9l103.7,13.1 M280.4,395.3L280.4,395.3L280.4,395.3L280.4,395.3"/>
</g>
<text transform="matrix(1 0 0 1 245.0891 282.7972)" class="st1 st2">ALPHA_900_SLD</text>
</svg>
