<?xml version="1.0" encoding="utf-8"?>
<!-- Generator: Adobe Illustrator 22.0.1, SVG Export Plug-In . SVG Version: 6.00 Build 0)  -->
<svg version="1.1" id="Layer_1" xmlns="http://www.w3.org/2000/svg" xmlns:xlink="http://www.w3.org/1999/xlink" x="0px" y="0px"
	 viewBox="0 0 595.3 841.9" style="enable-background:new 0 0 595.3 841.9;" xml:space="preserve">
<style type="text/css">
	.st0{fill:none;stroke:#010101;stroke-width:0.5;stroke-linecap:round;stroke-linejoin:round;stroke-miterlimit:10;}
	.st1{font-family:'MyriadPro-Regular';}
	.st2{font-size:12px;}
</style>
<g>
	<path class="st0" d="M418.1,445.8l0.6,0.1 M418.1,444.9l0.5,0 M418.1,426l0.6,0 M418.1,425.1l0.5,0 M418.1,406.2l0.6,0.1
		 M418.1,405.3l0.5,0.1 M418.1,386.4l0.6,0.1 M418.1,385.5l0.5,0 M263.5,435l0.2-0.2 M264.2,435.8l0.9-0.8 M297.3,439.3l0.2-0.2
		 M263.5,391.3l0.2-0.2 M264.2,392.1l0.9-0.8 M297.3,395.6l0.2-0.2 M177.4,467.5l-0.3,0.3 M177.1,470.6l206.6,26 M177.1,467.8
		l206.6,26 M177.1,467.8v2.8 M383.7,496.6l0.2-0.2 M383.7,493.8v2.8 M418.6,372.6v0.2 M177.1,380.2l206.6,26 M383.7,403.4v2.8
		 M177.1,377.4v2.8 M212,346.6l-35,30.8 M177.1,377.4l206.6,26 M383.7,403.4l35-30.8 M418.6,372.6l-206.6-26 M211.1,346.7
		L211.1,346.7L211.1,346.7 M176.4,469.8l0,0.1v0.1v0.1l0,0.1l0,0h0 M211.1,346.7l-34.4,30.3 M211.1,346.7l0.7,0.1 M176.4,378v91.8
		 M176.4,469.8l0.7,0.1 M176.6,377.1l0.7,0.1 M176.6,377.1L176.6,377.1l-0.1,0.2l0,0.1l0,0.1l0,0.1v0.1v0.2l0,0.1 M176.4,378
		l0.7,0.1 M177.1,378.1v91.8 M211.7,346.8l-34.4,30.3 M418.4,448.1L418.4,448.1L418.4,448.1 M418.4,448.1l-0.3,0.3 M418.4,448.1
		l0.7,0.1 M418.4,428.3L418.4,428.3L418.4,428.3 M418.4,428.3l-0.3,0.3 M418.4,428.3l0.7,0.1 M418.4,408.5L418.4,408.5L418.4,408.5
		 M418.4,408.5l-0.3,0.3 M418.4,408.5l0.7,0.1 M418.4,388.7L418.4,388.7L418.4,388.7 M418.4,388.7l-0.3,0.3 M418.4,388.7l0.7,0.1
		 M418.4,372.8L418.4,372.8L418.4,372.8 M383.7,495.9v0.1l0,0.1v0.1l0,0.1l0,0l0,0 M418.4,372.8l-34.4,30.4 M418.4,372.8l0.7,0.1
		 M383.7,404.1v91.8 M383.7,495.9l0.7,0.1 M383.9,403.2l0.7,0.1 M383.9,403.2L383.9,403.2l-0.1,0.1l0,0.1l0,0.1l0,0.1v0.2l0,0.1v0.1
		 M383.7,404.1l0.7,0.1 M387.2,476.8l0-0.1v-0.1l0,0l-0.1,0l0,0l0,0.1l0,0.2v0.1v0.1l0,0.1l0,0h0l0.1-0.1l0-0.1V477L387.2,476.8
		 M387.2,447.7l0-0.1v-0.1l0,0H387l0,0.1l0,0.1l0,0.1v0.2v0.1l0,0.1l0,0h0l0.1-0.1l0-0.1v-0.1L387.2,447.7 M387.2,418.6l0-0.1v-0.1
		l0,0H387l0,0.1l0,0.1l0,0.1v0.2v0.1l0,0.1l0,0l0,0l0.1,0l0-0.1v-0.1L387.2,418.6 M387.2,492.2l0-0.1V492l0,0H387l0,0.1l0,0.1l0,0.1
		v0.2v0.1l0,0.1l0,0h0l0.1-0.1l0-0.1v-0.1L387.2,492.2 M387.2,403.2l0-0.1V403l0,0l-0.1,0l0,0l0,0.1l0,0.1v0.2v0.1l0,0.1l0,0h0
		l0.1-0.1l0-0.1v-0.1L387.2,403.2 M417.2,465.7v-0.1l0-0.1l0,0h0l0,0.1l0,0.1l0,0.1v0.2v0.1l0,0.1l0,0l0,0l0,0l0-0.1l0-0.1V465.7
		 M417.2,392.1v-0.1l0-0.1l0,0h0l0,0.1l0,0.1l0,0.1v0.2v0.1l0,0.1l0,0l0,0l0,0l0-0.1l0-0.2V392.1 M417.2,421.2V421l0-0.1l0,0h0
		l0,0.1l0,0.1l0,0.1v0.2v0.1l0,0.1l0,0h0l0-0.1l0-0.1l0-0.1V421.2 M417.2,450.3v-0.1l0-0.1l0,0l0,0l0,0l0,0.1l0,0.1v0.2v0.1l0,0.1
		l0,0h0l0-0.1l0-0.1l0-0.1V450.3 M417.2,376.7v-0.1l0-0.1l0,0h0l0,0.1l0,0.1l0,0.1v0.2v0.1l0,0.1l0,0h0l0-0.1l0-0.1l0-0.1V376.7
		 M406.9,474.8l0-0.2v-0.1l0,0l-0.1,0l0,0.1l0,0.1l0,0.2v0.1v0.1l0,0.1l0,0h0l0.1-0.1l0-0.1V475L406.9,474.8 M397.5,483.1v-0.1
		l0-0.1l0,0l0,0l0,0.1l0,0.1l0,0.2v0.1v0.1l0,0.1h0h0l0-0.1l0-0.1l0-0.2V483.1 M397.5,394.1v-0.1l0-0.1l0,0h0l0,0.1l0,0.1l0,0.1v0.1
		v0.2l0,0.1l0,0l0,0l0-0.1l0-0.1l0-0.2V394.1 M406.9,385.8l0-0.1v-0.1h0h-0.1l0,0.1l0,0.1l0,0.2v0.1v0.1l0,0.1l0,0l0,0l0.1-0.1
		l0-0.1V386L406.9,385.8 M384.6,403.3L384.6,403.3l-0.1,0.1l0,0.1l0,0.1l0,0.1v0.2l0,0.1v0.1 M384.4,404.2V496 M384.4,496v0.1l0,0.1
		v0.1l0,0.1l0,0l0,0h0l0,0 M384.6,496.5l34.4-30.4 M419.1,466.1L419.1,466.1l0.1-0.1l0-0.1l0-0.1l0-0.1l0-0.1v-0.2v-0.1
		 M419.3,465.2v-16.6 M419.3,448.6v-0.1v-0.1l0-0.1l0,0l0-0.1h0h0l0,0 M419.1,448.2l-1,0.9 M418.1,449.1v-3.6 M418.1,445.5l0-0.3
		l0-0.3l0.1-0.2l0.1-0.2l0.1-0.1h0.1l0.1,0.1l0,0.2v0.2 M418.6,444.9v1 M418.6,445.9L418.6,445.9l0,0.1v0v0h0h0 M418.7,446.1
		l0.3-0.3 M419.1,445.8L419.1,445.8l0.1-0.1l0-0.1l0-0.1l0-0.1l0-0.2v-0.1v-0.1 M419.3,444.9v-16.1 M419.3,428.8v-0.1v-0.1l0-0.1
		l0-0.1l0,0h0h0h0 M419.1,428.4l-1,0.9 M418.1,429.2v-3.6 M418.1,425.6l0-0.3l0-0.3l0.1-0.2l0.1-0.2l0.1-0.1h0.1l0.1,0.1l0,0.2v0.3
		 M418.6,425.1v0.9 M418.6,426.1L418.6,426.1l0,0.1v0v0l0,0h0 M418.7,426.3l0.3-0.3 M419.1,426.1L419.1,426.1l0.1-0.1l0-0.1l0-0.1
		l0-0.2l0-0.1v-0.1v-0.1 M419.3,425.1v-16.1 M419.3,409.1v-0.1v-0.1l0-0.1l0-0.1l0,0l0,0h0l0,0 M419.1,408.6l-1,0.9 M418.1,409.5
		v-3.6 M418.1,405.8l0-0.3l0-0.3l0.1-0.3l0.1-0.2l0.1-0.1h0.1l0.1,0.1l0,0.2v0.3 M418.6,405.4v0.9 M418.6,406.3L418.6,406.3l0,0.1v0
		v0h0v0h0v0 M418.7,406.5l0.3-0.2 M419.1,406.3L419.1,406.3l0.1-0.2l0-0.1l0-0.1l0-0.1l0-0.1v-0.1v-0.2 M419.3,405.3v-16.1
		 M419.3,389.2v-0.1V389l0-0.1l0,0l0,0l0,0h0l0,0 M419.1,388.8l-1,0.9 M418.1,389.7v-3.6 M418.1,386.1l0-0.3l0-0.3l0.1-0.2l0.1-0.2
		l0.1-0.1h0.1l0.1,0.1l0,0.2v0.2 M418.6,385.5v1 M418.6,386.5L418.6,386.5l0,0.1v0v0h0h0 M418.7,386.7l0.3-0.3 M419.1,386.4
		L419.1,386.4l0.1-0.1l0-0.1l0-0.1l0-0.1l0-0.1v-0.2v-0.1 M419.3,385.5v-12.1 M419.3,373.4v-0.1v-0.1l0-0.1l0-0.1l0,0l0,0l0,0h0
		 M419.1,372.9l-34.4,30.4 M268.1,439.8l-0.5-0.1l-0.4-0.2l-0.4-0.3l-0.3-0.3l-0.3-0.3l-0.2-0.4l-0.1-0.5l0-0.4 M177.4,424.1
		l0.3-0.2 M265.8,437.2v-2.1 M264.2,438.6l1.6-1.4 M295.8,443.3l-27.7-3.5 M266.5,441.2l1.6-1.4 M296.5,443.3h-0.2h-0.4
		 M294.2,444.7l1.6-1.4 M297.3,439.3h-0.1H297l-0.1,0l-0.1,0.1l-0.1,0.1l-0.1,0.1l0,0.1v0.1 M296.6,439.9v2.8 M296.6,442.7l0,0.4
		l-0.1,0.4l-0.2,0.4l-0.3,0.3l-0.4,0.3l-0.4,0.1l-0.4,0.1h-0.4 M294.2,444.7l-27.7-3.5 M266.5,441.2l-0.5-0.1l-0.4-0.2l-0.4-0.3
		l-0.3-0.3l-0.3-0.4l-0.2-0.4l-0.1-0.4l0-0.4 M264.2,438.6v-2.8 M264.2,435.8l0-0.1l0-0.1l0-0.1l-0.1-0.1l-0.1-0.1l-0.1-0.1l-0.1,0
		l-0.1,0 M263.5,435l-86.1-10.9 M177.4,424.1v43.4 M177.4,467.6l205.9,26 M383.3,450.1l-86.1-10.9 M383.3,450.1l0.3-0.3
		 M383.3,493.6v-43.4 M383.3,493.6l0.3-0.3 M268.1,396.2l-0.5-0.1l-0.4-0.2l-0.4-0.3l-0.3-0.3l-0.3-0.4l-0.2-0.4l-0.1-0.4l0-0.5
		 M177.4,380.5l0.3-0.2 M265.8,393.5v-2.1 M264.2,394.9l1.6-1.4 M295.8,399.7l-27.7-3.5 M266.5,397.5l1.6-1.4 M296.5,399.7h-0.2
		h-0.4 M294.2,401l1.6-1.4 M383.3,406.4l-86.1-10.9 M297.3,395.6h-0.1H297l-0.1,0l-0.1,0.1l-0.1,0.1l-0.1,0.1l0,0.1v0.1
		 M296.6,396.2v2.8 M296.6,399l0,0.4l-0.1,0.4l-0.2,0.3l-0.3,0.3l-0.4,0.2l-0.4,0.2l-0.4,0.1h-0.4 M294.2,401l-27.7-3.5
		 M266.5,397.5l-0.5-0.1l-0.4-0.2l-0.4-0.3l-0.3-0.3l-0.3-0.4l-0.2-0.4l-0.1-0.4l0-0.5 M264.2,394.9v-2.8 M264.2,392.1l0-0.1l0-0.1
		l0-0.1l-0.1-0.1l-0.1-0.1l-0.1-0.1l-0.1,0l-0.1,0 M263.5,391.3l-86.1-10.9 M177.4,380.5v43.4 M177.4,423.9l205.9,25.9 M383.3,406.4
		l0.3-0.2 M383.3,449.9v-43.4 M383.3,449.9l0.3-0.3 M211.8,346.8l-0.7-0.1 M176.5,470.3l0.5,0.1 M419.1,448.2l-0.7-0.1 M418.1,446.1
		l0.7,0 M419.1,428.4l-0.7-0.1 M418.1,426.2l0.7,0.1 M419.1,408.5l-0.7-0.1 M418.1,406.4l0.7,0.1 M419.1,388.8l-0.7-0.1
		 M418.1,386.7l0.7,0 M419.1,372.9l-0.7-0.1 M383.8,496.4l0.7,0.1 M297.2,439l-0.4,0.4 M297.2,395.3l-0.4,0.4"/>
</g>
<text transform="matrix(1 0 0 1 275.5363 238.5941)" class="st1 st2">ALPHA_900_2DR</text>
</svg>
